<svg xmlns="http://www.w3.org/2000/svg" width="1200" height="768" viewBox="0 0 1200 768"><path fill="none" stroke="#231F20" stroke-width="2" stroke-miterlimit="10" d="M190.511 384h24.544l72.563 128.842v121.935l-48.553 62.695-15.74-16.814s46.152-93.757-32.814-147.331V384zM813.044 108.407l25.608-15.726s156.392 162.774 101.559 290.991l-15.32 28.34-36.072-1.42c0 .001 26.95-131.634-75.775-302.185zM71.091 232.295c-10.364-17.802-4.586-40.784 12.904-51.331 17.491-10.548 39.119-4.055 50.436 13.135l27.821 42.26v235.674H36.38v-85.809l52.807-114.517-18.096-39.412zM488.437 436.526h39.702l42.409 106.604v100.571l-41.055 50.285H474V648.73s15.339-8.047 14.438-22.126c-.904-14.08-.001-190.078-.001-190.078zM1164.605 38.309H925.882v88.566s6.104 24.54 37.426 12.508c29.896-11.484 64.458-55.592 91.944-36.442 27.484 19.149 84.792 51.914 109.353 43.311V38.309zM34.571 37.373H458v38.344s-174.165-13.944-255.743 47.637c-81.576 61.581-122.365 21.956-131.43 12.14L34.571 37.373zM1108.972 255.774H1164v439.269h-74.241l-.406-79.781s63.856-76.344 20.149-144.762c0 0-84.627-131.584-.53-214.726zM692.995 100.03c13.388-16.063 11.236-40.428-4.639-53.973-15.876-13.54-45.912-11.701-55.632 8.726 0 0-64.167 200.729-51.635 219.261h20.247l59.772 166.789 47.24-12.681s-72.489-272.59-45.312-298.463c27.177-25.867 29.959-29.659 29.959-29.659z"/><path fill="none" stroke="#231F20" stroke-width="2" stroke-miterlimit="10" d="M828.87 297.37c-70.432 0-127.528-58.286-127.528-130.186C701.342 95.287 758.438 37 828.87 37v32.446s-71.146 23.885-58.494 64.921c12.652 41.032 58.494 128.182 58.494 128.182v34.821zM1034.801 413.67h-24.67l-32.185-132.597 29.102-132.595h27.753l23.127 132.595s-41.629 61.672-23.127 132.597zM640.831 695.043V479.62c0-31.747-15.555-57.481-34.745-57.481l-29.104 51.291 45.557 221.613h18.292zM728.521 376.441c0-25.47 18.153-46.117 40.543-46.117h59.934v267.601h-13.096v33.833h-24.48l-62.901-255.317zM394.858 104.251h60.028v402.647l-46.3 189.709-16.099-14.09s29.565-80.116-3.904-262.404l-32.422-166.806 38.697-149.056zM332.572 262.213V112.412c-77.217 0-139.813 67.067-139.813 149.801 0 82.73 62.597 149.8 139.813 149.8v-26.394s-56.202-66.892 0-123.406zM955.011 449.576h73.272s-4.347 36.73 33.771 63.347c31.945 22.309 0 75.743 0 75.743V695.01H955.011s-53.283-158.454 0-245.434zM486.688 37.314h32.113l20.874 35.326v164.393s-2.438 45.729 35.325 83.492c41.142 41.143 24.085 85.877 24.085 85.877H486.688V37.314zM847.895 452.664l36.319-18.915L899 464.615v232.147l-17.021-13.617-17.022-190.641zM694.996 459.768h26.703l-4.45 236.994h-14.465zM857.025 648.281V695H750.133v-18.915zM341.521 694.136s-.808-100.35 2.153-107.965c2.962-7.616 8.463-13.54 2.962-24.118-5.501-10.58-7.923-16.078-7.923-16.078V530.74l.182-2.052s2.424-5.5 7.924-16.081c5.501-10.576 0-16.5-2.962-24.118-2.962-7.617-1.764-45.698-1.764-45.698-8.032-3.384-16.626 0-16.626 0s1.197 38.081-1.765 45.698c-2.962 7.618-8.463 13.542-2.962 24.118 5.501 10.581 7.924 16.081 7.924 16.081l.182 2.052v15.235s-2.422 5.498-7.924 16.078c-5.5 10.578 0 16.502 2.962 24.118 2.962 7.615 2.154 107.965 2.154 107.965s6.879 3.926 15.483 0zM96.561 493.577h65.692v201.71H96.561v-26.625s-30.017-1.599-32.627-26.819c-2.61-25.219 32.627-148.266 32.627-148.266z"/><g fill="#231F20"><path d="M51.258 729.409H45.55v-1.992c0-1.257-.054-2.044-.163-2.36-.108-.316-.366-.475-.773-.475-.352 0-.592.136-.718.407-.127.271-.19.967-.19 2.088v10.535c0 .985.062 1.634.19 1.945.126.312.379.469.759.469.416 0 .698-.177.848-.529.149-.353.223-1.039.223-2.061v-2.604h-1.152v-3.336h6.684v11.783h-3.587l-.527-1.573c-.389.678-.88 1.187-1.473 1.524-.593.34-1.291.51-2.096.51a5.45 5.45 0 0 1-2.694-.698c-.836-.466-1.472-1.042-1.906-1.729a5.436 5.436 0 0 1-.814-2.162c-.109-.754-.163-1.887-.163-3.396v-6.521c0-2.098.112-3.621.339-4.57.226-.948.875-1.818 1.945-2.609 1.071-.791 2.457-1.187 4.156-1.187 1.672 0 3.06.344 4.162 1.03 1.103.688 1.821 1.503 2.156 2.447.334.945.501 2.316.501 4.115v.949zM65.712 734.603h-7.091v3.891c0 .814.059 1.339.176 1.573.117.235.344.353.678.353.416 0 .693-.156.833-.468.14-.312.21-.915.21-1.81v-2.373h5.193v1.328c0 1.112-.07 1.966-.21 2.562-.141.598-.468 1.234-.983 1.912a4.774 4.774 0 0 1-1.959 1.525c-.791.34-1.783.508-2.976.508-1.157 0-2.179-.167-3.064-.501-.887-.335-1.576-.793-2.068-1.376a4.976 4.976 0 0 1-1.023-1.926c-.19-.7-.285-1.719-.285-3.057v-5.248c0-1.572.213-2.812.638-3.722.425-.908 1.121-1.604 2.088-2.088s2.079-.726 3.335-.726c1.537 0 2.804.291 3.803.875.999.582 1.699 1.355 2.102 2.318s.604 2.316.604 4.061v2.389zm-5.491-2.93v-1.314c0-.932-.05-1.532-.149-1.804-.1-.271-.303-.407-.61-.407-.379 0-.615.116-.705.347-.09.23-.135.852-.135 1.864v1.314h1.599zM73.277 721.377v4.345h1.479v2.848h-1.479v9.626c0 1.185.062 1.844.184 1.979.122.136.63.203 1.525.203v2.902h-2.209c-1.248 0-2.138-.053-2.671-.156a2.848 2.848 0 0 1-1.41-.719c-.407-.375-.66-.805-.76-1.288s-.149-1.62-.149-3.41v-9.138h-1.18v-2.848h1.18v-4.345h5.49zM84.192 721.328v21.952h-5.64v-21.952h5.64zM98.551 731.606v4.406c0 1.617-.081 2.804-.244 3.559-.162.755-.511 1.46-1.043 2.115a4.727 4.727 0 0 1-2.055 1.451c-.836.311-1.796.467-2.881.467-1.211 0-2.237-.133-3.078-.399-.841-.267-1.495-.669-1.959-1.206-.466-.538-.798-1.189-.997-1.953-.199-.764-.299-1.909-.299-3.438v-4.609c0-1.672.181-2.979.542-3.918.361-.941 1.012-1.695 1.953-2.265s2.143-.854 3.606-.854c1.229 0 2.285.184 3.166.549.881.366 1.562.844 2.041 1.431.479.588.807 1.193.983 1.817.177.623.265 1.572.265 2.847zm-5.478-1.356c0-.922-.05-1.503-.149-1.742-.099-.239-.312-.36-.637-.36s-.542.121-.651.36-.163.82-.163 1.742v8.122c0 .85.054 1.402.163 1.66s.321.387.638.387c.325 0 .54-.117.644-.353.104-.234.156-.741.156-1.519v-8.297zM111.54 731.036h-4.854v-.977c0-.832-.047-1.357-.142-1.579-.095-.222-.332-.333-.712-.333-.307 0-.538.103-.691.307-.154.202-.23.508-.23.914 0 .552.038.956.114 1.214.077.257.308.54.692.848s1.172.755 2.366 1.342c1.591.778 2.635 1.51 3.133 2.196.497.688.745 1.687.745 2.997 0 1.464-.189 2.569-.569 3.315-.379.745-1.015 1.319-1.905 1.722-.89.402-1.964.603-3.22.603-1.392 0-2.583-.217-3.573-.65-.989-.434-1.67-1.021-2.041-1.762-.37-.742-.556-1.862-.556-3.363v-.867h4.854v1.139c0 .967.061 1.596.184 1.885.122.289.363.434.725.434.388 0 .659-.098.813-.291.154-.194.231-.604.231-1.228 0-.858-.1-1.397-.298-1.614-.208-.217-1.27-.857-3.186-1.925-1.609-.903-2.59-1.724-2.943-2.461-.352-.736-.528-1.611-.528-2.624 0-1.437.19-2.496.569-3.18.379-.682 1.024-1.208 1.932-1.579.909-.37 1.964-.556 3.167-.556 1.193 0 2.208.151 3.043.454.837.304 1.479.703 1.926 1.2s.719.958.813 1.383c.095.426.143 1.09.143 1.993v1.043zM119.201 721.377v4.345h1.478v2.848h-1.478v9.626c0 1.185.061 1.844.183 1.979s.631.203 1.525.203v2.902h-2.21c-1.248 0-2.139-.053-2.671-.156a2.844 2.844 0 0 1-1.41-.719c-.407-.375-.66-.805-.759-1.288-.1-.483-.149-1.62-.149-3.41v-9.138h-1.18v-2.848h1.18v-4.345h5.491z"/></g><path fill="none" d="M467.892 729.302h431.107v37.697H467.892z"/><text transform="translate(467.892 739.41)"><tspan x="0" y="0" fill="#231F20" font-family="'WhitneyHTF-SemiBold'" font-size="14">01.16.2017 — 01.22.2017</tspan><tspan x="155.578" y="0" fill="#231F20" font-family="'WhitneyHTF-SemiBold'" font-size="14" letter-spacing="21"> </tspan><tspan x="179.999" y="0" fill="#231F20" font-family="'WhitneyHTF-SemiBold'" font-size="14">opening night reception 01.16.2017</tspan></text><path fill="none" d="M909.139 729.301h252.195v37.697H909.139z"/><text transform="translate(909.139 742.299)" fill="#231F20" font-family="'WhitneyHTF-Bold'" font-size="18">RSVP HERE</text><path fill="none" d="M159.545 729.302h314.454v37.697H159.545z"/><text transform="translate(159.545 739.41)" fill="#231F20" font-family="'WhitneyHTF-SemiBold'" font-size="14">founded by garcia — curated by biography</text><g><g fill="#A6A8AB"><path d="M49.151 37.405c0 5.336-4.329 9.664-9.667 9.664s-9.665-4.328-9.665-9.664c0-5.341 4.327-9.666 9.665-9.666s9.667 4.325 9.667 9.666z"/><circle cx="39.486" cy="56.734" r="9.666"/><path d="M68.481 37.405c0 5.336-4.327 9.664-9.667 9.664-5.338 0-9.663-4.328-9.663-9.664 0-5.341 4.325-9.666 9.663-9.666a9.664 9.664 0 0 1 9.667 9.666z"/><path d="M87.811 37.405c0 5.336-4.328 9.664-9.665 9.664-5.338 0-9.665-4.328-9.665-9.664a9.664 9.664 0 0 1 9.665-9.666 9.664 9.664 0 0 1 9.665 9.666z"/><circle cx="58.816" cy="56.734" r="9.665"/><circle cx="39.486" cy="76.066" r="9.666"/></g><circle fill="#231F20" cx="78.146" cy="76.066" r="9.665"/></g></svg>