<svg width="84" height="23" viewBox="30 60 84 23" xmlns="http://www.w3.org/2000/svg"><g fill="#231F20" fill-rule="evenodd"><path d="M43.805 68.644h-5.708v-1.992c0-1.257-.054-2.044-.163-2.36-.108-.316-.366-.475-.773-.475-.352 0-.592.136-.718.407-.127.271-.19.967-.19 2.088v10.535c0 .985.062 1.634.19 1.945.126.312.379.469.759.469.416 0 .698-.177.848-.529.149-.353.223-1.039.223-2.061v-2.604h-1.152v-3.336h6.684v11.783h-3.587l-.527-1.573c-.389.678-.88 1.187-1.473 1.524-.593.34-1.291.51-2.096.51a5.45 5.45 0 0 1-2.694-.698c-.836-.466-1.472-1.042-1.906-1.729a5.436 5.436 0 0 1-.814-2.162c-.109-.754-.163-1.887-.163-3.396v-6.521c0-2.098.112-3.621.339-4.57.226-.948.875-1.818 1.945-2.609 1.071-.791 2.457-1.187 4.156-1.187 1.672 0 3.06.344 4.162 1.03 1.103.688 1.821 1.503 2.156 2.447.334.945.501 2.316.501 4.115v.949h.001zM58.258 73.837h-7.091v3.891c0 .814.059 1.339.176 1.573.117.235.344.353.678.353.416 0 .693-.156.833-.468.14-.312.21-.915.21-1.81v-2.373h5.193v1.328c0 1.112-.07 1.966-.21 2.562-.141.598-.468 1.234-.983 1.912a4.774 4.774 0 0 1-1.959 1.525c-.791.34-1.783.508-2.976.508-1.157 0-2.179-.167-3.064-.501-.887-.335-1.576-.793-2.068-1.376a4.976 4.976 0 0 1-1.023-1.926c-.19-.7-.285-1.719-.285-3.057V70.73c0-1.572.213-2.812.638-3.722.425-.908 1.121-1.604 2.088-2.088.967-.484 2.079-.726 3.335-.726 1.537 0 2.804.291 3.803.875.999.582 1.699 1.355 2.102 2.318.403.963.604 2.316.604 4.061v2.389h-.001zm-5.491-2.929v-1.314c0-.932-.05-1.532-.149-1.804-.1-.271-.303-.407-.61-.407-.379 0-.615.116-.705.347-.09.23-.135.852-.135 1.864v1.314h1.599zM65.824 60.612v4.345h1.479v2.848h-1.479v9.626c0 1.185.062 1.844.184 1.979.122.136.63.203 1.525.203v2.902h-2.209c-1.248 0-2.138-.053-2.671-.156a2.848 2.848 0 0 1-1.41-.719c-.407-.375-.66-.805-.76-1.288-.1-.483-.149-1.62-.149-3.41v-9.138h-1.18v-2.848h1.18v-4.345h5.49v.001zM76.738 60.563v21.952h-5.64V60.563zM91.097 70.841v4.406c0 1.617-.081 2.804-.244 3.559-.162.755-.511 1.46-1.043 2.115a4.727 4.727 0 0 1-2.055 1.451c-.836.311-1.797.467-2.881.467-1.212 0-2.238-.133-3.078-.399-.842-.267-1.494-.669-1.959-1.206-.467-.538-.799-1.189-.997-1.953-.199-.764-.299-1.909-.299-3.438v-4.609c0-1.672.181-2.979.542-3.918.361-.941 1.013-1.695 1.953-2.265.94-.57 2.143-.854 3.606-.854 1.229 0 2.285.184 3.166.549.881.366 1.562.844 2.04 1.431.479.588.808 1.193.984 1.817.177.623.265 1.572.265 2.847zm-5.477-1.356c0-.922-.05-1.503-.149-1.742-.099-.239-.312-.36-.637-.36-.326 0-.543.121-.651.36-.108.239-.163.82-.163 1.742v8.122c0 .85.055 1.402.163 1.66.108.258.321.387.638.387.325 0 .54-.117.644-.353.104-.234.156-.741.156-1.519v-8.297h-.001zM104.086 70.271h-4.854v-.977c0-.832-.047-1.357-.143-1.579-.094-.222-.331-.333-.711-.333-.308 0-.539.103-.691.307-.154.202-.23.508-.23.914 0 .552.038.956.114 1.214.077.257.308.54.692.848.384.308 1.172.755 2.365 1.342 1.592.778 2.635 1.51 3.133 2.196.497.688.745 1.687.745 2.997 0 1.464-.189 2.569-.569 3.315-.379.745-1.015 1.319-1.905 1.722-.89.402-1.964.603-3.22.603-1.393 0-2.583-.217-3.573-.65-.989-.434-1.67-1.021-2.04-1.762-.371-.742-.557-1.862-.557-3.363v-.867h4.854v1.139c0 .967.062 1.596.184 1.885.122.289.363.434.726.434.388 0 .658-.098.812-.291.154-.194.23-.604.23-1.228 0-.858-.1-1.397-.298-1.614-.208-.217-1.271-.857-3.187-1.925-1.608-.903-2.59-1.724-2.942-2.461-.352-.736-.528-1.611-.528-2.624 0-1.437.189-2.496.569-3.18.38-.682 1.024-1.208 1.932-1.579.909-.37 1.964-.556 3.167-.556 1.192 0 2.207.151 3.043.454.837.304 1.479.703 1.926 1.2.447.497.719.958.813 1.383.095.426.143 1.09.143 1.993v1.043zM111.748 60.612v4.345h1.478v2.848h-1.478v9.626c0 1.185.061 1.844.183 1.979s.631.203 1.525.203v2.902h-2.21c-1.248 0-2.139-.053-2.671-.156a2.844 2.844 0 0 1-1.41-.719c-.407-.375-.66-.805-.759-1.288-.1-.483-.15-1.62-.15-3.41v-9.138h-1.18v-2.848h1.18v-4.345h5.492v.001z"/></g></svg>