<svg width="1275" height="675" viewBox="0 0 1275 675" xmlns="http://www.w3.org/2000/svg"><title>Layer_4</title><g stroke-width="2" stroke="#231F20" fill="#fff" fill-rule="evenodd"><path d="M432.32 75.248h60.028v402.647l-46.3 189.709-16.099-14.09s29.565-80.116-3.904-262.404l-32.422-166.806L432.32 75.248zM112.557 203.292c-10.364-17.802-4.586-40.784 12.904-51.331 17.491-10.548 39.119-4.055 50.436 13.135l27.821 42.26V443.03H77.846v-85.809l52.807-114.517-18.096-39.412zM1234.06 272.808l35.124 333.418c0 34.93-17.114 63.242-38.227 63.242l-32.021-56.432 15-340.229h20.124v.001zM1165.732 9.002H927.009v88.566s6.104 24.54 37.426 12.508c29.896-11.484 64.458-35.576 91.944-16.427 27.484 19.149 84.792 31.898 109.353 23.295V9.002zM227.973 354.997h24.544l72.563 128.842v121.935l-48.553 62.695-15.74-16.814s46.152-93.757-32.814-147.331V354.997zM763.98 347.438c0-25.47 18.153-46.117 40.543-46.117h59.934v267.601h-13.096v33.833h-24.48L763.98 347.438z"/></g></svg>