<svg width="868" height="663" viewBox="0 0 868 663" xmlns="http://www.w3.org/2000/svg"><title>Group 3</title><g stroke="#231F20" stroke-width="2" fill="#fff" fill-rule="evenodd"><path d="M501.995 64.03c13.388-16.063 11.236-40.428-4.639-53.973-15.876-13.54-45.912-11.701-55.632 8.726 0 0-64.167 200.729-51.635 219.261h20.247l59.772 166.789 47.24-12.681s-72.489-272.59-45.312-298.463c27.177-25.867 29.959-29.659 29.959-29.659z"/><path d="M637.87 261.37c-70.432 0-127.528-58.286-127.528-130.186C510.342 59.287 567.438 1 637.87 1v32.446s-71.146 23.885-58.494 64.921c12.652 41.032 58.494 128.182 58.494 128.182v34.821zM843.801 377.67h-24.67l-32.185-132.597 29.102-132.595h27.753l23.127 132.595s-41.629 61.672-23.127 132.597zM449.831 659.043V443.62c0-31.747-15.555-57.481-34.745-57.481l-29.104 51.291 45.557 221.613h18.292zM537.521 340.441c0-25.47 18.153-46.117 40.543-46.117h59.934v267.601h-13.096v33.833h-24.48l-62.901-255.317zM203.858 68.251h60.028v402.647l-46.3 189.709-16.099-14.09s29.565-80.116-3.904-262.404l-32.422-166.806 38.697-149.056zM141.572 226.213V76.412c-77.217 0-139.813 67.067-139.813 149.801 0 82.73 62.597 149.8 139.813 149.8v-26.394s-56.202-66.892 0-123.406z"/></g></svg>