<svg width="1275" height="675" viewBox="0 0 1275 675" xmlns="http://www.w3.org/2000/svg"><title>Layer_4 Copy 2</title><g stroke-width="2" stroke="#231F20" fill="#fff" fill-rule="evenodd"><path d="M1134.424 271.808h45.02V666.04h-70.239l-.406-79.781s42.369-56.047.133-144.762c-17.495-36.751-39.48-96.493 25.492-169.689zM523.896 407.523h39.702l42.409 106.604v100.571l-41.055 50.285h-55.493v-45.256s15.339-8.047 14.438-22.126c-.903-14.08-.001-190.078-.001-190.078zM864.33 268.367c-70.432 0-127.528-58.286-127.528-130.186 0-71.897 57.096-130.185 127.528-130.185v32.446s-71.146 23.885-58.494 64.921c12.652 41.032 58.494 128.182 58.494 128.182v34.822zM883.354 423.661l36.32-18.915 14.785 30.866v232.147l-17.021-13.617-17.021-190.641zM138.026 464.574h65.692v201.71h-65.692v-26.625s-30.017-1.599-32.627-26.819c-2.609-25.219 32.627-148.266 32.627-148.266zM7.584 274.123v89.867S95.459 245.997 80.49 128.093C74.98 84.695 51.828 8.401 51.828 8.401H10.515s51.952 135.096-2.931 265.722zM522.147 8.312h32.113l20.874 35.326V208.03s-2.438 45.729 35.325 83.492c41.142 41.143 24.085 85.877 24.085 85.877H522.147V8.312z"/></g></svg>