<svg width="1275" height="675" viewBox="0 0 1275 675" xmlns="http://www.w3.org/2000/svg"><title>Layer_4</title><g stroke-width="2" stroke="#231F20" fill="#fff" fill-rule="evenodd"><path d="M72.033 8.37h423.429v38.344S321.297 32.77 239.719 94.351c-81.576 61.581-122.365 21.956-131.43 12.14L72.033 8.37zM728.455 71.027c13.388-16.063 11.236-40.428-4.639-53.973-15.876-13.54-45.912-11.701-55.632 8.726 0 0-64.167 200.729-51.635 219.261h20.247l59.772 166.789 47.24-12.681s-72.489-272.59-45.312-298.463c27.177-25.867 29.959-29.659 29.959-29.659zM7.312 443.029c0-52.864 20.929-84.968 50.34-84.968v84.968H7.312zM1066.568 386.068h-24.67l-32.185-132.597 29.102-132.595h27.753l23.127 132.595c0 .001-41.63 61.673-23.127 132.597zM378.982 665.133s-.808-100.35 2.153-107.965c2.962-7.616 8.463-13.54 2.962-24.118-5.501-10.58-7.923-16.078-7.923-16.078v-15.235l.182-2.052s2.424-5.5 7.924-16.081c5.501-10.576 0-16.5-2.962-24.118-2.962-7.617-1.764-45.698-1.764-45.698-8.032-3.384-16.626 0-16.626 0s1.197 38.081-1.765 45.698c-2.962 7.618-8.463 13.542-2.962 24.118 5.501 10.581 7.924 16.081 7.924 16.081l.182 2.052v15.235s-2.422 5.498-7.924 16.078c-5.5 10.578 0 16.502 2.962 24.118 2.962 7.615 2.154 107.965 2.154 107.965s6.879 3.927 15.483 0zM730.456 430.765h26.703l-4.451 236.994h-14.464zM1268.47 88.762s-20.186 44.439-19.054 44.439h-57.757v-91.33h12.62V9.268h23.591l40.6 79.494z"/></g></svg>