<svg width="1016" height="663" viewBox="0 0 1016 663" xmlns="http://www.w3.org/2000/svg"><title>Group 2</title><g stroke="#231F20" stroke-width="2" fill="#fff" fill-rule="evenodd"><path d="M893.011 413.576h73.272s-4.347 36.73 33.771 63.347c31.945 22.309 0 75.743 0 75.743V659.01H893.011s-53.283-158.454 0-245.434zM424.688 1.314h32.113l20.874 35.326v164.393s-2.438 45.729 35.325 83.492c41.142 41.143 24.085 85.877 24.085 85.877H424.688V1.314zM785.895 416.664l36.319-18.915L837 428.615v232.147l-17.021-13.617-17.022-190.641zM632.996 423.768h26.703l-4.45 236.994h-14.465zM795.025 612.281V659H688.133v-18.915zM279.521 658.136s-.808-100.35 2.153-107.965c2.962-7.616 8.463-13.54 2.962-24.118-5.501-10.58-7.923-16.078-7.923-16.078V494.74l.182-2.052s2.424-5.5 7.924-16.081c5.501-10.576 0-16.5-2.962-24.118-2.962-7.617-1.764-45.698-1.764-45.698-8.032-3.384-16.626 0-16.626 0s1.197 38.081-1.765 45.698c-2.962 7.618-8.463 13.542-2.962 24.118 5.501 10.581 7.924 16.081 7.924 16.081l.182 2.052v15.235s-2.422 5.498-7.924 16.078c-5.5 10.578 0 16.502 2.962 24.118 2.962 7.615 2.154 107.965 2.154 107.965s6.879 3.926 15.483 0zM34.561 458.577h65.692v201.71H34.561v-26.625s-30.017-1.599-32.627-26.819c-2.61-25.219 32.627-148.266 32.627-148.266z"/></g></svg>