<svg width="1275" height="675" viewBox="0 0 1275 675" xmlns="http://www.w3.org/2000/svg"><title>Layer_4 Copy</title><g stroke-width="2" stroke="#231F20" fill="#fff" fill-rule="evenodd"><path d="M839.039 88.869l35.073-25.19s144.176 150.72 101.559 290.991c-2.341 7.706-15.32 26.92-15.32 26.92h-36.072s17.485-122.17-85.24-292.721zM681.296 666.04V450.617c0-31.747-15.555-57.481-34.745-57.481l-29.104 51.291 45.557 221.613h18.292zM370.034 233.21V83.409c-77.217 0-139.813 67.067-139.813 149.801 0 82.73 62.597 149.8 139.813 149.8v-26.394s-56.202-66.892 0-123.406zM978.203 420.573h77.276s1.889 31.465 33.771 63.347c27.552 27.552 0 75.743 0 75.743v106.344H978.203s-53.283-158.454 0-245.434zM881.477 619.278v46.719H774.584v-18.915zM7.312 666.878H34.47l17.654-27.745v-15.587s-1.788-61.861 30.148-91.521c34.794-32.314 20.369-67.45 20.369-67.45H7.585l-.273 202.303zM1194.334 235.994c15.49-.991 24.344 14.086 24.344 14.086h49.791v-61.055l-55.324-36.031h-110.65l14.27 83h77.569z"/></g></svg>