<svg width="1133" height="663" viewBox="0 0 1133 663" xmlns="http://www.w3.org/2000/svg"><title>Group 4</title><g stroke="#231F20" stroke-width="2" fill="#fff" fill-rule="evenodd"><path d="M157.511 348h24.544l72.563 128.842v121.935l-48.553 62.695-15.74-16.814s46.152-93.757-32.814-147.331V348zM780.044 72.407l25.608-15.726s156.392 162.774 101.559 290.991l-15.32 28.34-36.072-1.42c0 .001 26.95-131.634-75.775-302.185zM38.091 196.295c-10.364-17.802-4.586-40.784 12.904-51.331 17.491-10.548 39.119-4.055 50.436 13.135l27.821 42.26v235.674H3.38v-85.809l52.807-114.517-18.096-39.412zM455.437 400.526h39.702l42.409 106.604v100.571l-41.055 50.285H441V612.73s15.339-8.047 14.438-22.126c-.904-14.08-.001-190.078-.001-190.078zM1131.605 2.309H892.882v88.566s6.104 24.54 37.426 12.508c29.896-11.484 64.458-55.592 91.944-36.442 27.484 19.149 84.792 51.914 109.353 43.311V2.309zM1.571 1.373H425v38.344S250.835 25.773 169.257 87.354c-81.576 61.581-122.365 21.956-131.43 12.14L1.571 1.373zM1075.972 219.774H1131v439.269h-74.241l-.406-79.781s63.856-76.344 20.149-144.762c0 0-84.627-131.584-.53-214.726z"/></g></svg>