<svg width="374" height="609" viewBox="0 0 374 609" xmlns="http://www.w3.org/2000/svg"><title>Layer_4</title><g stroke="#231F20" stroke-width="1.5" fill="none" fill-rule="evenodd"><path d="M141.412 252.253l31.859-56.188s28.414 13.241 28.414 77.182c0 19.215-11.049 46.692-11.049 46.692h-32.738c-.002 0 7.017-50.203-16.486-67.686zM298.236 425.638h32.343l34.549 86.847v51.907l-33.446 40.966h-45.208V568.49s12.496-6.555 11.762-18.025c-.735-11.472 0-124.827 0-124.827zM271.883 521.918V365.141c0-23.104-11.32-41.832-25.286-41.832l-21.181 37.327 33.154 161.282h13.313zM341.18 150.208h26.703l-4.451 287.033h-14.464zM94.773 496.407h45.261v108.95H94.773v-18.344s-20.681-1.101-22.479-18.479c-1.798-17.374 22.479-72.127 22.479-72.127zM4.713 481.153c0-36.422 14.42-78.556 34.683-78.556v78.556H4.713z"/></g></svg>