<svg width="374" height="609" viewBox="0 0 374 609" xmlns="http://www.w3.org/2000/svg"><title>Layer_4</title><g stroke="#231F20" stroke-width="1.5" fill="none" fill-rule="evenodd"><path d="M367.883 131.921c-37.667 0-68.202-21.164-68.202-59.615 0-38.452 30.535-69.624 68.202-69.624v17.353s-33.812 23.772-27.045 45.719c6.767 21.944 27.045 47.545 27.045 47.545v18.622zM215.076 48.595h30.063v191.65l-23.188 95.011-8.063-7.058s14.808-40.123-1.955-131.419l-16.238-83.54 19.381-64.644zM77.226 315.979c-7.141-12.264-3.16-28.1 8.89-35.366 12.052-7.266 26.952-2.793 34.75 9.051l19.169 29.115v162.375H53.31v-59.12l36.383-78.899-12.467-27.156zM210.79 595.343c-11.013-.704-17.307 10.015-17.307 10.015h-35.399v-43.406l39.333-15.608h78.667l-10.146 49H210.79v-.001zM172.269 104.482l-19.228-34.131H95.284l.356 81.321 12.62-.049.323 82.642 23.591-.092zM241.77 529.429h-39.712V428.54h18.915z"/></g></svg>