<svg xmlns="http://www.w3.org/2000/svg" width="369.058" height="124.172" viewBox="0 0 369.058 124.172"><path fill-rule="evenodd" clip-rule="evenodd" fill="#fff" d="M282.203 59.48c.176.25.334.516.535.743.225.252.493.452.47.853-.008.138.104.374.214.41.705.24 1.024.827 1.352 1.42-.238.8-.236.796-1.023.693-.356-.048-.718-.072-.924-.236-.313-.23-.628-.462-.995-.734.427-.822.045-1.423-.673-1.905-.093-.062-.156-.17-.25-.227-.478-.284-.605-.906-1.258-1.09-.53-.15-.983-.6-1.564-.76-.568-.156-1.1-.47-1.672-.58-.845-.16-1.712-.2-2.57-.294-.223-.024-.444-.06-.666-.096-.784-.124-1.552-.128-2.343.058-1.194.283-2.41.474-3.618.703-.082.014-.178.003-.245.042-1.08.633-2.337.76-3.476 1.22-.39.156-.75.39-1.13.572-.353.17-.706.422-1.077.46-.51.055-.906.153-1.19.625-.08.134-.403.187-.606.168-.465-.042-.774.202-1.147.418-.967.558-1.98 1.038-2.987 1.522-.154.074-.377.01-.622.01-.095.52-.414.772-.978.777-.298.002-.6.147-.892.247-.36.123-.8.152-.875.66-.004.024-.025.056-.047.066-.876.434-.933 1.34-1.23 2.112-.29.752-.614 1.49-.92 2.237-.052.13-.103.27-.103.407-.008 1.535-.498 2.958-.974 4.39-.716 2.153-1.41 4.31-2.113 6.467-.11.345-.345.647-.485.98-.644 1.54-1.587 2.895-2.573 4.224-.034.045-.05.11-.094.14-1.244.837-2.006 2.284-3.523 2.782-.2.066-.37.238-.54.373-.11.085-.185.237-.304.284-1.164.46-2.265 1.09-3.527 1.283-.46.072-.95.105-1.298.523-.11.133-.34.195-.527.227-.826.137-1.657.246-2.484.38-.133.02-.25.118-.38.167-.156.06-.317.152-.476.154-.996.008-2 .057-2.986-.04-.4-.042-.823-.362-1.136-.66-.755-.722-1.542-1.364-1.384-2.68.195-1.618.77-3.017 1.66-4.334.52-.764.96-1.582 1.51-2.32a95.276 95.276 0 0 1 3.17-4.046c.497-.6 1.192-1.035 1.677-1.643.516-.65 1.237-1.107 1.65-1.843a.824.824 0 0 1 .226-.245c1.26-.936 2.388-2.02 3.517-3.1.04-.04.08-.102.128-.11 1.126-.18 1.765-1.167 2.726-1.654.938-.474 1.818-1.09 2.758-1.593.46-.244.855-.603 1.303-.874.285-.173.604-.375.92-.395.64-.04 1.116-.36 1.587-.718.513-.394 1.052-.71 1.694-.862.564-.134 1.006-.892 1.02-1.47.006-.434-.097-.935.38-1.245.062-.04.132-.15.12-.21-.19-.834.398-1.498.49-2.268.016-.136.002-.275.002-.523-.412.124-.787.195-1.125.348-.45.204-.867.15-1.306-.004-.395-.138-.8-.243-1.197-.372-.182-.06-.458-.097-.517-.224-.284-.62-1.06-.786-1.28-1.446-.018-.05-.053-.112-.097-.135-.94-.5-.66-1.38-.633-2.15.016-.438.194-.87-.054-1.326-.503.134-.886.39-1.308.66-.628.4-.94 1.177-1.716 1.357a.278.278 0 0 0-.134.102c-.65.838-1.665 1.05-2.524 1.54-.647.368-1.273.692-2.035.79-.636-.347-.738-.978-.76-1.792-.305.177-.55.25-.693.415-.783.887-1.822 1.434-2.765 2.105-.256.183-.636.262-.96.265-1.365.01-2.744.072-4.095-.087-.6-.07-1.152-.605-1.707-.96-.18-.115-.3-.328-.428-.476-.09-.015-.157-.05-.197-.03-1.673.778-3.518.805-5.275 1.212-.26.06-.554-.023-.83-.04-.33-.022-.66-.045-.99-.062-.22-.01-.448.025-.657-.026-.535-.133-1.086-.25-1.588-.47-.796-.352-1.04-1.143-1.333-1.88-.088-.218-.193-.43-.314-.702-.55.343-1.04.478-1.586.272-.103-.04-.267.05-.392.105-.256.118-.503.362-.754.36-1.236-.004-2.062.906-3.104 1.317-.258.102-.56.093-.816.19-1.365.518-2.8.466-4.218.518-.725.026-1.345-.268-1.798-.914-.29-.41-.712-.73-1.15-1.164.358-.817.73-1.63 1.072-2.455.225-.54.408-1.1.606-1.653.485-1.343.974-2.686 1.452-4.03.113-.317.245-.64.275-.968.057-.587.26-1.08.646-1.526.342-.398.6-.875.963-1.25.33-.34.706-.326.987-.09.28.24.282.554.057.99-.485.945-.93 1.904-1.185 2.946-.145.59-.405 1.147-.596 1.725-.206.625-.177 1.26-.056 1.946.895-.12 1.588-.568 2.27-1.05 1.095-.773 2.308-1.238 3.654-1.286.457-.016.778.257 1.048.616.737.983.762 2.077.532 3.215-.048.24-.12.476-.18.717.46.313.857.297 1.33.19 1.017-.225 1.793-.718 2.29-1.64.05-.094.16-.16.25-.226.628-.442 1.088-1.023 1.53-1.647.54-.764 1.363-1.027 2.285-.962.14.01.28.098.41.084.552-.06.98.126 1.11.672.137.556-.044 1.062-.504 1.435-.347.28-.665.644-1.062.81-.818.34-1.417.97-2.123 1.457-.338.234-.635.54-.917.843-.366.39-.312 1.02.168 1.217.88.358 1.78.706 2.708.874.545.1 1.155-.15 1.733-.26.922-.177 1.833-.416 2.762-.542.825-.11 1.29-.617 1.48-1.315.344-1.28 1.13-2.232 2.045-3.116.438-.423.792-.922 1.43-1.13 1.103-.36 1.54-.063 1.45 1.103-.014.213-.06.496-.203.614-.36.3-.43.702-.563 1.1-.083.252-.238.49-.402.702-.372.482-.807.9-.925 1.562-.046.254-.426.45-.702.72.098.498.59.547 1.004.624 1.468.272 2.89.146 4.196-.648.35-.213.744-.365.942-.794.08-.17.34-.27.53-.376.59-.318 1.144-.66 1.568-1.207.43-.55.896-1.068 1.597-1.328.262-.1.475-.377.664-.61.21-.26.353-.57.55-.843.435-.603.8-.716 1.246-.41.438.296.507 1.008.216 1.506-.448.77-.852 1.564-1.266 2.352-.034.065-.004.162-.004.238.562.29.805.303 1.11-.062.31-.373.595-.743 1.107-.85.094-.022.19-.127.247-.218.747-1.22 2.084-1.68 3.2-2.4.394-.254 1.026-.16 1.55-.16.123 0 .333.246.354.398.098.72.16 1.443.196 2.167.016.274-.05.56-.115.83-.165.696.12 1.2.684 1.655.416-.24.915-.364 1.146-.876.032-.07.115-.123.186-.167 1.148-.724 2.298-1.445 3.518-2.21.005-.078-.003-.245.026-.405.027-.157.048-.392.15-.444.515-.268 1.04-.632 1.592-.693.796-.09 1.674.302 1.813 1.57.064.59.034 1.083-.373 1.57-.238.285-.27.733-.456 1.075-.48.885-1.018 1.74-1.495 2.628a95.973 95.973 0 0 0-1.603 3.15c-.082.165-.09.384-.08.575.022.428.176.55.59.496.166-.02.34-.053.49-.123.83-.386 1.72-.59 2.5-1.162a4.493 4.493 0 0 1 1.972-.82c.642-.095 1.25-.405 2.03-.674.086-.246.39-.472.852-.614.902-.28 1.748-.76 2.66-.986 1.664-.41 3.19-1.27 4.875-1.54 1.125-.183 2.234-.478 3.416-.462.85.01 1.726-.096 2.586-.043 1.13.067 2.252.062 3.365.504.603.24 1.188.6 1.854.707.13.02.283.09.365.19.64.766 1.56.945 2.453 1.184l-.025-.02zm-32.55 7.54c-.456-.463-.878-.544-1.286-.16-.354.332-.735.49-1.186.566-.105.02-.24.064-.297.143-.348.477-.92.62-1.354.944-.656.488-1.38.695-2.12.928a1.355 1.355 0 0 0-.647.474c-.307.42-.674.674-1.193.668-.238-.003-.377.075-.562.252-.41.39-.94.65-1.076 1.277-.023.106-.2.194-.32.26-1.224.656-2.24 1.55-3.154 2.594-.452.518-1.104.84-1.486 1.455-.232.377-.533.717-.833 1.045-.527.57-1.094 1.105-1.61 1.686-.286.324-.437.81-.773 1.04-.528.362-.81.83-1.12 1.367-.733 1.277-1.56 2.504-2.402 3.716-.36.52-.622 1.05-.71 1.678-.097.69-.19 1.383-.356 2.055-.106.42-.065.67.222 1.042.28.363.57.562.946.543a24.99 24.99 0 0 0 2.646-.27c1.07-.17 2.12-.368 3.165-.767 1.132-.432 2.39-.48 3.372-1.363.503-.455 1.205-.68 1.775-1.07.577-.395 1.267-.56 1.73-1.23.456-.66 1.26-1.067 1.855-1.644.3-.29.705-.57.65-1.116a.738.738 0 0 1 .198-.54c.485-.476.46-1.288 1.116-1.647.088-.048.09-.253.13-.386.248-.83.475-1.67.746-2.492.463-1.412.94-2.82 1.44-4.22.166-.463.07-1.032.53-1.39.036-.028-.015-.157-.01-.238.018-.244-.03-.53.082-.72.2-.337.27-.663.246-1.043-.01-.156.083-.322.14-.478.184-.5.446-.984.54-1.498.11-.623.337-1.122.964-1.462zm-43.197-12.262c.677.272 1.33.575 2.01.79.335.107.73.105 1.08.054.394-.058.728-.264.843-.713.102-.402.244-.793.376-1.187.194-.582.237-1.14-.272-1.702-.725.36-1.443.71-2.155 1.074-.09.045-.192.168-.194.257-.015.545-.392.6-.804.66-.433.062-.807.225-.886.768zm-1.73 2.738a.257.257 0 0 1 .005.04c.327-.018.656-.014.977-.063.14-.02.35-.133.368-.232.026-.154-.034-.384-.146-.49-.406-.393-.888-.554-1.453-.34-.354.136-.727.293-.66.735.07.48.434.507.828.353.024-.01.054-.002.082-.002zm45.58.126c.682.045 1.49-.407 1.848-.992-.396-.025-1.096.205-1.632.576-.11.074-.14.26-.216.416zM54.54 61.57c.426.002.842-.003 1.042-.56.062-.175.324-.286.508-.404.23-.147.556-.213.404-.612-.016-.042.012-.15.032-.153.764-.136.706-1.046 1.386-1.387.766-.382 1.37-1.142 1.952-1.816.408-.47.9-.752 1.438-.983.222-.095.31-.21.446-.4.19-.26.562-.46.887-.527.412-.084.71-.266 1.005-.543.603-.568 1.324-.945 2.12-1.186.187-.057.403-.09.55-.205.666-.517 1.41-.402 2.165-.354.328.02.53.143.682.4.26.44.408.892.465 1.422.117 1.105-.232 2.027-.818 2.92-.257.394-.424.847-.663 1.335.147.046.3.15.382.11a36.12 36.12 0 0 0 1.84-.99 17.28 17.28 0 0 0 1.262-.823c.133-.093.25-.23.325-.375.427-.835.876-1.643 1.98-1.943-.508-.486-.418-.846.03-1.164a.63.63 0 0 0 .235-.337c.267-1.137 1.12-1.833 1.935-2.542.453-.394.84-.897 1.508-1.003.166-.026.306-.235.453-.367.79-.708.9-.75 2.054-.777.128.172.25.36.394.528.343.402.374.8.072 1.185-.033.042-.086.07-.127.11-1.136 1.068-2.043 2.337-3.08 3.493-.123.137-.28.242-.428.356-.15.117-.354.197-.457.347-.474.695-1.022 1.27-1.757 1.73-.457.288-.745.89-1.032 1.396-.173.308.29 1.235.63 1.457.234.152.462.312.69.468.637.432 1.34.32 2.032.234 1.062-.132 2.12-.3 3.367-.478.563-.51.9-.636 1.66-.51.082-.4.27-.72.605-1.01.55-.475.992-1.068 1.484-1.608.092-.1.194-.195.304-.28.295-.23.85.04.97-.615.056-.306.507-.542.776-.81.04-.04.068-.124.105-.126.833-.033 1.19-.906 1.94-1.097.234-.06.48-.2.653-.372.53-.53 1.154-.652 1.906-.52.102.28.21.585.32.89-.75 1.064-1.486 2.126-2.25 3.166-.158.216-.417.377-.657.51-.956.52-1.933 1.003-2.88 1.537a5.31 5.31 0 0 0-1.06.812c-.108.103-.067.36-.1.576.83.27 1.575.7 2.452.417.867.382 1.742.11 2.617.05.164-.01.34.032.497.088.42.154.828.34 1.3.18.092-.032.236.09.39.16-.27.355-.478.682-.74.957-.116.12-.365.223-.514.183-.415-.11-.758-.01-1.14.138-.273.106-.615.1-.917.06-.435-.056-.837-.094-1.19.232-.055.052-.182.104-.228.076-.56-.337-1.09.056-1.625.037-.463-.015-.93-.21-1.375-.38-1.154-.436-1.204-.498-1.81-1.71-.26.106-.524.228-.8.32-.418.142-.84.275-1.268.39-.568.15-1.14.287-1.714.42-.404.092-.802.273-1.235.094a.45.45 0 0 0-.33.02c-.834.427-1.56.046-2.31-.26a3.627 3.627 0 0 0-.977-.226c-.363-.04-.536-.198-.623-.56-.06-.247-.253-.468-.407-.687-.17-.245-.36-.475-.6-.79-.404.018-.908-.005-1.185.555-.037.072-.098.155-.166.184-.616.252-1.248.47-1.853.744-.722.33-1.588.324-2.172.988-.172.197-.51.238-.735.4-.312.227-.57.526-.882.75-1.15.824-1.848 2.188-3.25 2.715-.194.073-.332.29-.525.38-.567.255-1.035.703-1.766.65-.42-.032-.864.316-1.305.47-.225.08-.48.076-.7.164-.728.29-1.362-.19-2.05-.23-.098-.005-.2-.087-.284-.154-.495-.404-1.338-.307-1.555.262-.17.45-.464.752-.76 1.088-.202.23-.42.508-.467.792-.12.7-.584 1.188-.913 1.764-.416.728-.747 1.503-1.114 2.26-.427.878-.865 1.753-1.274 2.64-.15.328-.195.705-.353 1.027-.603 1.233-1.304 2.424-1.825 3.688-.456 1.107-1.326 2.007-1.527 3.24-.06.368-.305.726-.524 1.048-.796 1.168-1.188 2.51-1.693 3.805-.15.39-.38.752-.576 1.125-.207.396-.398.8-.627 1.184-.715 1.19-.93 2.562-1.44 3.826-.04.105-.074.215-.126.314-.25.47-.882.742-1.27.557-.608-.292-.775-.798-.56-1.415.262-.758.456-1.54.683-2.31.057-.188.086-.403.197-.554.623-.84 1.002-1.774 1.374-2.75.548-1.446 1.305-2.812 2.006-4.194.48-.945 1.042-1.85 1.522-2.794.208-.41.233-.917.462-1.31.533-.915.845-1.945 1.376-2.83.63-1.047 1.115-2.16 1.722-3.215a6.7 6.7 0 0 0 .884-2.646c.006-.054.015-.14.048-.156.734-.347.576-1.242 1.067-1.742.1-.1.103-.293.148-.444.03-.104.053-.21.088-.314.252-.748.76-1.41.65-2.283-.03-.243.294-.52.424-.795.233-.498.44-1.008.663-1.512.11-.25.19-.526.353-.737.392-.504.473-1.054.41-1.694-.634-.114-1.042.243-1.43.572-.795.67-1.688.82-2.67.603-.394-.087-.694-.488-1.175-.33-.067.022-.27-.192-.323-.33-.24-.643-.357-1.268-.015-1.95.315-.626.54-1.29.995-1.85.31-.383.62-.423 1.042-.164-.42.91-.947 1.787-.72 2.848l1.853.256c.352-.384.767-.865 1.214-1.312.17-.17.404-.32.634-.38.297-.08.546-.256.8-.354.774-.297 1.02-1.266 1.907-1.39.142-.02.255-.28.37-.437.355-.473.706-.946 1.052-1.425.078-.11.14-.235.187-.362.04-.104.01-.278.078-.32.768-.496.887-1.448 1.47-2.07.076-.082.164-.17.195-.272.43-1.376 1.414-2.4 2.268-3.497.312-.402.817-.662 1.26-.946.1-.064.418-.004.446.07.143.384.3.79.307 1.19.006.318-.11.727-.325.943-.725.73-.937 1.75-1.54 2.545-.535.707-.954 1.5-1.48 2.215-.427.576-.915 1.11-1.415 1.626-.987 1.015-1.524 2.326-2.312 3.472-.224.33-.272.78-.41 1.197zm13.18-7.766c-.752.02-1.45.085-2.09.42-.966.51-1.948.998-2.884 1.562-.76.458-1.556.888-2.14 1.592-.16.192-.284.436-.484.568-1.172.783-1.907 1.96-2.777 3.015-.21.254-.328.525-.07.967.36.02.8.1 1.225.054a42.893 42.893 0 0 0 3.236-.454c1.314-.244 2.564-.71 3.315-1.892.332-.523.68-1.01 1.1-1.448.324-.338.69-.628.738-1.152.014-.146.156-.31.28-.412.408-.33.54-.756.573-1.26.02-.265.163-.52.263-.82l-.284-.738zM61.36 63.4c-.662-.178-1.914-.144-2.313-.028-.637.183-1.277.413-1.945.074-.195-.1-.427-.137-.646-.178-.63-.117-1.025.117-1.41.746-.476.777-.38.826.144 1.342.352.026.688.094 1.015.067.957-.077 1.975.122 2.808-.58.08-.065.22-.055.317-.108.68-.377 1.42-.663 2.03-1.336zm15.79-11.477l-.14-.143c-.33.186-.73.306-.65.887.265-.248.528-.495.79-.744zm66.77-29.5c.795-.12 1.416-.404 1.934-.87.52-.466 1.04-.82 1.74-1.063.61-.21 1.185-.418 1.827-.438.743-.022.96.13 1.068.855.102.69.19 1.387.22 2.083.03.72.277 1.188.985 1.495.78.338 1.507.48 2.357.294.83-.184 1.703-.166 2.55-.28.385-.054.79-.15 1.125-.338 1.1-.614 2.202-1.234 3.238-1.946.436-.3.762-.805 1.042-1.274.25-.42.173-.878-.303-1.146.79-.97 1.87-.904 2.328.098.104.226.025.542.002.814-.013.134-.106.258-.136.393-.15.732-1.08 1-1.08 1.818-.595.418-1.178.855-1.79 1.25-.43.278-.74.774-1.35.774-.076 0-.134.234-.235.32-.13.115-.297.19-.45.283-.132.08-.296.134-.395.245-.393.44-.848.463-1.384.322a2.33 2.33 0 0 0-.98-.04c-.256.046-.48.34-.73.36-1.25.09-2.505.127-3.76.173a.738.738 0 0 1-.4-.102c-.738-.47-1.545-.858-2.118-1.542-.185-.22-.298-.535-.348-.824-.074-.41-.015-.844-.102-1.25-.053-.237-.238-.52-.445-.627-.16-.085-.47.025-.67.13-.42.218-.813.483-1.21.743-.16.106-.302.245-.446.375-.143.13-.255.33-.42.396-1.112.437-2.067 1.125-3.025 1.81-.31.223-.6.107-.87-.046-.466-.264-.73-.89-.646-1.44.026-.186.033-.375.064-.736-.874.752-2.003.604-2.748 1.362-.15.15-.478.128-.725.183-.518.115-1.033.256-1.558.33-.23.03-.514-.02-.71-.14-.82-.506-1.145-1.297-.934-2.246.057-.254.164-.488-.084-.69-.205-.165-.967-.24-1.116-.05-.417.528-1.047.58-1.6.653-.602.078-.995.362-1.334.784a4.04 4.04 0 0 1-2.054 1.383c-.79.24-1.547.595-2.322.89a36.18 36.18 0 0 1-1.316.467c-.42.142-.844.27-1.255.403-.98-1.443-.98-1.443-.82-2.53-.737-.19-1.127.235-1.347.66-.518.19-.895.347-1.284.46-.225.066-.47.08-.707.083-.22.004-.517-.137-.645-.04-.596.46-1.28.303-1.932.352-.3.022-.656.025-.903-.113-.646-.36-1.41-.563-1.837-1.263-.08-.13-.344-.26-.484-.226-.564.133-1.117.324-1.67.506-.18.06-.353.24-.52.225-1-.096-1.837.347-2.704.736-.264.12-.623.163-.898.09-.823-.22-1.547.234-2.326.274-.094.004-.203.1-.27.182-.557.658-1.305.82-2.113.828-.057 0-.13-.034-.167-.01-.94.607-1.717.05-2.516-.346-.024-.013-.047-.03-.12-.08 0-.1.036-.248-.006-.368-.33-.954-.218-1.118.673-1.743.883-.62 1.904-.894 3.02-.703.44.075.9.028 1.348.01.13-.004.316-.062.37-.157.265-.46.79-.75.83-1.365.02-.358.153-.713.256-1.063.148-.505.082-.98-.328-1.3-.4-.313-.754-.602-1.43-.342-1.365.527-2.51 1.32-3.604 2.257-.654.56-1.277 1.147-1.506 1.97-.173.62-.483 1.13-.817 1.646-.363.565-1.334.732-1.882.348-.252-.177-.39-.94-.19-1.33.338-.662.712-1.308 1.067-1.962.59-1.083 1.183-2.164 1.767-3.25.65-1.21 1.33-2.408 1.93-3.644.435-.902.967-1.76 1.224-2.753a10.6 10.6 0 0 1 .816-2.11c.208-.404.607-.71.96-1.108.223-.013.506-.07.78-.035.603.074.85.56.595 1.11-.022.05-.06.095-.096.138-.892 1.038-1.046 2.392-1.557 3.593-.432 1.013-.987 1.976-1.528 2.937-.17.304-.362.558-.22.95.602.152 1.11-.06 1.602-.346.42-.247.805-.458 1.33-.186.275.14.687.15.99.064.648-.184 1.132.15 1.493.518.305.31.422.83.546 1.278.11.39.062.823.172 1.213.215.76-.198 1.346-.496 1.95-.323.66-.358.642.202 1.36.273-.124.564-.28.872-.386.39-.133.803-.206 1.19-.342.462-.163.913-.356 1.362-.552.53-.232 1.054-.483 1.58-.722.077-.035.196-.02.24-.074.644-.803 1.51-1.466 1.873-2.45.51-1.372 1.39-2.22 2.85-2.443.082-.012.177-.01.245-.05 1.14-.69 2.285-.21 3.43-.03a3.726 3.726 0 0 1 2.084 1.022c.687.664.677 1.503.55 2.322-.096.6-.388 1.168-.607 1.8.203.126.406.25.648.398-.168.6-.33 1.18-.494 1.76.733.5.77.47 1.478.052a16.582 16.582 0 0 1 2.005-1.023c.89-.378 1.144-.8.926-1.76-.248-1.094.144-1.846 1.184-2.294.308-.132.617-.27.9-.447 1.084-.68 1.91-.384 2.26.827.04.134.055.275.078.407.38.305.788.133 1.14.02.798-.26 1.55-.665 2.357-.874.637-.166 1.017-.775 1.73-.808.386-.018.646-.033.83.336.182.366.24.75-.146.977-.807.477-1.092 1.4-1.778 1.985-.26.22-.315.68-.48 1.073.928.232 1.635-.015 2.32-.462.768-.5 1.59-.925 2.334-1.46.398-.285.698-.72 1.016-1.11.41-.502.84-.616 1.476-.347.31.13.488.57.407 1.106-.085.545-.204 1.09-.335 1.783zm-25.058-2.78c-.174.438-.293.776-.44 1.1-.065.144-.17.283-.29.385-.65.56-1.322 1.098-1.973 1.66-.273.237-.25.666.066.753.627.173 1.248.58 1.94.197a.852.852 0 0 1 .4-.093c1.685.02 2.733-1.025 3.703-2.202.12-.148.255-.312.306-.49.09-.31.218-.66.15-.953-.17-.742-1.444-1.543-2.183-1.376-.32.073-.575.045-.884-.024-.455-.104-.974-.183-1.198.464.137.195.275.397.4.578zm21.542 36.774c-.885-.245-1.383.42-1.89.862-.497.432-.9 1.052-.797 1.84.37.378.784.724 1.38.616.293-.053.572-.188.853-.296.654-.25 1.307-.507 2.03-.79.018-.127.026-.32.078-.5.123-.428.305-.796.615-1.163.63-.745 1.42-1.244 2.202-1.77.155-.106.347-.165.528-.23.333-.117.675-.21 1.006-.338.35-.136.67-.09.952.133.385.303.666 1.365.473 1.8-.063.138-.213.243-.333.353-.43.39-.45.437-.445 1.23.17.048.348.124.532.152.596.09 1.2-.193 1.802.037.097.037.288-.052.377-.14.26-.264.593-.248.907-.345.417-.128.767-.474 1.148-.723.113-.075.236-.203.35-.197.147.007.29.125.432.195-.243.436.216.787.146 1.185-.034.194-.198.385-.348.534-.246.245-.527.456-.778.666-.68.21-1.37.426-2.062.64-.108.033-.233.11-.322.08-.71-.232-1.433.13-2.164-.094-.316-.097-.737.147-1.26.273-.21-.053-.588-.158-.968-.24a2.784 2.784 0 0 0-1.722.17c-.836.35-1.717.587-2.636.632-.105.005-.242.04-.304.113-.288.33-.583.24-.915.083-.144-.068-.37-.125-.485-.06-.357.208-.686.015-1.02.023-1.06.026-1.513-.71-1.977-1.428-.13-.2-.068-.522-.102-.867-.29-.396-.684-.38-1.203-.176-.564.22-1.2.444-1.78.387-1.147-.11-1.987.496-2.892.97-.583.306-1.028.888-1.78.848-.067-.004-.17.062-.206.125-.318.552-.88.566-1.404.628-.665.08-1.336.167-2.004.16-.34-.002-.7-.16-1.008-.326a5.536 5.536 0 0 1-1.066-.75c-.146-.132-.185-.39-.267-.592-.09-.23-.176-.46-.287-.75-.277.16-.54.237-.69.412-.836.99-2.018 1.164-3.182 1.32-.312.042-.71-.148-.986-.35-.284-.206-.464-.555-.59-.717-.748.268-1.34.38-1.817.674-.782.48-1.608.976-2.2 1.652-.725.825-1.56.76-2.455.707-.1-.007-.237-.083-.28-.166-.22-.422-.43-.853-.616-1.29-.198-.466-.18-.923.12-1.417-.138.038-.286.052-.41.116-.215.113-.42.25-.622.386-.884.593-1.976.712-2.88 1.318a1.919 1.919 0 0 1-1.993.072c-.406-.23-.693-.54-.54-1.103.073-.273-.02-.59-.038-.922-.512.298-.95.572-1.405.812-.44.233-.9.427-1.347.646-.34.166-.803.122-.988.564-.02.045-.08.098-.127.104-.654.086-1.308.186-1.964.225-.134.008-.306-.197-.42-.338-.158-.2-.28-.43-.52-.803-.024-.528.19-1.09.732-1.667.95-1.01 1.673-2.234 2.613-3.257.652-.71 1.32-1.45 2.25-1.873.584-.266 1.083-.717 1.67-.975.58-.256 1.217-.406 1.84-.545.784-.175 1.01.362 1.04.883.017.322.033.654-.282.99-.48.514-.284 1.204-.005 1.788.233.485.3.928.058 1.427-.193.404-.352.83-.48 1.258-.047.16-.02.422.082.52.103.1.376.122.52.056.664-.302 1.31-.643 1.956-.977.147-.076.284-.172.415-.274.523-.412 1.01-.884 1.573-1.23.63-.384 1.258-.727 1.58-1.44.062-.137.253-.21.378-.32.157-.137.303-.287.462-.42.234-.19.45-.434.722-.544.332-.134.726-.22 1.024.11.303.33.276.702.11 1.1-.372.886-.593 1.793-.29 2.792.54.208 1.018.074 1.47-.255.27-.196.546-.382.824-.567.667-.444 1.384-.81 1.816-1.554.375-.645 1.246-.608 1.656-.004.205.304.2.54-.042.83-.332.4-.662.824-.562 1.438.878.127 1.507-.295 2.094-.815.38-.334.722-.716 1.283-.743.092-.004.2-.104.263-.19.337-.48.674-.962.988-1.458.383-.606.666-.72 1.146-.416.397.252.658 1.084.355 1.407-.61.652-.663 1.534-1.05 2.272-.162.308.06.794.416 1.007.164.098.37.2.55.19.864-.047 1.747-.023 2.53-.485.545-.32 1.107-.616 1.62-.982.353-.253.7-.563.673-1.087-.015-.252.02-.506.013-.76-.032-1.205.438-2.1 1.574-2.602.23-.102.45-.24.647-.396.434-.343.915-.382 1.435-.31.963.132 1.368.853.968 1.748-.158.352-.312.706-.486 1.05-.157.306-.21.657.068.844.22.148.6.2.855.122.42-.13.79-.418 1.193-.61.936-.446 1.863-.915 2.827-1.29.367-.142.827-.085 1.242-.058.367.024.563.226.414.638-.08.232-.117.482-.186.765zm-41.572 3.308c.568.137 1.01.1 1.376-.162 1.04-.743 2.056-1.518 3.08-2.284.06-.05.1-.132.177-.236-.57-.937.215-1.605.517-2.414-2.26 1.102-3.75 2.954-5.15 5.095zm12.298-1.363c-.545.62-1.024 1.165-1.514 1.72.07 0 .15-.01.227.002 1.167.17 1.197.147 1.334-.988.017-.135.106-.268.1-.398-.008-.12-.1-.236-.147-.336zm34.275-1.338c-.254-.34-.426-.29-.602.098l.602-.098zm-1.077.288c-.06.078-.138.135-.138.193 0 .052.086.104.134.156l.194-.195-.19-.153zM303.46 108.55c.902.378 1.056 1.144.664 1.937-.47.95-1.05 1.844-1.58 2.764-.162.286-.31.58-.47.88.547.377 1.15.418 1.587.19.717-.374 1.59-.353 2.217-.958.182-.174.61-.06.893-.164.832-.305 1.726-.47 2.396-1.15.36-.365 1.098-.016 1.117.537.01.336-.117.707-.28 1.012-.14.26-.398.473-.642.66-.928.71-1.052 1.875-.247 2.742.645.696 1.277 1.415 1.992 2.034.892.775 1.932 1.318 3.072 1.674.76.238 1.482.59 2.24.836.36.12.763.127 1.15.154.335.023.676-.012 1.013.012 1.08.078 1.398.443 1.33 1.486-.04.64-.585 1.08-1.215.955-.797-.157-1.602-.298-2.38-.526-.556-.166-1.073-.467-1.608-.7-.182-.08-.37-.194-.556-.198-1.38-.03-2.41-.842-3.474-1.562-.734-.5-1.51-.982-2.126-1.61-.763-.774-1.428-1.66-2.036-2.565-.223-.333-.163-.856-.24-1.34-.654-.128-1.177 0-1.796.35-.968.546-1.996 1.105-3.242.763-.513-.14-1.098.055-1.65-.133-.125-.04-.41.188-.527.36-.495.733-1.23 1.138-1.978 1.54-.294.158-.547.39-.832.564-.186.115-.39.238-.596.266-.62.076-1.125.37-1.54.8-.273.288-.567.44-.953.472-.22.02-.454.057-.65.154-.94.473-1.405.426-2.14-.258-.02-.02-.034-.053-.058-.06-.826-.27-1.125-.92-1.32-1.7-.123-.486-.344-.555-.83-.42-.41.113-.81.227-1.012.676-.06.14-.23.244-.375.322-.635.344-1.264.7-1.92.994-.297.133-.653.166-.985.184-.7.035-1.377.096-2.055.348-.377.14-.918.102-1.282-.072-.353-.168-.657-.19-.955-.072-.544.215-1.057.135-1.564-.057-.47-.18-.946-.358-1.373-.616-.71-.428-1.053-1.13-1.293-1.9-.09-.283-.226-.596-.438-.783-.687-.604-.822-.58-1.384.136-.338.434-.698.795-1.26.934-.263.064-.51.232-.738.387-.737.498-1.514.715-2.383.402-.27-.097-.473-.034-.68.177-.138.14-.358.293-.537.285-.418-.018-.75.123-1.108.316-1.14.613-1.736.248-1.795-1.117-.266.032-.526.062-.866.1-.363-.638-.71-1.27-.482-2.077.15-.54.204-1.113.4-1.635.428-1.133.694-2.318 1.422-3.352.723-1.03 1.31-2.17 1.845-3.312.257-.55.737-.648 1.15-.88.12-.065.495.142.615.32.112.16.14.544.028.667-.346.382-.528.786-.528 1.294 0 .105-.05.223-.106.316-.404.672-.883 1.31-1.208 2.016-.39.854-.822 1.717-.84 2.693-.01.608.398.854.963.57.89-.444 1.81-.75 2.823-.722.165.006.33-.072.497-.086.718-.06 1.437-.166 2.15-.146.396.012.792.158.995.646.28.678.453.7 1.157.484.24-.074.497-.1.745-.152.137-.03.34-.025.395-.11.357-.56 1.1-.65 1.44-1.25.148-.263.514-.45.82-.56.918-.334 1.818-.7 2.696-1.137.82-.408 1.473-.29 1.927.254.124.15.233.454.162.595-.245.486-.494 1.02-.888 1.375-.612.55-1.342.97-2.022 1.44-.068.05-.137.11-.213.13a94.94 94.94 0 0 1-2.093.562c-.565.143-.748.566-.43 1.06.06.093.144.183.235.24.84.532 1.646 1.095 2.76.806.668-.174 1.388-.143 2.08-.227.39-.046.79-.093 1.152-.226.65-.234 1.28-.533 1.92-.805.05-.022.126-.03.15-.07.546-.89 1.668-.98 2.35-1.692.178-.184.498-.23.747-.34.393-.854.99-1.467 1.93-1.69.34-.08.597-.067.727.343.072.228.262.417.396.62-1.21.96-1.498 2.156-.865 3.52.16.346.453.447.77.328 1.146-.426 2.42-.553 3.36-1.46.18-.173.402-.337.634-.41.85-.263 1.354-.942 1.938-1.53.178-.18.382-.336.54-.53.207-.26.417-.528.558-.823.255-.53.333-1.2.71-1.602.726-.77 1.086-1.79 1.943-2.492.596-.487 1.134-1.026 1.84-1.4zm-15.91-49.047l-.08-1.268c.5-.637 1.067-.837 1.944-.48.604.248 1.295.278 1.858.702.15.112.435.07.655.056.448-.026.896-.07 1.342-.127.16-.02.316-.084.47-.14.39-.137.764-.332 1.163-.41.442-.084.707-.263.817-.715.15-.62.348-1.228.53-1.84.066-.213.155-.418.225-.63.103-.314.205-.63.293-.947.142-.508.21-1.048.423-1.524.283-.635.295-1.262.26-1.98-.177.06-.35.07-.368.13-.248.786-1.185.985-1.468 1.74a.615.615 0 0 1-.276.31c-1 .48-1.602 1.447-2.49 2.042-.643.43-1.386.702-2.07 1.037l-1.247-.743c.248-.613.506-1.27.785-1.916.024-.057.2-.05.41-.098l.32 1.57c.244-.15.48-.24.647-.4.93-.91 2.138-1.495 2.892-2.626.34-.51.956-.834 1.448-1.24.086-.073.196-.127.257-.216.24-.347.48-.694.69-1.06.187-.33.753-.314.724-.825.97-.833 1.362-2.035 1.93-3.116.267-.51.58-.805 1.13-.832.95.535.568 1.308.334 1.998-.27.795-.643 1.556-.967 2.333-.064.154-.142.312-.166.476-.156 1.077-.643 2.03-1.063 3.013-.214.505-.307 1.068-.427 1.61-.182.824-.34 1.65-.506 2.477.593.324.764.32 1.184-.034.172-.144.324-.373.52-.417.95-.217 1.642-.924 2.516-1.276a.515.515 0 0 0 .148-.08c.672-.582 1.35-1.157 2.01-1.75.537-.485 1.036-1.014 1.588-1.483.353-.3.745-.476 1.227-.142.198.138.527.163.782.13 1.407-.185 2.663.19 3.84.937.612.388.755 1.046.92 1.654.26.953-.177 1.847-1.05 2.396-.024.015-.062.017-.075.037-.71 1.178-2.135 1.167-3.135 1.867-.192.134-.48.188-.72.186-1.087-.013-2.18.006-3.255-.116-.75-.085-1.104-.805-1.534-1.35-.152-.19-.232-.437-.36-.684-.17.06-.324.073-.423.152-.51.418-1.044.756-1.736.79-.142.005-.308.14-.408.26-.48.57-1.136.828-1.812 1.016-.707.2-1.188.535-1.333 1.314-.145.796-.417 1.57-.56 2.365-.053.298.02.687.18.942.564.893 1.19 1.745 1.378 2.822.024.142.188.256.275.392.086.137.198.278.227.43.263 1.446.74 2.87.443 4.372-.006.026-.015.06-.004.082.497.97.126 1.957.058 2.938-.01.128.036.262.072.39.036.13.145.262.13.383-.202 1.63.023 3.31-.56 4.893-.067.184-.187.347-.264.526-.175.408-.343.818-.503 1.234-.07.182-.082.39-.17.562-.592 1.147-.78 2.485-1.7 3.484-.226.248-.267.658-.414.982-.504 1.104-1.365 1.994-1.866 3.107a2.062 2.062 0 0 1-.856.907c-.732.39-1.18 1.055-1.655 1.654-.544.685-1.29 1.05-1.934 1.573a3.368 3.368 0 0 1-.632.41c-.292.143-.6.27-.91.35-.345.086-.608-.05-.878-.314-.34-.333-.914-.472-.762-1.128-.814-.984-.12-1.973.028-2.94.098-.624.405-1.212.605-1.82.07-.214.175-.452.134-.655-.176-.885.245-1.61.553-2.374.094-.23.14-.482.19-.73.115-.545.135-1.122.66-1.502.11-.08.18-.306.168-.457-.073-.94.386-1.746.61-2.61.092-.35.145-.71.242-1.06.173-.617.327-1.242.556-1.84.407-1.064.688-2.17 1.192-3.206.388-.793.577-1.68.875-2.52.128-.362.302-.706.46-1.055.187-.417.424-.81.216-1.31-.054-.13.08-.412.214-.523.27-.23.26-.498.32-.808.175-.922.437-1.83.69-2.735.18-.64.42-1.265.603-1.906.124-.442-.337-.907-.895-1.215-.375-.207-.65-.363-.875-.782-.24-.453-.856-.51-1.367-.48a6.96 6.96 0 0 1-2.322-.233c-.432-.12-.857-.257-1.288-.388 0-.003.023.02.023.02zm0 32.23c.198-.1.396-.177.565-.296.133-.094.212-.33.342-.354.945-.174 1.488-.943 2.098-1.525.98-.936 1.975-1.898 2.645-3.12.103-.185.31-.31.418-.497.355-.606 1.03-1.018 1.117-1.79.06-.538.37-.862.844-.98.058-.26.09-.477.152-.682.14-.47.313-.93.44-1.402.244-.904.472-1.812 1.585-2.22-.6-.32-.524-.763-.36-1.203.297-.792.28-1.632.4-2.45.043-.302.216-.685.094-.893-.34-.58-.08-1.125-.072-1.686.004-.246-.052-.493-.085-.74-.064-.497-.272-1.026-.165-1.482.153-.65.038-1.215-.17-1.812l.397-.34c-.136-.414-.348-.776-.356-1.142-.023-.99-.704-2.614-1.47-3.278-.035-.03-.107-.02-.192-.03-.067.064-.157.13-.225.217-.878 1.113-1.105 2.486-1.492 3.79-.224.753-.21 1.61-.563 2.282-.58 1.104-.818 2.318-1.3 3.45-.304.718-.565 1.435-.97 2.116-.325.55-.432 1.236-.602 1.873-.104.397-.13.82-.222 1.224-.098.43-.24.85-.345 1.28-.11.46-.176.933-.314 1.384-.08.262-.318.476-.395.738-.41 1.396-.814 2.795-1.176 4.206-.324 1.27-.6 2.555-.878 3.836-.104.472-.136.948.254 1.524zm22.66-38.943c-.453-.053-.815-.083-1.17-.14-.605-.098-1.133-.092-1.62.42-.31.324-.815.644-1.23.642-.867-.005-1.11.483-1.298 1.152-.18.646.127 1.115.783 1.124.363.005.73-.04 1.095-.054.363-.013.784.106 1.078-.04.912-.45 1.916-.752 2.557-1.67.43-.614.497-.566.007-1.185l-.2-.25zm-34.07-28.445c-.02.29-.048.645-.08 1.102-.69.087-1.403.18-2.117.265a.281.281 0 0 1-.165-.026c-.652-.358-1.31-.712-1.95-1.087-.193-.113-.352-.283-.52-.433-.376-.334-.772-.398-1.237-.172-.245.12-.527.158-.804.236l-.09.495c-.142.035-.273.082-.41.098-.892.102-1.766.225-2.588.657-.345.18-.814.124-1.228.177-.25.033-.516.026-.744.116-.542.21-1.035.143-1.548-.102-.706-.335-1.42-.66-2.152-.933-.888-.33-1.283-1.044-1.504-1.87-.12-.456-.188-.967-.106-1.423.092-.518-.12-.853-.38-1.3-.574.52-1.395.588-1.716 1.348-.04.092-.154.202-.246.212-.964.117-1.386 1.012-2.118 1.46-.354.216-.704.447-1.035.7-.64.487-1.302.957-1.893 1.503-.792.736-1.165.805-2.182.16.055-1.126.246-2.252.853-3.334-.44-.11-.716-.18-.78.413-.068.602-.68.85-1.09 1.187-.516.425-1.128.734-1.71 1.073-.162.095-.395.08-.545.184-.213.146-.547.368-.537.542.028.534-.35.725-.613 1.006-1.66-.244-1.656-.246-1.69-1.865-.003-.164-.076-.327-.15-.614-.593.468-1.32.613-1.787 1.24-.19.253-.522.494-.824.547-.482.086-.793.378-1.158.637-.87.617-1.82.807-2.864.49-.374-.113-.57-.327-.62-.705-.11-.817-.12-1.564.374-2.34.69-1.082 1.577-1.937 2.518-2.77.16-.14.322-.316.396-.508.23-.602.643-1.044 1.138-1.428.71-.55 1.45-1.063 2.105-1.672.292-.273.533-.438.93-.426.247.007.54-.013.736-.14.66-.432 1.123-.002 1.602.323.267.18.427.455.232.798-.238.42-.33.99-.96 1.026-.116.006-.272-.085-.35-.18-.175-.21-.245-.542-.6-.523-.335.02-.72-.016-.988.138-.484.278-1.12.428-1.27 1.116-.02.098-.117.23-.205.256-.854.26-1.048 1.13-1.558 1.702-.494.552-.84 1.234-1.254 1.856-.076.115-.147.283-.256.318-.523.17-.488.623-.594 1.066.552.15 1.038.14 1.52-.19 1.006-.695 2.072-1.313 3.03-2.066.538-.422.93-1.04 1.352-1.597.472-.625 1.116-.936 1.844-1.076.688-.133.955.27.702.938-.267.702-.5 1.417-.798 2.274.952-.238 1.537-.768 2.05-1.305.348-.363.72-.624 1.15-.795.36-.14.566-.29.743-.684.27-.603.76-1.11 1.397-1.402.452-.208.916-.39 1.454-.617.12.72.55 1.343.223 2.108-.175.41-.247.866-.332 1.308-.025.143.008.387.1.442.138.082.407.117.522.034.465-.335 1.03-.47 1.427-.986.344-.45.995-.66 1.495-.996.222-.148.407-.35.61-.526.207-.182.407-.375.628-.54.2-.148.44-.247.638-.4.552-.43 1.727-.49 2.265-.092.088.064.18.154.216.252.32.852.855 1.648.597 2.644-.072.28-.025.62.052.907.086.33.39.53.712.466.195-.038.36-.283.518-.456.16-.178.286-.385.44-.568.09-.106.28-.178.297-.285.12-.823.93-.968 1.4-1.437.1-.1.31-.087.474-.128.168-1.05 1.042-1.43 1.794-1.882.42-.252.942-.358 1.432-.473 1.295-.303 2.166.48 1.954 1.815-.13.815-.416 1.604-.63 2.405.704.143 1.388-.138 1.393-.777.006-.752.54-1.276.583-1.983.02-.33-.004-.726.48-.887.15-.05.21-.433.27-.674.15-.598.41-1.057 1.01-1.36.326-.163.507-.6.773-.9.246-.277.52-.534.908-.93.107-.618.566-1.204 1.26-1.672.378-.254.632-.087.93.048.328.148.34.423.24.717-.363 1.105-.425 2.32-1.184 3.285-.1.126-.208.316-.187.458.11.733-.426 1.11-.82 1.56-.224.25-.366.5-.476.84-.12.375-.525.682-.853.962-.71.605-.825.948-.405 1.75.26.5.565.95 1.185 1.124.633.18 1.238.473 1.953.753zM263.938 23.1c.646.13 1.15-.093 1.583-.48.585-.52 1.16-1.05 1.708-1.61.222-.227.414-.517.517-.814.15-.43-.178-.78-.635-.73-.73.084-1.224.626-1.79 1.002-.348.232-.494.755-.833 1.016-.545.42-.682.913-.55 1.615zM9.85 26.52c2.372.5 4.856.31 6.918-1.028.98-.637 1.835-1.438 2.7-2.22.782-.71 1.895-1.323 2.563-2.12.768-.917 1.253-2.234 2.143-3.03.062-.057.05-.2.1-.426-.285.125-.487.19-.665.296-1.15.678-2.268 1.413-3.45 2.026-.444.23-1.03.24-1.552.25-.534.01-.943-.216-1.365-.65-1.1-1.14-1.258-2.413-.965-3.87.115-.574.2-1.11.813-1.363.052-.77.863-.76 1.26-1.192.377-.413.962-.636 1.457-.94.072-.045.173-.065.218-.126.476-.656 1.27-.877 1.875-1.363.58-.466 1.31-.748 1.982-1.097.74-.385 1.495-.747 2.232-1.137.196-.104.35-.286.534-.412.207-.14.42-.28.646-.383.428-.198.878-.35 1.3-.56.4-.195.783-.428 1.16-.666.995-.63 2.004-1.24 2.962-1.92.45-.32.865-.744 1.17-1.205.41-.622 1.068-.805 1.652-1.12.307-.164.762.183.85.6.045.21.05.43.084.73-.682.827-1.48 1.64-2.346 2.403-.58.51-.988 1.21-1.514 1.79-.63.692-.938 1.572-1.44 2.338a81.946 81.946 0 0 0-1.794 2.835c-.41.688-.713 1.443-1.156 2.108-.663.996-1.105 2.112-1.75 3.11-.606.94-1.31 1.822-1.987 2.716-.585.772-1.497 1.396-2.15 2.137-.75.854-1.49 1.726-2.452 2.352-2.256 1.472-4.403 3.488-7.207 3.76-1.8.174-4.15.053-5.356-1.486-.967-1.233-1.86-3.375-.963-4.857.718-1.19 2.052-1.264 2.35.197.18.874-.186 1.83.14 2.682.197.512.566.745 1.007.84zm15.065-9.85c.327-.463.684-.836.88-1.28.325-.728 1.172-1.153 1.156-2.08 0-.177.237-.362.37-.54.367-.49.76-.946.987-1.544.212-.556.593-1.05.914-1.56.2-.32.426-.62.76-1.106-.425.032-.656-.012-.826.072-.823.407-1.625.857-2.443 1.275-.39.2-.926.26-1.16.567-.25.328-.56.437-.864.606-.532.297-1.116.516-1.604.87-.72.526-1.286 1.266-2.202 1.506-.05.012-.087.068-.13.104-.574.48-1.107 1.03-1.735 1.425-.562.352-.77.77-.723 1.392.025.336-.012.677.012 1.013.034.483.44.882.9.8.46-.08.942-.212 1.335-.452.362-.222.68-.467 1.126-.513.174-.018.337-.17.498-.275.857-.555 1.736-.905 2.75-.28zM320.36 55.444c-.566.304-1.166.624-1.763.946-.247.132-.485.28-.736.402-.447.22-.92.396-1.35.645-.346.2-.635.378-.954-.022a.733.733 0 0 0-.342-.223c-.396-.12-.52-.4-.5-.777.058-1.084.302-2.095 1.14-2.87.1-.096.264-.19.278-.3.15-1.103 1.232-1.833 1.103-3.07.318-.044.56-.097.805-.11.642-.032.838.3.59.9-.556 1.345-1.09 2.7-1.63 4.05-.01.02.012.052.033.127.367.162.783.02.92-.27.355-.748 1.133-.887 1.7-1.313.498-.376.954-.737 1.328-1.256.393-.544.747-1.205 1.566-1.263.557-.04.71.03.758.608.037.434-.065.877-.075 1.318-.005.205.013.446.12.602.05.072.344 0 .517-.04.363-.09.68-.252.88-.6a.82.82 0 0 1 .36-.34 37.96 37.96 0 0 1 2.33-.89c.74-.25 1.252.136 1.273.924.01.328-.042.656-.068 1.04.656-.01 1.074-.39 1.53-.67.807-.5 1.555-1.147 2.424-1.48.627-.238 1.374-.358 2.126-.17.6.15.97.527 1.18.982.3.653.433 1.386.63 2.085.022.078.005.17.02.25.182 1.037.39 1.2 1.63 1.232 0-.243.058-.502-.014-.72-.15-.46-.042-.884.047-1.328.083-.41.208-.75.63-.924.122-.05.28-.172.3-.282.13-.783.847-.992 1.338-1.42.273-.24.54-.49.828-.712a8.62 8.62 0 0 1 .892-.604c.454-.263.93-.49 1.387-.75.783-.443 1.59-.492 2.43-.18.274.103.557.18.88.282.237-.704.69-1.09 1.192-1.475.588-.452 1.077-1.032 1.615-1.547.255-.242.54-.43.91-.245.388.195.49.598.434.937-.143.867-.067 1.82-.838 2.492-.18.16-.265.427-.392.646-.085.145-.132.373-.255.426-.63.27-.723.87-.957 1.405-.518 1.18-.28 2.732.608 3.62.202.2.27.427.106.674-.308.466-.755.786-1.29.873-.37.06-.74-.018-.985-.463-.28-.507-.706-.932-1.057-1.4-.195-.26-.434-.242-.674-.12-.174.087-.33.214-.48.34-.63.532-1.324.922-2.134 1.136-.476.125-.91.402-1.37.59-.152.063-.332.054-.495.088-.494.103-.996.183-1.48.325-.535.157-1.02.287-1.628.18-.46-.08-.943-.087-1.42-.213a1.3 1.3 0 0 1-.74-.496c-.554-.687-.823-1.47-.68-2.34.108-.652-.323-1.062-.612-1.506-.226-.348-.937-.225-1.392.105-.677.49-1.453.878-2.028 1.465-.77.79-1.875 1.13-2.54 2.055-.453.628-1.476.337-1.813-.044-.113-.126-.165-.362-.147-.54.048-.472.154-.94.226-1.41.03-.2.03-.407.05-.687-.25.042-.396.036-.512.092-.832.41-1.652.84-2.485 1.245-.248.12-.525.18-.785.277-.224.084-.473.142-.657.282-.82.623-1.224.524-1.64-.434-.02-.045-.085-.068-.195-.148zm19.593-.982l.087.035c0 .085-.007.17 0 .253.057.69.396.884 1.03.586.23-.107.476-.206.66-.37.898-.79 2.29-1.016 2.715-2.357.03-.093.157-.156.244-.226.507-.404.568-.94.454-1.525-.12-.61-.388-.755-.96-.502-.435.193-.838.523-1.29.605-.587.107-.953.458-1.307.85-.39.437-.776.887-1.088 1.38-.244.386-.37.844-.547 1.27zm-38.621-31.73c0 .43.03.862-.008 1.288-.044.512-.278.86-.832 1.032-.45.138-.856.41-1.362.304-.074-.016-.172.016-.244.053-1.035.533-2.095.484-3.17.15a.831.831 0 0 0-.163-.035c-1.55-.19-2.055-.783-2.39-2.29-.185-.825.13-1.428.417-2.078.524-1.192 1.107-2.36 1.64-3.547.144-.318.195-.677.3-1.052-.04-.017-.13-.09-.174-.068-.6.273-1.188.572-1.788.84-.395.176-.57.46-.483.873.08.37.036.706-.307.88-.357.184-.76.236-1.117-.04-.196-.152-.373-.33-.558-.497-.1-.09-.212-.265-.3-.255-.573.07-.782-.485-1.202-.682-.354-.165-.298-.56.02-.823.414-.344.925-.372 1.418-.474.32-.065.628-.18.943-.27.242-.07.482-.144.728-.2.247-.056.54-.025.738-.15.427-.275.894-.258 1.357-.343.877-.162 1.7-.448 2.168-1.326.13-.24.4-.398.563-.625.32-.456.656-.91.908-1.406.523-1.026 1.517-1.633 2.168-2.54.098-.135.234-.243.34-.374.418-.523.502-.546 1.13-.35.282.09.525.19.55.544.024.338.1.666-.293.88-1.244.68-1.726 2-2.515 3.06-.13.175-.11.462-.187.836 1.19-.208 2.24-.453 3.307-.558.845-.083 1.648-.427 2.516-.347.152.015.325-.074.474-.148.603-.303 1.167-.59 1.915-.41.464.11 1.003-.15 1.5-.12.795.052 1.477-.207 2.18-.504.346-.146.767-.127 1.155-.15.587-.036 1.176-.02 1.762-.07.945-.08 1.904-.114 2.835-.21 1.403-.146 2.852.25 4.215-.33a.403.403 0 0 1 .312.02c.48.255.92.027 1.373-.087.177-.044.413-.162.53-.092.668.402 1.35.224 2.035.12.056-.01.113-.03.167-.026.666.072 1.372.318 1.99.176.69-.158 1.31-.13 1.973-.008.272.05.562.066.835.034 1.18-.142 2.35-.146 3.52.086.11.02.236.055.334.02 1.125-.388 2.235.033 3.347.09.576.03 1.132.186 1.728.045.384-.09.517.125.492.55-.018.332-.004.664-.004.962-.33.214-.605.463-.927.58-.495.182-1.022.376-1.537.38-.838.005-1.465.494-2.177.78-.34.134-.617.285-1.02.26-.448-.03-.906.157-1.362.233a.981.981 0 0 1-.418-.02c-.36-.093-.552-.535-.3-.79.258-.262.424-.657.918-.666.45-.01.754-.328.955-.725-1.45-.146-2.888-.336-4.332-.415-.81-.044-1.61-.064-2.405-.27-.45-.118-.925-.02-1.406.057-.83.132-1.696.443-2.547-.002a.863.863 0 0 0-.494-.076c-.926.143-1.845.097-2.773.03-.506-.037-1.024.184-1.542.24-1.36.146-2.724.273-4.087.394-.645.057-1.29.087-1.938.116-1.695.075-3.31.584-4.96.905-.14.026-.323.128-.407.074-.673-.44-1.154.056-1.668.33-.358.192-.718.226-1.117.262-.97.088-1.93.29-2.893.445-.332.054-.67.166-1 .144-.612-.04-1.112.168-1.674.396-.834.34-1.167 1.022-1.55 1.684-.354.613-.62 1.28-.894 1.936a55.69 55.69 0 0 0-1.11 2.814c-.244.688.206 1.326.954 1.338.896.015 1.8-.038 2.694-.103.196-.016.4-.18.565-.318.454-.377.938-.6 1.667-.37zm11.738 1.548c-.37-1.23-.577-1.24-1.59-.477-1.042.79-2.14 1.534-3.467 1.812-.16.034-.358.062-.465.168-.518.516-1.165.322-1.766.34-.133.005-.354-.188-.398-.33-.3-.985.213-2.856 1.043-3.45.348-.25.61-.617.917-.928.84-.853 1.67-1.712 2.52-2.553.253-.25.51-.49.954-.416.206.034.452-.184.684-.28.503-.207.686-.148.967.31.116.188.228.38.338.564-.42.855-.42.854-1.38.638-.08-.018-.187-.053-.246-.02-.57.325-1.245.468-1.652 1.07-.295.44-.672.823-1.005 1.238-.296.37-.61.732-.856 1.134-.092.147-.016.398-.016.73l1.11-.498 1.216-.538c.102-.045.22-.07.302-.14.457-.39.882-.824 1.36-1.184.536-.402 1.1-.78 1.69-1.09.27-.14.638-.09.945-.123.327.677.55 1.24.33 1.938-.088.282.142.662.215.956 1.236-.024 1.988-.713 2.8-1.348 1.068-.834 1.965-1.833 2.888-2.803.536-.564.937-1.256 1.41-1.88.183-.244.397-.464.58-.675.286.066.516.145.75.168.588.06.788.32.64.88-.02.08-.032.176-.082.236-.826.983-1.505 2.067-2.172 3.16-.633.223-.607.87-.91 1.305.693.446.796.45 1.286.046.193-.16.423-.305.553-.51.63-1 1.7-1.32 2.688-1.74.747-.32 1.542-.225 2.306.003.313 1.322-.097 1.782-1.042 2.1-.285.095-.532.297-.8.45-.286.167-.593.31-.858.505-.184.136-.465.39-.43.514.064.23.3.522.517.575.866.21 1.76.315 2.633.508.588.13 1.16.34 1.738.515.188.057.413.206.558.15.814-.316 1.666-.062 2.488-.204.437-.076.88-.123 1.37-.19-.032-.235-.05-.42-.08-.606-.204-1.25.424-2.036 1.708-2.176.36-.04.712-.162 1.07-.233 1.042-.206 1.898.46 1.872 1.49-.008.287-.17.57-.28.917.275.398.756.5 1.275.53.474.026.95.075 1.427.093.25.01.515.017.75-.052.492-.143.962-.23 1.49-.15.645.1.987-.184 1.275-.853.23-.527.506-.733.92-.68.548.067.978.457.98.98.002.218-.108.534-.273.636-.368.23-.605.567-.906.84-.333.302-.83.467-1.285.58-.617.156-1.266.174-1.89.306-1.02.217-2.003-.077-3-.16-.384-.03-.784.12-1.163.075a8.611 8.611 0 0 1-1.624-.357c-.55-.17-1.048-.164-1.532.16-.59.398-1.244.458-1.94.413-.47-.03-.945.067-1.42.098-.446.03-.897.084-1.342.06-.828-.044-1.644-.126-2.483-.095-.723.026-1.474-.305-2.185-.555-.685-.24-1.34-.566-1.993-.885a1.77 1.77 0 0 1-.587-.473c-.288-.36-.63-.434-1.05-.33-.192.047-.39.073-.584.104-.895.148-1.726.056-2.472-.536-.47-.373-.618-.28-1.107.043-.783.515-1.58.947-2.627.76-.605-.104-1.092-.368-1.61-.576zM14.406 62.62c.01 0-.047-.004-.1-.024-1.06-.415-1.268-.735-.717-1.963.5-1.118 1.17-2.16 1.767-3.235.013-.025.04-.046.045-.07.294-1.105 1.103-1.948 1.507-2.994.068-.18.04-.398.07-.75-.633.328-1.1.607-1.6.817-.92.39-1.848.777-2.8 1.082-.312.1-.733.007-1.055-.12-.164-.065-.31-.406-.305-.618.01-.397.158-.776.596-.938 1.132-.417 2.26-.837 3.39-1.256.054-.02.12-.034.152-.073.73-.848 1.92-1.042 2.653-1.913.457-.543 1.147-.65 1.887-.624.316.78.64 1.49.166 2.38-.66 1.24-1.137 2.574-1.757 3.835-.354.72-.837 1.38-1.263 2.07.443.218.854.105 1.148-.267.185-.233.363-.48.588-.67.358-.3.772-.504 1.064-.926.192-.278.657-.406 1.026-.513.312-.09.467-.246.58-.535.305-.785 1.21-1.132 1.914-.716.155.09.258.355.29.556.182 1.117.226 2.22-.11 3.338-.114.382.07.854.133 1.406.73-.198 1.372-.292 1.94-.546.862-.385 1.864-.688 2.32-1.577a7.484 7.484 0 0 1 .982-1.447c.285-.334.66-.592 1.006-.872.082-.066.263-.052.3-.126.348-.668.955-.563 1.548-.58.762-.02 1.478-.058 2.176.42.38.262.93.22 1.35.59.593.525.946 1.165 1.243 1.86.2.47.03 1.282-.327 1.64-.097.097-.277.196-.276.292.01.82-.798 1.163-1.05 1.84-.096.257-.47.446-.754.59-.323.164-.696.222-1.034.36-.62.257-1.222.406-1.858.026-.136-.082-.388-.05-.553.014-1.083.424-2.043.006-2.793-.644-.78-.677-1.435-.755-2.345-.35-.818.364-1.72.472-2.63.214-1.025-.292-1.718-1.676-1.6-2.853.026-.27.09-.538.155-.915-.236.085-.39.095-.468.176-.39.4-.712.87-1.338.946-.096.012-.166.21-.255.315-.346.417-.708.805-1.284.904-.16.027-.428.116-.44.207-.142.96-1.26.86-1.65 1.55-.077.138-.33.184-.51.257-.33.134-.663.256-1.127.433zm16.34-1.936c1.023-.103 2.35-.572 3.06-1.15.84-.686.862-1.523.046-2.207a4.332 4.332 0 0 0-.685-.492c-.792-.435-1.36-.333-1.93.337-.102.122-.128.307-.222.44-.142.202-.274.468-.476.56-.52.233-.807.675-1.136 1.086-.333.418-.205.946.3 1.14.335.13.693.193 1.04.286zm46.379-39.7a5.912 5.912 0 0 0-1.637 1.23c-.113.12-.218.265-.36.337-.994.51-1.837 1.248-2.78 1.825-.712.438-1.596.604-2.408.878-.096.033-.225-.002-.333-.028-.476-.116-.89-.04-1.152.387-.84-.082-1.19-.673-1.492-1.272-.238-.47-.43-.964-.346-1.533.038-.258-.08-.54-.15-.94-.256.164-.487.233-.588.388-.532.807-1.36 1.17-2.144 1.663-.833.522-1.738.87-2.562 1.373-.963.588-2.332.15-2.505-.96-.066-.426.132-.937.33-1.354.725-1.542 1.916-2.717 3.143-3.86.567-.525 1.104-1.084 1.668-1.613.2-.185.438-.33.668-.478.187-.123.446-.182.57-.347.527-.71 1.25-.98 2.094-1.046.128-.01.257-.08.37-.148 1.144-.684 2.452-.125 2.725 1.188.08.375 0 .753-.428.89-.43.134-.415.372-.378.77.093.985-.087 1.944-.47 2.872-.176.43-.256.91-.326 1.376-.05.336.202.574.588.555a4.214 4.214 0 0 0 1.08-.19c.885-.286 1.786-.536 2.374-1.38.172-.246.59-.305.848-.51.654-.515 1.257-1.1 1.927-1.59.865-.634 1.612-1.39 2.368-2.138.506-.5 1.062-.203 1.59-.073.468.114.53.51.546.935.024.723.09 1.444.12 2.167a1.37 1.37 0 0 1-.098.564c-.223.54-.358 1.184-.746 1.566-.513.505-.958 1.08-1.497 1.54-.36.31-.906.433-1.39.552-.204.05-.532-.056-.68-.21-.202-.21-.305-.528-.417-.812-.125-.318.165-.475.284-.71.312-.616.913-.872 1.374-1.296.13-.12.246-.262.367-.394l-.148-.172zm-8.506-3.528c-.45-.876-.715-.973-1.485-.52-.536.313-1.224.444-1.447 1.154-.006.023-.04.038-.063.055-1.427 1.09-2.69 2.338-3.706 3.832-.21.307-.516.547-.81.854.335.212.53.122.73-.07.16-.153.338-.288.517-.42.782-.574 1.58-1.13 2.347-1.724.505-.39.946-.867 1.463-1.24.786-.568 1.457-1.292 2.347-1.72.04-.018.05-.094.105-.2zm114.015-9.673l1.272-.168c.602.78.493 1.538-.43 2.194-.408.29-.795.495-.805 1.063-.002.11-.167.214-.245.33-.346.512-.68 1.03-1.03 1.54-.128.182-.288.34-.433.51-.088.102-.26.22-.245.308.1.632-.383.968-.674 1.393a26.546 26.546 0 0 0-2.312 4.044 29.171 29.171 0 0 0-1.337 3.488c-.03.102-.013.218-.02.393.577.068 1.077.014 1.614-.234.757-.35 1.575-.564 2.363-.852.17-.062.317-.19.48-.28.21-.118.414-.283.643-.332.487-.105.895-.302 1.213-.7.11-.14.296-.224.453-.325.114-.074.306-.106.347-.206.364-.88 1.31-1.22 1.802-1.973.727-1.118 1.875-1.097 3.017-1.178.798-.058 1.474.313 2.19.508.568.154.97.654 1.04 1.317.035.307.072.62.166.912.255.78-.024 1.433-.443 2.056-.22.324-.456.635-.697.942-.625.795-1.552 1.137-2.4 1.6-.976.53-2.067.745-3.106 1.044-.898.257-1.896-.016-2.658-.684-.163-.143-.187-.455-.25-.695-.173-.644-.368-.743-.94-.457-.126.062-.248.173-.377.184-1.12.097-1.984.83-2.994 1.2-.907.33-1.816.308-2.727.092-.506-.122-.746-.51-.913-1-.395-1.157.06-2.17.514-3.157.55-1.19 1.194-2.34 1.83-3.49.266-.486.612-.927.925-1.385.046-.068.148-.12.16-.19.174-1.295 1.157-2.042 1.947-2.926.158-.177.2-.455.31-.68.145-.3.23-.684.47-.87.727-.57.95-1.48 1.555-2.13.314-.34.488-.807.722-1.21zm1.502 15.03c.122.113.176.206.245.22 1.13.243 2.205.172 3.167-.555.175-.132.367-.313.56-.327.464-.032.7-.294.9-.656.177-.316.38-.618.562-.93.52-.892.146-1.543-.894-1.532-.8.008-1.55.177-2.196.707-.253.207-.58.323-.86.5-.163.102-.307.236-.45.364-.652.58-.69 1.438-1.034 2.208zm43.534 89.009c-.06-.36.168-.623.414-.955.73-.982 1.515-1.926 2.11-3.018.494-.91 1.26-1.624 2.175-2.146.14-.082.318-.11.482-.145.48-.095.783.18.69.647-.043.215-.155.418-.253.62-.035.07-.16.118-.167.183-.095 1.027-1.054 1.41-1.58 2.113-.303.404-.64.77-.693 1.336.476 0 .92.05 1.348-.01a90.743 90.743 0 0 0 3.908-.626c.96-.178 1.906-.438 2.86-.645.218-.05.448-.032.673-.054.63-.064 1.26-.115 1.89-.203 1.326-.19 2.58-.736 3.956-.736.605 0 1.214-.217 1.816-.354.63-.143 1.26-.135 1.9-.154.956-.03 1.9-.407 2.85-.644.107-.025.22-.14.306-.12.705.175 1.315-.177 1.968-.306 1.38-.273 2.77-.486 4.155-.723.14-.025.28-.04.414-.078.83-.26 1.658-.522 2.488-.784.187-.06.373-.117.56-.178.253-.084.568-.31.748-.227.396.18.775.464 1.057.796.177.21.188.557-.108.832-.428.395-.75.836-1.473.79-.487-.026-1.014.183-1.438.59-.49.472-1.14.394-1.758.02-.482-.29-1.024-.08-1.535-.02-.634.072-1.26.197-1.89.31-.576.105-1.15.24-1.728.33-.44.07-.89.087-1.334.124-.056.004-.14-.033-.163-.008-.418.445-.985.26-1.483.354-.8.152-1.605.248-2.406.387-.327.057-.645.17-.97.246-.437.103-.873.233-1.316.28-1.367.145-2.74.256-4.11.383-.11.01-.242.014-.322.076-.983.772-2.146.546-3.262.62-.403.027-.837.127-1.187.32-.573.314-1.31.086-1.813.604-.064.066-.27.004-.408-.012-.108-.01-.23-.08-.325-.05-1.03.313-2.06.64-3.085.972-.266.086-.517.25-.786.287-.838.11-1.452.597-2.01 1.16-.203.204-.35.52-.4.81-.132.734-.194 1.482-.288 2.225-.03.252-.047.512-.126.748-.18.533-1.103.746-1.452.31-.294-.368-.612-.794-.69-1.235-.104-.562-.4-.973-.69-1.41-.67-1.016-.442-2.006.618-2.604.577-.325 1.16-.643 1.86-1.032zM182.62 54.47c-.453-.062-.72.016-.885.35-.52 1.05-1.686 1.333-2.48 2.06-.725-.09-1.133.412-1.608.823-.173.15-.464.19-.71.226-.374.053-.756.057-1.317.095l-.92-.947c-.623.23-1.34.316-1.89.875-.25.25-.612.388-.922.575-.455.27-.904.553-1.368.808-.218.12-.458.214-.7.277-.567.146-1.142.274-1.715.396-1.146.24-1.363.097-1.36-1.183 0-1.007.562-1.87.988-2.753.17-.352.318-.713.473-1.07.044-.105.043-.242.115-.316.68-.71.776-1.707 1.24-2.524.245-.436.416-.917.59-1.39.192-.537.852-.85 1.432-.648.45.157.676.744.446 1.273-.29.667-.623 1.317-.928 1.98-.092.2-.15.414-.225.622-.044.13-.048.297-.135.385-.86.883-.978 2.083-1.537 3.25.95-.174 1.69-.44 2.39-.828.68-.378 1.362-.75 2.028-1.148.264-.155.54-.335.715-.574.506-.686 1.294-1.066 1.776-1.81.343-.53 1.006-.865 1.558-1.24.37-.247.684.087.87.312.165.198.206.57.164.844-.038.26-.24.504-.397.735-.215.315-.326.643-.23 1.12.79-.055 1.428-.374 2.02-.852.384-.31.815-.565 1.217-.856.222-.16.44-.333.634-.526.238-.237.428-.525.678-.748.39-.347.822-.416 1.323-.174.493.238.713.61.738 1.13.038.786.066 1.57.114 2.355.026.433.2.603.667.544.442-.054.873-.204 1.3-.328.19-.055.392-.252.54-.214.736.194 1.266-.352 1.908-.473.63-.12 1.02-.455 1.126-1.154.063-.39.11-.915.736-.985.62-.068 1.256.398 1.264 1.015.003.393.034.805-.07 1.173-.096.33-.297.69-.563.902-.52.416-1.136.65-1.78.874-.728.25-1.565.235-2.188.78-1.232.043-2.42.763-3.705.163-.787-.368-1.273-.884-1.337-1.757-.035-.473-.052-.945-.078-1.45zM44.614 21.167c-.32-.015-.475-.067-.587-.02-.648.275-1.313.187-1.99.194-.797.01-1.09-.477-1.378-1.026-.3-.568-.245-1.126.16-1.678.48.084.916.11 1.28.515.436.488 1.037.33 1.59.205.378-.086.75-.2 1.123-.314.132-.04.274-.09.375-.178.673-.592 1.354-1.176 1.995-1.803.417-.41.848-.72 1.453-.762.638-.044 1.045.48.792 1.086a4.31 4.31 0 0 1-.483.875c-.44.602-.958 1.152-1.356 1.78-.318.5-.505 1.08-.814 1.77.333-.045.542-.014.673-.102.443-.296.855-.64 1.288-.953.383-.277.778-.54 1.168-.808.11-.077.29-.132.323-.234.15-.473.537-.448.895-.447.728.003.972.42.705 1.107a50.403 50.403 0 0 0-.79 2.22c-.17.514.11.798.653.91.994.202 1.725-.317 2.45-.816.625-.43 1.22-.877 1.942-1.16.456-.18.878-.472 1.035-1.037.1-.36.418-.662.513-1.022.133-.502-.003-.636-.513-.75-.19-.043-.385-.078-.57-.14-.332-.11-.604-.037-.843.213-.116.123-.232.258-.376.338-.306.17-.605.48-.995.2-.213-.15-.287-.85-.152-1.176.2-.49.53-.834 1.062-.966.188-.046.378-.11.545-.206 1.077-.614 2.135-.35 3.07.233 1.302.816 1.13 2.398.107 3.346-.172.16-.36.362-.41.577-.08.326-.222.543-.495.74a78.622 78.622 0 0 0-2.62 1.936c-.8.615-1.724.903-2.683 1.123-.164.038-.375.014-.482.11-.555.493-1.252.3-1.863.333-.348.017-.81-.374-1.062-.7-.33-.43-.605-.944-.56-1.543.004-.056-.083-.118-.176-.24-.08.136-.154.214-.17.303-.122.622-.565.884-1.126.968-.53.08-1.045.153-1.514.465-.366.244-.865.352-1.184.02-.373-.385-1.003-.666-.774-1.45.124-.423.06-.866.505-1.18.168-.116.158-.485.26-.856zM210.88 8.06c.443.604.465.953.08 1.436-.178.22-.363.44-.582.613-1.122.895-1.73 2.17-2.45 3.354-.298.494-.38 1.114-.625 1.648-.407.894-.86 1.767-1.306 2.643-.268.524-.618 1.017-.812 1.566-.162.465-.153.99-.218 1.488-.118.915-.286 1.815-.176 2.76.17 1.45.913 1.563 2.045 1.337.186-.038.37-.155.55-.146.442.02.776-.147 1.007-.497.426-.644 1.018-.773 1.693-.54.43.148.645.103.832-.363.19-.475.523-.502.94-.2.11.083.22.172.332.256.412.31.502.738.132 1.042-.506.412-.9 1.002-1.704.983-.323-.006-.682.252-.976.46-.517.36-1.034.662-1.695.648-.217-.004-.43.126-.652.156-.494.066-.992.12-1.49.15-.19.013-.398-.11-.58-.075-.74.137-1.254-.18-1.642-.763-.116-.178-.2-.38-.28-.577-.04-.1-.005-.26-.07-.318-.786-.697-.76-1.688-.896-2.593-.07-.477.08-1 .195-1.487.136-.568.32-1.128.528-1.676.144-.38.374-.726.54-1.1.203-.458.353-.942.573-1.392.504-1.03 1.177-1.978 1.52-3.094.086-.273.362-.488.546-.732.243-.323.59-.586.592-1.05 0-.105.05-.224.112-.31.494-.668.93-1.4 1.514-1.977.695-.686 1.36-1.486 2.42-1.65zm27.95 111.106c.734.334 1.45.53 2.292.3.886-.24 1.692-.75 2.666-.718.294.008.625-.215.892-.398.66-.457 1.523-.52 2.085-1.184.36-.424.89-.586 1.398-.418.6-.543 1.142-1.05 1.704-1.53.213-.183 1.263-.118 1.452.075.087.09.15.244.155.37.038.95.162 1.864.69 2.694.214.334.04.69-.253.89-.34.228-.73.41-1.122.522-.14.04-.397-.15-.526-.3-.18-.207-.267-.49-.43-.715-.403-.56-.69-.658-1.29-.322-.575.32-1.304.396-1.69 1.04-.068.11-.3.126-.46.17-.107.032-.282.003-.322.065-.513.832-1.48.54-2.193.88-.492.233-1.09.243-1.64.354-.138.03-.308.02-.406.1-.696.553-1.548.473-2.344.562-1.787.2-3.288-1.6-2.823-3.38.093-.355.418-.65.65-.964.215-.293.5-.547.66-.863.158-.312.254-.605.658-.686.124-.022.21-.24.313-.366.087-.11.15-.254.262-.322.688-.422 1.39-.822 2.08-1.24.238-.145.458-.318.68-.49.373-.29 1.145-.414 1.417-.217.325.236.47.783.28 1.31-.272.772-.822 1.272-1.553 1.657-.722.38-1.48.633-2.242.887-.83.274-1.075.903-1.086 1.688 0 .167.026.335.044.548zm-12.743-10.186c-.633.56-1.327 1.006-1.882 1.633-.232.262-.687.412-1.055.445-.607.05-.933-.547-.57-1.03.29-.394.43-.923.943-1.132a.246.246 0 0 0 .125-.11c.063-.142.19-.323.145-.427-.047-.114-.27-.24-.394-.222-.528.08-1.092.117-1.562.34-1.134.54-2.23 1.164-3.323 1.78-.562.32-.955.786-.95 1.48.003.792.1 1.526.67 2.18a13.83 13.83 0 0 1 1.612 2.257c.584 1.03.49 2.35-.655 3.04-.456.272-.876.48-1.455.538-1.006.102-2.004-.004-3 .088a5.2 5.2 0 0 0-1.06.226c-.56.174-.735.107-.967-.45-.254-.604-.14-1.104.31-1.313.79-.367 1.562-.627 2.49-.436.635.133 1.342-.014 2.005-.113.657-.102.812-.64.407-1.205-.523-.73-1.1-1.435-1.535-2.214-.334-.6-.645-1.3-.666-1.963-.02-.592.272-1.264.61-1.777.44-.662 1.014-1.258 1.62-1.78.544-.468 1.162-.937 1.83-1.163 1.51-.516 3.004-1.133 4.634-1.225.55-.03 1.05-.023 1.473.428.397.428.647.822.3 1.41-.117.195-.073.486-.1.714zm3.788-96.58c-.032-.177-.05-.317-.085-.452-.056-.217-.12-.432-.205-.723-.19-.013-.417-.08-.615-.032-.86.204-1.715.223-2.572 0a.406.406 0 0 0-.17-.01c-.997.127-1.995.3-2.998.377-.916.072-1.8.274-2.694.457-.397.08-.817.03-1.197.257-.134.08-.33.065-.497.072-1.013.04-1.993.204-2.988.43-.835.19-1.692.347-2.54.495-.923.162-1.537.796-2.308 1.176-.147.073-.25.38-.25.58 0 .388.118.777.117 1.166 0 .195-.108.448-.254.565-.105.085-.397.054-.533-.036-.948-.626-1.638-1.782-.763-2.91a3.2 3.2 0 0 1 1.163-.916c1.07-.484 2.178-.882 3.277-1.297.204-.077.44-.073.664-.092.252-.02.525.03.754-.05 1.122-.388 2.304-.355 3.453-.538.987-.157 1.967-.38 2.96-.482.745-.078 1.507-.017 2.26-.01.142.002.34.11.41.05.647-.55 1.5-.323 2.214-.617.256-.106.555-.26.8-.213 1.17.224 2.325-.16 3.483-.02.206.024.436.13.588.272.514.474.545 1.705.088 2.224-.303.343-.576.396-1.563.28zm26.165 102.957c.056.314.092.664.184 1 .053.193.157.422.31.523.084.055.377-.078.48-.205.465-.564 1.162-.533 1.766-.66.447-.096.863.264 1.13.635.418.588.818 1.197 1.145 1.84.158.31.34.482.634.39.924-.284 1.58.34 2.327.646.254.104.655.115.65.55-.002.38.194.796-.19 1.105a1.434 1.434 0 0 1-1.553.15c-.192-.105-.422-.233-.62-.214-.928.09-1.654-.37-2.428-.762-.525-.268-.9-.648-1.23-1.105-.437-.605-.887-.62-1.475-.187-.575.424-1.227.746-1.847 1.113-.166.098-.368.164-.49.3-.278.317-.61.226-.94.185-.447-.058-.522-.362-.48-.74a.297.297 0 0 0-.032-.165c-.57-1.092.078-1.982.484-2.91.077-.178.228-.324.307-.504.402-.914.672-1.072 1.87-.983zm-55.894-97.372c-.403-.05-.703-.072-.997-.13-.12-.023-.29-.1-.328-.194-.133-.336-.327-.526-.704-.416-.407.12-.723.35-.757.808a59.283 59.283 0 0 0-.124 2.268c-.01.306.072.615.052.92-.022.326-.028.707-.196.96-.34.502-.783.935-1.188 1.394-.034.04-.12.047-.14.088-.53 1.13-1.723.862-2.612 1.214-.434.172-2.1-.96-2.24-1.418-.12-.398-.1-.77.262-1.073.396-.333.986-.458 1.412-.22.27.15.52.338.756.536.31.257.562.202.8-.085.105-.128.173-.33.306-.388.77-.338.906-.98.903-1.72 0-.533.072-1.067.052-1.598-.03-.772.323-1.36.7-2 .283-.482.522-.866 1.07-1.044.754-.247 1.515-.43 2.31-.37.57.044.92.465.9 1.02-.003.083-.023.166-.038.25-.063.384-.126.77-.198 1.2zM5.807.08c.337.38.363.735.255 1.198-.145.62-.11 1.28-.19 1.92-.07.568-.143 1.104.03 1.692.153.523.114 1.116.08 1.673-.01.2-.222.433-.404.567-.17.125-.422.14-.655.206-.28-.15-.573-.304-.847-.45L3.85 5.528l-1.515.394c-.37.097-.955-.12-1.096-.44C.977 4.898.746 4.298.496 3.708.3 3.24.115 2.783.222 2.245.26 2.057.096 1.832.03 1.62-.152 1.045.54.06 1.12.108c.385.032.7.228.792.647.066.302.11.61.164.915.024.138-.004.312.07.41.468.61.56 1.382.914 2.036.076.14.28.21.446.325.202-.773.38-1.46.564-2.148.072-.267.173-.525.242-.792.053-.208.106-.424.108-.638.01-.768.248-.966 1.01-.815.134.027.274.025.377.033zm190.398 111.73c1.502-.384 2.9-.745 4.303-1.097a2.12 2.12 0 0 1 .583-.057c.535.02 1.025-.033 1.548-.252.575-.244 1.245-.27 1.878-.36.52-.075 1.053.015 1.554-.288.308-.186.72.084.858.455.105.282.204.57.32.89-.215.523-.638.723-1.238.742-2.396.082-4.772.332-7.115.86-.432.1-.88.124-1.317.202-.71.127-.783.104-1.136-.535-.08-.143-.13-.304-.237-.56zm170.688-65.678c-.197.496-.408.925-.534 1.377-.097.344-.212.627-.548.795-.393.196-.562.523-.546.964.006.164-.03.34-.083.497-.15.453-.53.73-.954.703-.355-.022-.738-.25-1.022-.49-.112-.097-.025-.474.027-.712.07-.323.196-.633.294-.95.03-.108.022-.24.085-.325.49-.673.977-1.353 1.503-2 .276-.338.623-.623.95-.917.71-.64 1.777-.723 2.59-.23.297.183.46.42.38.766-.082.34-.32.52-.677.52h-1.467zM223.26 24.226c-.12.415-.14.818-.336 1.098-.4.573-.585 1.243-1.098 1.8-.514.56-1.107.75-1.7 1.054-.17.086-.312.23-.47.34-.374.257-.78.263-.992.018-.214-.246-.233-1.02.057-1.166.723-.366.847-1.153 1.313-1.694.434-.503.758-1.087.88-1.785.09-.52 1.032-1.016 1.548-.898.128.03.29.103.345.205.18.345.318.71.455 1.03zm139.917 19.226c-.113.614-.15 1.15-.32 1.642-.216.625-.544 1.21-.81 1.818-.1.226-.165.466-.242.7-.12.367-.226.737-.358 1.097a.46.46 0 0 1-.23.228c-.676.306-1.756-.284-1.734-1.016.02-.673.115-1.31.758-1.847.543-.453.892-1.2 1.183-1.877.31-.72.238-.756 1.028-.78.19-.006.384.017.727.034zM238.388 46.08c-1.115-.08-1.98-.73-3.022-.496-.215.048-.45.038-.67.01-.397-.048-.57-.333-.477-.717.08-.324.158-.647.236-.972.193-.822.887-1.165 1.672-.87.872.33 1.638.836 2.37 1.39.755.57.683 1.14-.11 1.655zm-58.628-2.192c-.472.205-.92.4-1.382.604-.454-.32-.892-.664-1.367-.946-.2-.12-.476-.104-.715-.164-.454-.115-.618-.438-.358-.812.375-.542.57-.785 1.325-.548.134.042.268.14.396.13 1.16-.08 1.73.592 2.1 1.736zM355.722 56.31c-.025-.11-.047-.164-.05-.22-.04-.657.092-.894.57-1.032.687-.198 1.188-.055 1.417.49.155.378.257.8.276 1.208.032.705-.377 1.1-1.057 1.12-.827.027-1.246-.384-1.222-1.208.005-.14.048-.273.064-.357zm-105.52 57.6c-.136-.47-.208-.785-.315-1.088-.14-.39-.086-.572.312-.697.574-.18 1.156-.31 1.55.352.028.045.082.076.13.105.307.205.646.408.46.857-.225.538-.708.788-1.252.677-.323-.066-.643-.15-.886-.207z"/></svg>