<svg xmlns="http://www.w3.org/2000/svg" width="275" height="67.634" viewBox="0 0 275 67.634"><path fill="#6D6E70" d="M31.243 12.385c0 5.113-4.153 9.26-9.26 9.26-5.112 0-9.26-4.146-9.26-9.26s4.147-9.256 9.26-9.256c5.107 0 9.26 4.14 9.26 9.255zm0 18.515c0 5.115-4.153 9.26-9.26 9.26-5.112 0-9.26-4.145-9.26-9.26 0-5.107 4.147-9.255 9.26-9.255 5.107 0 9.26 4.148 9.26 9.256zm18.512-18.515c0 5.113-4.145 9.26-9.26 9.26s-9.252-4.146-9.252-9.26 4.14-9.256 9.253-9.256 9.26 4.14 9.26 9.255zm18.512 0c0 5.113-4.142 9.26-9.253 9.26-5.12 0-9.26-4.146-9.26-9.26s4.14-9.256 9.26-9.256c5.11 0 9.253 4.14 9.253 9.255zM49.755 30.9c0 5.115-4.145 9.26-9.26 9.26s-9.252-4.145-9.252-9.26c0-5.107 4.14-9.255 9.253-9.255s9.26 4.148 9.26 9.256zM31.243 49.422c0 5.108-4.153 9.256-9.26 9.256-5.112 0-9.26-4.147-9.26-9.256 0-5.116 4.147-9.262 9.26-9.262 5.107 0 9.26 4.146 9.26 9.262z"/><path d="M68.275 49.422c0 5.108-4.147 9.256-9.26 9.256a9.26 9.26 0 1 1 9.26-9.256z"/><path fill="#6D6E70" d="M257.145 29.537c.593-.594 1.3-.896 2.12-.896.824 0 1.532.303 2.126.897.592.594.89 1.304.89 2.12 0 .822-.298 1.525-.89 2.104-.593.584-1.3.87-2.125.87-.82 0-1.527-.286-2.12-.87-.6-.577-.888-1.28-.888-2.103 0-.816.29-1.526.888-2.12zM82.297 4.627V4.03h25.082v7.26h-.554a21.459 21.459 0 0 0-1.29-2.76 8.798 8.798 0 0 0-1.635-2.102 6.528 6.528 0 0 0-2.186-1.335c-.832-.314-1.816-.467-2.947-.467h-6.412v13.66h2.376c1.05 0 1.937-.145 2.657-.434.72-.307 1.32-.73 1.804-1.28.48-.55.876-1.216 1.19-1.997.31-.776.562-1.644.76-2.605h.555v13.196h-.554c-.197-.822-.43-1.61-.7-2.375a6.905 6.905 0 0 0-1.08-2.016 4.892 4.892 0 0 0-1.68-1.382c-.663-.338-1.485-.508-2.48-.508h-2.845v14.77h3.95v.598h-14.01v-.6h3.91V4.628h-3.91zm39.148 11.605a10.91 10.91 0 0 1 3.295 2.103 9.659 9.659 0 0 1 2.19 3.077 9.07 9.07 0 0 1 .774 3.716 9.215 9.215 0 0 1-.775 3.755 9.736 9.736 0 0 1-2.19 3.074c-.937.88-2.035 1.57-3.295 2.08-1.254.507-2.623.76-4.092.76-1.467 0-2.834-.253-4.097-.76-1.253-.51-2.35-1.2-3.288-2.08a9.635 9.635 0 0 1-2.184-3.074 9.124 9.124 0 0 1-.783-3.755c0-1.3.26-2.544.784-3.716a9.53 9.53 0 0 1 2.184-3.077 11.02 11.02 0 0 1 3.288-2.103c1.263-.522 2.63-.78 4.097-.78 1.47 0 2.838.258 4.092.78zm-1.502 17.232c.62-.525 1.086-1.207 1.38-2.06s.48-1.826.546-2.933c.075-1.1.11-2.21.11-3.343 0-1.14-.035-2.247-.11-3.335-.065-1.09-.253-2.062-.547-2.907-.294-.85-.76-1.53-1.38-2.057-.624-.525-1.486-.792-2.59-.792s-1.966.267-2.585.792c-.624.527-1.09 1.207-1.382 2.057-.297.845-.482 1.818-.554 2.907a47.821 47.821 0 0 0-.104 3.335c0 1.132.028 2.243.104 3.344.07 1.107.257 2.08.554 2.934.293.853.758 1.534 1.382 2.06.62.522 1.48.79 2.585.79s1.966-.268 2.59-.79zm18.377-17.427V29.49c0 1.08.21 1.995.633 2.74.43.757 1.172 1.132 2.252 1.132.65 0 1.243-.165 1.786-.475a4.521 4.521 0 0 0 1.38-1.253c.374-.518.676-1.13.884-1.84.218-.704.32-1.447.32-2.21V16.638h-2.8v-.603h7.98v17.617h2.8v.6h-7.89V30.81h-.092a4.502 4.502 0 0 1-1.02 1.637c-.45.465-.967.86-1.548 1.185a7.266 7.266 0 0 1-1.842.726 8.25 8.25 0 0 1-1.912.23c-1.98 0-3.496-.43-4.54-1.293s-1.573-2.33-1.573-4.394V16.64h-2.84v-.603h8.024zm21.342 17.617V16.64h-2.796v-.603h7.894v4.246h.082c.116-.26.31-.64.594-1.164.283-.526.694-1.044 1.232-1.55.537-.514 1.232-.957 2.08-1.338.848-.378 1.912-.57 3.18-.57 1.868 0 3.316.537 4.352 1.61 1.032 1.073 1.55 2.55 1.55 4.41v11.972h2.84v.6h-10.647v-.6h2.628V20.24c0-1.185-.242-2.055-.72-2.607-.477-.546-1.132-.827-1.953-.827-.67 0-1.33.17-1.953.484-.622.33-1.162.817-1.624 1.472-.474.645-.847 1.456-1.136 2.415-.276.964-.42 2.095-.42 3.39v9.088h2.673v.6h-10.65v-.6h2.795zm46.006 0v.6h-7.894v-3.145h-.086c-.454 1.184-1.083 2.095-1.89 2.736-.807.632-1.848.95-3.12.95-1.386 0-2.646-.27-3.774-.8a9.411 9.411 0 0 1-2.91-2.145 9.86 9.86 0 0 1-1.885-3.078 9.858 9.858 0 0 1-.678-3.646c0-.99.175-2.054.527-3.19a9.798 9.798 0 0 1 1.655-3.136c.75-.964 1.705-1.763 2.864-2.4 1.158-.63 2.558-.95 4.196-.95 1.273 0 2.31.297 3.1.888.792.597 1.4 1.484 1.824 2.67h.087V4.25h-2.882v-.595h8.06v30h2.803zm-8.13-11.5a12.93 12.93 0 0 0-.613-2.972c-.314-.908-.78-1.654-1.403-2.247-.62-.597-1.453-.898-2.503-.898-.7 0-1.313.162-1.805.475-.494.31-.9.82-1.205 1.524-.314.708-.533 1.644-.66 2.823-.13 1.174-.187 2.61-.187 4.307 0 1.387.025 2.64.104 3.756.068 1.116.226 2.075.467 2.86.235.798.594 1.406 1.058 1.828.47.427 1.1.643 1.887.643 1.192 0 2.115-.31 2.782-.916.664-.608 1.17-1.372 1.51-2.293.337-.924.537-1.91.613-2.973a47.25 47.25 0 0 0 .104-2.903 33.503 33.503 0 0 0-.15-3.014zm16.655 3.356c0 1.02.044 2.044.127 3.07.09 1.036.314 1.97.686 2.804.365.832.903 1.52 1.613 2.06.7.538 1.69.81 2.967.81 1.13 0 2.085-.216 2.864-.642.78-.422 1.416-.913 1.908-1.467.5-.55.87-1.093 1.105-1.634.24-.53.378-.932.403-1.186l.597.213c-.145.538-.39 1.108-.726 1.715-.337.614-.804 1.18-1.397 1.7-.594.524-1.33.96-2.21 1.31-.875.358-1.94.536-3.184.536-1.47 0-2.84-.213-4.114-.657-1.272-.437-2.384-1.07-3.33-1.908a8.834 8.834 0 0 1-2.23-3.052c-.537-1.205-.8-2.57-.8-4.1 0-1.215.25-2.402.76-3.566a10 10 0 0 1 2.105-3.077 10.686 10.686 0 0 1 3.135-2.16c1.203-.554 2.5-.825 3.887-.825a9.74 9.74 0 0 1 2.967.467 7.69 7.69 0 0 1 2.67 1.442c.795.65 1.444 1.49 1.95 2.517.517 1.04.768 2.274.768 3.715h-12.52v1.914zm6.79-5.35c0-.313-.007-.69-.037-1.15a4.896 4.896 0 0 0-.297-1.354 2.616 2.616 0 0 0-.83-1.144c-.38-.312-.916-.475-1.588-.475-.967 0-1.71.233-2.228.683a4.097 4.097 0 0 0-1.172 1.717 8.393 8.393 0 0 0-.484 2.25c-.073.81-.127 1.58-.155 2.313h6.79v-2.84zm31.067 13.494v.6h-7.888v-3.145h-.092c-.45 1.184-1.08 2.095-1.887 2.736-.807.632-1.837.95-3.115.95-1.388 0-2.648-.27-3.777-.8a9.3 9.3 0 0 1-2.906-2.145 9.708 9.708 0 0 1-1.89-3.078 10.046 10.046 0 0 1-.68-3.646c0-.99.173-2.054.525-3.19A9.912 9.912 0 0 1 232 18.8c.746-.964 1.702-1.763 2.866-2.4 1.157-.63 2.558-.95 4.2-.95 1.28 0 2.307.297 3.093.888.793.597 1.402 1.484 1.828 2.67h.08V4.25h-2.88v-.595h8.056v30h2.807zm-8.12-11.5a13.31 13.31 0 0 0-.615-2.972c-.317-.908-.784-1.654-1.405-2.247-.624-.597-1.46-.898-2.5-.898-.71 0-1.313.162-1.805.475-.5.31-.9.82-1.21 1.524-.314.708-.535 1.644-.66 2.823-.126 1.174-.187 2.61-.187 4.307 0 1.387.03 2.64.1 3.756.067 1.116.232 2.075.468 2.86.24.798.594 1.406 1.058 1.828.475.427 1.097.643 1.896.643 1.187 0 2.107-.31 2.78-.916a5.728 5.728 0 0 0 1.496-2.293c.346-.924.55-1.91.627-2.973.063-1.058.1-2.028.1-2.903a36.166 36.166 0 0 0-.144-3.014zM84.316 44.356v-.29h3.812v7.352h.043c.202-.573.493-.997.874-1.28.378-.277.875-.424 1.484-.424.78 0 1.45.15 2.012.45.55.306 1.01.69 1.362 1.147.363.465.624.965.794 1.508.165.532.25 1.048.25 1.52 0 .606-.105 1.19-.323 1.745a4.567 4.567 0 0 1-.9 1.47c-.39.428-.85.765-1.39 1.023a4.21 4.21 0 0 1-1.805.39c-.608 0-1.113-.156-1.497-.458-.382-.305-.686-.74-.902-1.312h-.036v1.507h-3.777v-.29h1.342V44.357h-1.34zm3.87 11.392c.03.507.126.98.29 1.423.16.438.404.803.724 1.095.32.29.76.438 1.33.438.37 0 .674-.1.896-.307.225-.2.396-.492.514-.873a6.3 6.3 0 0 0 .22-1.372c.036-.532.052-1.128.052-1.792 0-.812-.028-1.497-.087-2.058-.068-.563-.173-1.01-.322-1.353-.147-.337-.335-.58-.565-.728-.226-.153-.52-.23-.875-.23-.498 0-.896.145-1.192.43s-.52.64-.674 1.077c-.15.432-.244.906-.294 1.42-.045.52-.07.995-.07 1.44-.003.422.014.88.053 1.39zm15.874-5.474h-1.685v-.282h2.944v.282h-.934a111.46 111.46 0 0 0-1.95 4.367 170.357 170.357 0 0 0-1.41 3.434c-.395 1.002-.752 1.885-1.057 2.648-.305.76-.59 1.436-.863 2.014-.27.608-.578 1.053-.913 1.345-.335.285-.786.425-1.36.425-.608 0-1.104-.15-1.49-.435-.387-.294-.58-.694-.58-1.204 0-.398.128-.686.377-.86a1.55 1.55 0 0 1 .903-.264c.256 0 .502.07.733.213.23.143.345.357.345.642 0 .244-.042.444-.134.59-.088.148-.13.323-.13.524 0 .155.042.265.125.338.077.073.174.11.285.11.238 0 .47-.088.675-.26a3.1 3.1 0 0 0 .573-.662c.168-.262.314-.546.443-.845.133-.293.242-.567.338-.806l.867-2.174-3.813-9.137h-1.073v-.282h5.15v.283h-1.42l2.48 5.867 2.575-5.866zm17.7-1.882c-.35-1.324-.883-2.356-1.588-3.095-.7-.74-1.645-1.098-2.818-1.083-.936 0-1.682.175-2.25.533a3.681 3.681 0 0 0-1.312 1.405c-.308.567-.505 1.228-.597 1.968a17.316 17.316 0 0 0-.146 2.24v1.763c0 1.228.08 2.27.242 3.11.163.837.42 1.512.767 2.03.34.51.79.876 1.328 1.104.553.22 1.207.335 1.966.335.624 0 1.115-.116 1.48-.335.367-.23.653-.532.844-.916.198-.384.322-.838.37-1.368.06-.527.09-1.104.09-1.725v-.77h-2.096V53.3h6.27v.287H123v4.647h-.37a.477.477 0 0 0-.234-.354.82.82 0 0 0-.43-.114c-.33 0-.638.063-.925.195-.294.122-.608.267-.948.41-.337.15-.725.285-1.166.423-.44.124-.965.188-1.596.188-.984 0-1.94-.187-2.856-.572a7.76 7.76 0 0 1-2.428-1.586 7.77 7.77 0 0 1-1.67-2.36c-.425-.91-.63-1.888-.63-2.948 0-1.146.235-2.187.69-3.123.48-.935 1.07-1.728 1.805-2.394a7.967 7.967 0 0 1 2.443-1.53c.898-.36 1.78-.537 2.646-.537.412 0 .803.037 1.18.113.382.086.734.173 1.06.256.318.088.608.172.867.256.258.083.475.124.646.124.19 0 .332-.033.414-.097.078-.058.146-.172.225-.33h.336v4.138h-.298zm12.287 10.494c-.365.054-.695.08-1.004.08-.695 0-1.203-.123-1.538-.36a1.566 1.566 0 0 1-.618-1.023h-.04c-.214.543-.52.908-.894 1.1-.38.188-.924.285-1.64.285a5.02 5.02 0 0 1-1-.104 3.562 3.562 0 0 1-.927-.322 1.845 1.845 0 0 1-.698-.622c-.173-.266-.26-.58-.26-.964 0-.39.075-.72.234-.983.157-.262.358-.487.606-.668a3.29 3.29 0 0 1 .853-.448c.32-.114.645-.226.984-.333a46.59 46.59 0 0 0 1.348-.42c.348-.112.62-.234.805-.36.188-.133.318-.274.395-.44s.112-.372.112-.63V51.44c0-.364-.087-.694-.265-.996-.178-.297-.513-.45-.997-.45-.307 0-.576.077-.812.222-.222.135-.343.398-.343.776 0 .038.007.114.025.216.01.102.027.213.037.332.015.124.024.238.04.345.018.11.02.18.02.224 0 .204-.045.36-.142.474a.832.832 0 0 1-.335.253 1.04 1.04 0 0 1-.4.097c-.145 0-.264.01-.357.01-.135 0-.28-.01-.42-.03a.94.94 0 0 1-.375-.146 1 1 0 0 1-.272-.312c-.076-.132-.114-.316-.114-.545 0-.354.1-.664.3-.948.192-.273.45-.502.783-.688.32-.18.69-.322 1.102-.408.412-.104.85-.146 1.29-.146.51 0 .994.032 1.45.12.45.077.845.232 1.175.44.335.22.602.515.797.888.188.375.29.845.29 1.413v5.028c0 .264.04.48.116.682.07.195.258.292.553.292.176 0 .33-.027.437-.097.117-.068.224-.167.336-.283l.18.177c-.19.277-.46.447-.816.506zm-3.323-5.218a.608.608 0 0 1-.15.236 1.743 1.743 0 0 1-.397.253c-.256.12-.512.24-.766.353-.263.114-.49.26-.692.435-.205.18-.37.396-.5.65-.13.263-.19.587-.19.993 0 .162.01.354.028.57.025.216.076.424.163.627.085.205.217.378.396.522.174.137.414.213.73.213.177 0 .345-.04.522-.124a1.31 1.31 0 0 0 .448-.373c.145-.17.246-.39.327-.67.08-.28.122-.613.122-1.004v-2.683h-.04zm8.971-3.676v1.705h.04c.242-.515.57-.954.985-1.327.414-.367.956-.56 1.63-.56.57 0 1.028.15 1.38.458.356.308.53.73.53 1.27 0 .402-.098.722-.296.955-.197.23-.512.34-.948.34a1.9 1.9 0 0 1-.848-.188c-.256-.13-.386-.37-.386-.723 0-.04.008-.11.025-.21.008-.103.025-.214.05-.325a7.256 7.256 0 0 0 .067-.476.93.93 0 0 0-.056-.253.552.552 0 0 0-.137-.165c-.055-.046-.15-.07-.268-.07-.14 0-.312.06-.51.19-.2.13-.394.316-.57.56-.173.246-.327.54-.457.88-.13.35-.19.736-.19 1.167v5.194h1.6v.29h-5.396v-.29h1.323v-8.14h-1.324v-.282h3.755zm5.457 2.78a4.8 4.8 0 0 1 .964-1.49 5.4 5.4 0 0 1 1.567-1.127c.614-.295 1.322-.44 2.133-.44.518 0 .984.052 1.406.16a3.79 3.79 0 0 1 1.086.452c.3.198.545.44.71.708.17.284.25.594.25.93 0 .447-.113.76-.347.944-.225.182-.555.27-.97.27-.315 0-.6-.058-.858-.172-.27-.112-.4-.353-.4-.718 0-.057.02-.15.046-.284.035-.138.07-.28.105-.43.033-.146.066-.286.102-.423.036-.14.05-.23.05-.284a.725.725 0 0 0-.353-.64c-.24-.163-.528-.24-.878-.24-.486 0-.873.12-1.162.346-.286.234-.504.54-.66.93-.154.382-.255.83-.3 1.334a15.906 15.906 0 0 0-.075 1.615c0 .525.02 1.053.062 1.58.04.528.15 1.015.324 1.443.172.434.43.787.77 1.06.34.268.798.404 1.387.404.548 0 1.018-.1 1.396-.294.383-.198.686-.43.913-.698a3.01 3.01 0 0 0 .514-.783c.12-.27.188-.46.213-.578l.287.1c-.06.244-.172.508-.312.797a2.85 2.85 0 0 1-.62.816c-.267.25-.62.46-1.046.64-.42.173-.964.264-1.61.264-.18 0-.424-.018-.743-.053a5.803 5.803 0 0 1-1.035-.22c-.37-.12-.746-.28-1.127-.48a4.24 4.24 0 0 1-1.044-.823 3.94 3.94 0 0 1-.77-1.268c-.198-.5-.294-1.098-.294-1.785a4.12 4.12 0 0 1 .32-1.565zm13.292-2.78v8.422h1.354v.29h-5.19v-.29h1.36v-8.14h-1.36v-.282h3.836zm-2.25-5.372c.28-.282.62-.43 1.012-.43.394 0 .73.147 1.015.43.285.284.427.62.427 1.012 0 .394-.142.73-.426 1.013-.283.29-.62.43-1.014.43-.39 0-.73-.14-1.012-.43a1.373 1.373 0 0 1-.43-1.013c.002-.393.143-.728.43-1.012zm13.546 14.266c-.358.054-.698.08-1.01.08-.69 0-1.2-.123-1.525-.36a1.552 1.552 0 0 1-.623-1.023h-.036c-.224.543-.517.908-.896 1.1-.38.188-.93.285-1.646.285-.322 0-.654-.035-.994-.104a3.693 3.693 0 0 1-.934-.322 1.86 1.86 0 0 1-.69-.622 1.723 1.723 0 0 1-.266-.964c0-.39.084-.72.235-.983.152-.262.358-.487.604-.668.255-.188.54-.33.852-.448.324-.114.648-.226.988-.333a49.12 49.12 0 0 0 1.35-.42c.346-.112.61-.234.803-.36.19-.133.318-.274.395-.44.068-.164.112-.372.112-.63V51.44c0-.364-.087-.694-.267-.996-.172-.297-.505-.45-.992-.45-.31 0-.582.077-.806.222-.238.135-.345.398-.345.776 0 .038.004.114.015.216.013.102.022.213.04.332.016.124.025.238.04.345.01.11.02.18.02.224 0 .204-.044.36-.14.474a.87.87 0 0 1-.336.253 1.02 1.02 0 0 1-.403.097c-.145 0-.262.01-.358.01a3 3 0 0 1-.417-.03.87.87 0 0 1-.649-.458c-.076-.132-.11-.316-.11-.545 0-.354.095-.664.29-.948.2-.273.457-.502.784-.688.325-.18.695-.322 1.104-.408.42-.104.848-.146 1.292-.146.512 0 1.004.032 1.45.12.456.077.843.232 1.177.44.33.22.6.515.796.888.195.375.293.845.293 1.413v5.028c0 .264.032.48.11.682.07.195.257.292.562.292.173 0 .32-.027.43-.097a1.41 1.41 0 0 0 .33-.283l.19.177a1.198 1.198 0 0 1-.822.506zm-3.324-5.218a.507.507 0 0 1-.148.236 1.78 1.78 0 0 1-.394.253c-.26.12-.52.24-.774.353-.258.114-.486.26-.69.435-.202.18-.37.396-.49.65-.138.263-.198.587-.198.993 0 .162.012.354.03.57.018.216.07.424.167.627.085.205.212.378.39.522.178.137.422.213.73.213.178 0 .346-.04.516-.124.164-.084.326-.206.46-.373.136-.17.242-.39.323-.67.077-.28.12-.613.12-1.004v-2.683h-.044z"/></svg>