<svg xmlns="http://www.w3.org/2000/svg" width="184.621" height="62.425" viewBox="20.19 6.825 184.621 62.425"><path d="M199.545 33.38c.605-.61 1.332-.915 2.174-.915.845 0 1.566.306 2.177.914.608.61.914 1.336.914 2.178 0 .846-.305 1.562-.913 2.154a2.992 2.992 0 0 1-2.178.896c-.843 0-1.57-.3-2.175-.896-.61-.593-.917-1.31-.917-2.154 0-.842.306-1.568.917-2.18z"/><path d="M20.19 7.828v-.613h25.73v7.448h-.568a21.833 21.833 0 0 0-1.33-2.83 8.906 8.906 0 0 0-1.673-2.155 6.764 6.764 0 0 0-2.242-1.372c-.86-.32-1.867-.478-3.027-.478h-6.573v14.017h2.438c1.073 0 1.98-.152 2.722-.453a4.974 4.974 0 0 0 1.848-1.31c.494-.566.9-1.25 1.22-2.048.32-.8.58-1.69.783-2.674h.566v13.536h-.566a24.522 24.522 0 0 0-.72-2.435 7.076 7.076 0 0 0-1.11-2.065 5.043 5.043 0 0 0-1.718-1.42c-.683-.348-1.53-.52-2.548-.52h-2.916v15.147h4.05v.608H20.19v-.608h4.004V7.828H20.19zm40.158 11.905a11.05 11.05 0 0 1 3.375 2.155 9.768 9.768 0 0 1 2.243 3.155 9.246 9.246 0 0 1 .804 3.81c0 1.363-.266 2.65-.804 3.853a9.817 9.817 0 0 1-2.243 3.158c-.957.898-2.082 1.607-3.375 2.132-1.292.52-2.69.776-4.198.776-1.51 0-2.91-.256-4.202-.776a10.801 10.801 0 0 1-3.373-2.132 9.787 9.787 0 0 1-2.243-3.158 9.305 9.305 0 0 1-.806-3.852c0-1.333.267-2.606.806-3.81a9.746 9.746 0 0 1 2.243-3.156c.958-.9 2.082-1.62 3.373-2.155 1.292-.535 2.693-.805 4.202-.805 1.51 0 2.907.27 4.198.805zm-1.545 17.675c.638-.537 1.112-1.242 1.416-2.114.304-.87.49-1.87.564-3.002a53.174 53.174 0 0 0 0-6.858c-.073-1.117-.26-2.11-.565-2.978-.305-.872-.778-1.575-1.417-2.113-.638-.537-1.52-.807-2.653-.807-1.132 0-2.017.27-2.654.807-.642.538-1.113 1.24-1.417 2.113-.305.867-.492 1.86-.566 2.98a49.667 49.667 0 0 0-.11 3.418c0 1.16.033 2.304.11 3.438.074 1.132.26 2.133.565 3.002.304.872.775 1.577 1.416 2.114.637.536 1.522.806 2.654.806 1.13 0 2.016-.27 2.653-.806zm18.851-17.872v13.8c0 1.104.218 2.042.652 2.81.434.77 1.203 1.154 2.308 1.154.666 0 1.276-.16 1.83-.48a4.578 4.578 0 0 0 1.415-1.283 6.215 6.215 0 0 0 .912-1.895c.218-.724.325-1.48.325-2.264v-11.23h-2.872v-.61h8.184v18.066h2.873v.608h-8.096v-3.524h-.09a4.741 4.741 0 0 1-1.044 1.68c-.464.476-.994.88-1.59 1.214a7.21 7.21 0 0 1-1.89.74c-.67.16-1.323.24-1.96.24-2.03 0-3.584-.443-4.66-1.33-1.07-.886-1.61-2.39-1.61-4.503V20.146H69.43v-.61h8.226zM99.55 37.604V20.147h-2.873v-.61h8.097v4.354h.088c.115-.264.318-.66.61-1.197.288-.538.708-1.066 1.26-1.59.556-.522 1.266-.98 2.136-1.37.87-.392 1.958-.585 3.264-.585 1.917 0 3.4.55 4.463 1.65 1.062 1.105 1.59 2.612 1.59 4.53V37.6h2.916v.608h-10.925V37.6h2.698V23.84c0-1.217-.25-2.108-.74-2.676-.493-.56-1.16-.85-2.002-.85a4.37 4.37 0 0 0-2.005.5c-.64.338-1.192.837-1.67 1.504-.48.665-.867 1.497-1.158 2.482-.288.985-.435 2.147-.435 3.48v9.316h2.742v.61H96.677v-.61h2.872v.006zm47.19 0v.607h-8.098v-3.22h-.088c-.467 1.22-1.11 2.153-1.938 2.808-.826.653-1.896.977-3.2.977-1.423 0-2.714-.27-3.872-.82a9.529 9.529 0 0 1-2.985-2.197 10.17 10.17 0 0 1-1.936-3.156 10.154 10.154 0 0 1-.697-3.744c0-1.016.183-2.105.543-3.27.363-1.16.93-2.23 1.7-3.218.77-.987 1.747-1.807 2.937-2.458 1.188-.654 2.63-.98 4.31-.98 1.306 0 2.365.305 3.178.914.812.61 1.438 1.52 1.872 2.74h.088V7.435h-2.96v-.61h8.27v30.778h2.875zm-8.338-11.8a13.252 13.252 0 0 0-.63-3.046c-.32-.93-.805-1.7-1.44-2.304-.64-.61-1.493-.918-2.568-.918-.726 0-1.343.162-1.85.48-.508.318-.923.843-1.24 1.567-.318.724-.544 1.69-.675 2.896-.132 1.204-.196 2.676-.196 4.416 0 1.42.033 2.707.11 3.856.07 1.146.23 2.125.478 2.935.24.813.604 1.44 1.084 1.873.48.438 1.127.653 1.938.653 1.223 0 2.17-.312 2.854-.938.684-.62 1.196-1.403 1.545-2.35.352-.943.56-1.96.63-3.05.07-1.083.11-2.083.11-2.98a33.69 33.69 0 0 0-.15-3.09zm17.086 3.442c0 1.045.043 2.097.13 3.155.087 1.06.32 2.02.698 2.872a5.284 5.284 0 0 0 1.65 2.112c.727.552 1.74.827 3.05.827 1.158 0 2.138-.217 2.94-.65.798-.435 1.45-.94 1.957-1.505.508-.564.887-1.12 1.133-1.678.245-.548.386-.956.412-1.217l.61.216c-.146.554-.395 1.142-.74 1.765a6.588 6.588 0 0 1-1.438 1.742c-.608.537-1.365.986-2.266 1.35-.898.36-1.986.542-3.268.542-1.51 0-2.916-.217-4.22-.668-1.31-.453-2.448-1.104-3.42-1.96-.973-.855-1.733-1.903-2.286-3.132-.553-1.238-.826-2.64-.826-4.205 0-1.248.26-2.467.78-3.658.526-1.19 1.24-2.24 2.158-3.155a10.892 10.892 0 0 1 3.222-2.22c1.232-.568 2.562-.85 3.983-.85 1.017 0 2.03.158 3.047.48 1.015.318 1.93.81 2.74 1.48.812.666 1.48 1.526 2.002 2.587.524 1.06.784 2.328.784 3.81h-12.84v1.96h.008v.002zm6.964-5.485c0-.317-.013-.71-.042-1.178a4.82 4.82 0 0 0-.305-1.39 2.684 2.684 0 0 0-.852-1.176c-.393-.32-.938-.48-1.632-.48-.986 0-1.75.234-2.284.7-.54.46-.938 1.052-1.194 1.762a8.66 8.66 0 0 0-.5 2.307c-.072.827-.127 1.62-.154 2.37h6.964v-2.914zm31.868 13.843v.607h-8.102v-3.22h-.09c-.462 1.22-1.103 2.153-1.937 2.808-.82.653-1.89.977-3.194.977-1.423 0-2.713-.27-3.873-.82-1.16-.555-2.156-1.284-2.98-2.197a10.026 10.026 0 0 1-1.938-3.156 10.298 10.298 0 0 1-.695-3.744c0-1.016.18-2.105.543-3.27.36-1.16.93-2.23 1.7-3.218.77-.987 1.747-1.807 2.938-2.458 1.19-.654 2.626-.98 4.312-.98 1.31 0 2.367.305 3.178.914.812.61 1.438 1.52 1.872 2.74h.085V7.435h-2.957v-.61h8.27v30.778h2.87zm-8.336-11.8a13.358 13.358 0 0 0-.63-3.046c-.323-.93-.805-1.7-1.44-2.304-.64-.61-1.494-.918-2.566-.918-.728 0-1.345.162-1.853.48-.507.318-.922.843-1.24 1.567-.32.724-.546 1.69-.674 2.896-.128 1.204-.193 2.676-.193 4.416 0 1.42.034 2.707.108 3.856.07 1.146.23 2.125.478 2.935.243.813.61 1.44 1.086 1.873.48.438 1.124.653 1.937.653 1.22 0 2.168-.312 2.853-.938.68-.62 1.196-1.403 1.543-2.35.352-.943.562-1.96.635-3.05.068-1.083.104-2.083.104-2.98 0-.955-.046-1.985-.148-3.09zM22.258 48.58v-.293h3.914v7.536h.042c.207-.584.505-1.022.895-1.31.39-.292.894-.44 1.52-.44.802 0 1.492.152 2.06.466.567.31 1.038.708 1.403 1.178.367.477.64.985.814 1.542.172.554.258 1.075.258 1.562a4.926 4.926 0 0 1-1.259 3.298c-.394.438-.87.788-1.425 1.052a4.267 4.267 0 0 1-1.852.396c-.625 0-1.137-.158-1.53-.47-.397-.312-.704-.76-.927-1.345h-.04v1.542h-3.873v-.293h1.374v-14.42H22.26zm3.967 11.69a5.19 5.19 0 0 0 .3 1.46c.168.447.413.82.74 1.12.328.3.78.447 1.364.447.386 0 .695-.104.925-.313.227-.207.402-.506.52-.895.12-.39.196-.856.23-1.403.035-.547.052-1.162.052-1.844 0-.833-.033-1.535-.093-2.11-.064-.576-.17-1.035-.324-1.388-.154-.347-.347-.597-.582-.748-.236-.154-.535-.23-.895-.23-.515 0-.923.148-1.23.438a2.776 2.776 0 0 0-.687 1.107c-.15.44-.253.93-.3 1.456-.05.528-.074 1.02-.074 1.48 0 .424.017.9.053 1.42zm16.29-5.615h-1.73v-.29h3.02v.29h-.96a131.772 131.772 0 0 0-1.996 4.477 188.95 188.95 0 0 0-1.45 3.52c-.406 1.03-.768 1.933-1.08 2.717a42.551 42.551 0 0 1-.886 2.068c-.278.623-.592 1.08-.936 1.375-.35.29-.812.437-1.396.437-.625 0-1.133-.15-1.53-.446-.396-.3-.593-.712-.593-1.236 0-.4.127-.694.384-.877.257-.18.565-.27.927-.27.263 0 .515.074.75.222.235.145.354.362.354.655 0 .248-.046.452-.138.603a1.04 1.04 0 0 0-.135.54c0 .155.046.272.128.348.083.073.18.116.292.116.25 0 .484-.096.698-.272a3.02 3.02 0 0 0 .582-.676c.17-.27.325-.562.457-.864.133-.305.247-.583.345-.833l.892-2.228-3.912-9.37h-1.104v-.292h5.286v.29h-1.457l2.54 6.018 2.648-6.023zm18.151-1.931c-.36-1.358-.904-2.418-1.625-3.176-.722-.756-1.684-1.13-2.89-1.115-.962 0-1.73.188-2.313.553a3.82 3.82 0 0 0-1.344 1.438 5.819 5.819 0 0 0-.61 2.02c-.098.757-.15 1.522-.15 2.302v1.81c0 1.263.082 2.327.252 3.188.165.857.425 1.55.78 2.08.35.525.81.904 1.373 1.134.562.228 1.232.344 2.013.344.638 0 1.143-.116 1.518-.344a2.3 2.3 0 0 0 .864-.938c.204-.396.33-.862.385-1.403a17.37 17.37 0 0 0 .083-1.772v-.79h-2.145v-.295h6.432v.293h-1.352v4.767h-.376a.492.492 0 0 0-.24-.362.855.855 0 0 0-.445-.113c-.334 0-.652.063-.95.196-.297.133-.622.272-.965.426-.35.154-.747.294-1.2.43-.45.13-.995.196-1.634.196A7.5 7.5 0 0 1 53.193 63a8.086 8.086 0 0 1-2.487-1.625 7.99 7.99 0 0 1-1.717-2.424c-.434-.935-.644-1.937-.644-3.02 0-1.182.238-2.247.714-3.206a8.262 8.262 0 0 1 4.351-4.029c.92-.364 1.827-.55 2.715-.55.417 0 .82.042 1.21.122.388.086.75.174 1.083.26.332.095.63.182.894.265.264.082.485.124.665.124.194 0 .336-.03.418-.096.083-.062.16-.178.23-.34h.352v4.244h-.31zM73.27 63.48a6.43 6.43 0 0 1-1.03.085c-.71 0-1.233-.125-1.574-.373a1.61 1.61 0 0 1-.633-1.043h-.043c-.224.556-.528.932-.916 1.124-.388.194-.952.29-1.686.29a4.95 4.95 0 0 1-1.022-.103 3.46 3.46 0 0 1-.955-.333c-.29-.15-.525-.36-.706-.633-.18-.272-.27-.6-.27-.993 0-.395.08-.735.238-1.01.16-.27.365-.494.624-.683.256-.19.547-.34.873-.46.327-.12.662-.23 1.01-.345.57-.166 1.03-.312 1.382-.43.355-.117.63-.24.822-.37.197-.136.332-.28.41-.45.076-.168.113-.38.113-.645v-1.27c0-.377-.09-.716-.272-1.02-.18-.312-.52-.464-1.02-.464-.318 0-.596.074-.833.227-.235.143-.352.41-.352.798 0 .04.004.113.02.222.013.103.028.217.04.342l.042.354c.015.107.02.186.02.23 0 .208-.047.372-.143.49a.966.966 0 0 1-.345.257c-.133.06-.272.09-.416.1-.146.003-.27.01-.364.01-.14 0-.284-.01-.43-.033a.867.867 0 0 1-.385-.144.983.983 0 0 1-.28-.326c-.074-.136-.115-.32-.115-.562 0-.36.1-.684.302-.97.2-.282.468-.52.803-.706.332-.188.71-.33 1.135-.427.42-.1.865-.146 1.322-.146.527 0 1.022.036 1.487.122.465.08.867.236 1.208.455.34.226.613.524.813.91.198.383.3.86.3 1.444v5.162c0 .268.04.497.115.697.077.2.267.3.57.3.18 0 .332-.032.45-.103.117-.066.23-.166.342-.293l.186.188c-.19.304-.473.48-.84.53zm-3.406-5.348a.585.585 0 0 1-.155.24 1.62 1.62 0 0 1-.407.263c-.264.124-.528.247-.79.362-.265.12-.502.27-.71.447-.207.183-.376.4-.51.666-.13.266-.194.604-.194 1.02 0 .167.007.36.03.586.02.22.074.436.163.643.092.213.226.39.407.532.18.144.43.22.75.22a1.288 1.288 0 0 0 .998-.513c.14-.174.248-.4.335-.685.08-.288.124-.63.124-1.03V58.13h-.043zm9.203-3.768v1.75h.042c.246-.527.584-.98 1.01-1.36.42-.382.978-.576 1.675-.576.58 0 1.05.156 1.412.47.363.313.542.748.542 1.304 0 .415-.1.74-.3.98-.205.23-.526.352-.97.352-.318 0-.608-.063-.874-.194-.264-.132-.395-.38-.395-.742 0-.037.008-.113.02-.215.014-.105.032-.22.055-.334a12.725 12.725 0 0 0 .07-.487 1.039 1.039 0 0 0-.06-.262.488.488 0 0 0-.136-.168.47.47 0 0 0-.282-.075c-.138 0-.313.067-.525.2-.203.132-.4.323-.578.574-.18.25-.34.553-.47.9a3.409 3.409 0 0 0-.195 1.197v5.33h1.643v.292h-5.538v-.294h1.354v-8.35h-1.355v-.29l3.852-.002zm5.598 2.854c.22-.553.55-1.062.99-1.53a5.42 5.42 0 0 1 1.603-1.152c.63-.306 1.363-.457 2.194-.457.528 0 1.007.055 1.436.166.43.11.804.265 1.115.467.312.2.558.445.73.727.175.29.26.604.26.95 0 .462-.12.78-.356.97-.233.188-.568.283-1 .283a2.17 2.17 0 0 1-.88-.18c-.273-.118-.41-.363-.41-.738 0-.056.018-.154.05-.293.038-.14.073-.283.108-.438s.07-.295.103-.438a1.42 1.42 0 0 0 .053-.287c0-.282-.12-.5-.363-.657-.24-.16-.544-.24-.903-.24-.5 0-.896.122-1.187.353a2.298 2.298 0 0 0-.678.95 4.765 4.765 0 0 0-.315 1.37 18.442 18.442 0 0 0-.072 1.656c0 .54.02 1.078.062 1.62.042.546.154 1.036.333 1.478.18.445.444.808.792 1.083.345.276.817.417 1.416.417.568 0 1.048-.104 1.435-.302.392-.203.7-.438.938-.712.237-.27.414-.537.53-.81.12-.27.19-.47.22-.593l.29.104c-.07.25-.18.52-.323.818-.146.3-.356.577-.636.836a3.55 3.55 0 0 1-1.072.654c-.437.18-.988.27-1.655.27-.18 0-.435-.017-.76-.052a5.276 5.276 0 0 1-1.06-.23 6.502 6.502 0 0 1-1.157-.488 4.081 4.081 0 0 1-1.07-.844 3.969 3.969 0 0 1-.79-1.304c-.206-.51-.306-1.125-.306-1.828 0-.508.112-1.047.335-1.6zm13.63-2.854v8.64h1.396v.293h-5.326v-.293h1.394v-8.35h-1.394v-.29h3.93zm-2.31-5.51c.295-.29.64-.44 1.042-.44s.75.15 1.04.44c.296.29.44.637.44 1.04 0 .4-.147.746-.44 1.04a1.412 1.412 0 0 1-1.04.437c-.4 0-.747-.145-1.04-.437a1.424 1.424 0 0 1-.437-1.04c.002-.408.145-.75.436-1.04zm13.898 14.626c-.367.06-.713.085-1.03.085-.708 0-1.23-.125-1.568-.373-.347-.254-.554-.596-.642-1.043h-.037c-.225.556-.53.932-.916 1.124-.39.194-.953.29-1.688.29-.33 0-.67-.03-1.02-.103-.346-.066-.666-.182-.957-.333s-.528-.36-.71-.633c-.18-.272-.27-.6-.27-.993 0-.395.08-.735.24-1.01.16-.27.366-.494.622-.683.258-.19.55-.34.874-.46.328-.12.664-.23 1.012-.345.568-.166 1.03-.312 1.387-.43.353-.117.624-.24.82-.37.192-.136.33-.28.404-.45a1.58 1.58 0 0 0 .114-.645v-1.27c0-.377-.09-.716-.27-1.02-.184-.312-.522-.464-1.022-.464-.32 0-.6.074-.832.227-.237.143-.354.41-.354.798 0 .04.007.113.02.222.013.103.025.217.044.342.012.125.025.244.04.354.013.107.02.186.02.23 0 .208-.05.372-.146.49a.908.908 0 0 1-.347.257c-.127.06-.27.09-.412.1-.146.003-.27.01-.367.01-.136 0-.277-.01-.423-.033a.888.888 0 0 1-.388-.144.94.94 0 0 1-.28-.326c-.077-.136-.116-.32-.116-.562 0-.36.102-.684.3-.97.204-.282.472-.52.805-.706.333-.188.71-.33 1.134-.427.427-.1.865-.146 1.32-.146.528 0 1.024.036 1.49.122.466.08.866.236 1.206.455.34.226.613.524.812.91.2.383.3.86.3 1.444v5.162c0 .268.04.497.114.697.08.2.27.3.575.3a.84.84 0 0 0 .445-.103c.12-.066.23-.166.344-.293l.188.188a1.11 1.11 0 0 1-.835.53zm-3.406-5.348a.532.532 0 0 1-.156.24c-.072.08-.208.165-.4.263-.264.124-.528.247-.793.362a2.92 2.92 0 0 0-.707.447c-.21.183-.38.4-.508.666-.136.266-.2.604-.2 1.02 0 .167.01.36.032.586.02.22.075.436.168.643.09.213.225.39.4.532.186.144.435.22.75.22.183 0 .356-.042.532-.128.172-.08.328-.21.47-.385.138-.174.25-.4.333-.685.08-.288.123-.63.123-1.03V58.13h-.043z" fill="#231F20"/></svg>