<svg xmlns="http://www.w3.org/2000/svg" width="184.621" height="62.424" viewBox="20.19 6.825 184.621 62.424"><path fill="#FFD088" d="M199.545 33.38c.605-.61 1.332-.915 2.174-.915.845 0 1.566.306 2.177.914.608.61.914 1.336.914 2.178 0 .845-.305 1.562-.913 2.154-.61.597-1.332.896-2.178.896-.843 0-1.57-.298-2.175-.896-.61-.593-.917-1.31-.917-2.154 0-.842.306-1.568.917-2.18z"/><path d="M20.19 7.828v-.613h25.73v7.448h-.568a21.833 21.833 0 0 0-1.33-2.83 8.906 8.906 0 0 0-1.673-2.155 6.764 6.764 0 0 0-2.242-1.372c-.86-.32-1.867-.478-3.027-.478h-6.573v14.017h2.438c1.073 0 1.98-.152 2.722-.453a4.974 4.974 0 0 0 1.848-1.31c.494-.566.9-1.25 1.22-2.048.32-.8.58-1.69.783-2.674h.566v13.536h-.566a24.522 24.522 0 0 0-.72-2.435 7.076 7.076 0 0 0-1.11-2.065 5.043 5.043 0 0 0-1.718-1.42c-.683-.348-1.53-.52-2.548-.52h-2.916v15.148h4.05v.61H20.19v-.61h4.004V7.828H20.19zm40.158 11.905a11.05 11.05 0 0 1 3.375 2.155 9.768 9.768 0 0 1 2.243 3.155 9.246 9.246 0 0 1 .804 3.81c0 1.363-.266 2.65-.804 3.853a9.817 9.817 0 0 1-2.243 3.158c-.957.898-2.082 1.608-3.375 2.132-1.292.52-2.69.777-4.198.777-1.51 0-2.91-.256-4.202-.777a10.82 10.82 0 0 1-3.373-2.132 9.787 9.787 0 0 1-2.243-3.158 9.305 9.305 0 0 1-.806-3.852c0-1.333.267-2.606.806-3.81a9.746 9.746 0 0 1 2.243-3.156c.958-.9 2.082-1.62 3.373-2.155 1.292-.535 2.693-.805 4.202-.805 1.51 0 2.907.27 4.198.805zm-1.545 17.675c.638-.537 1.112-1.242 1.416-2.114.304-.87.49-1.87.564-3.002a53.174 53.174 0 0 0 0-6.858c-.073-1.117-.26-2.11-.565-2.978-.305-.872-.778-1.575-1.417-2.113-.638-.537-1.522-.807-2.653-.807-1.132 0-2.017.27-2.654.807-.642.538-1.113 1.24-1.417 2.113-.305.867-.492 1.86-.566 2.98a49.667 49.667 0 0 0-.11 3.418c0 1.16.033 2.304.11 3.438.074 1.132.26 2.133.565 3.002.304.872.775 1.577 1.416 2.114.637.536 1.522.806 2.654.806 1.13 0 2.016-.27 2.653-.806zm18.851-17.872v13.8c0 1.104.218 2.042.652 2.81.434.77 1.203 1.154 2.308 1.154.666 0 1.276-.16 1.83-.48a4.61 4.61 0 0 0 1.415-1.285 6.226 6.226 0 0 0 .912-1.893c.218-.724.325-1.48.325-2.264v-11.23h-2.872v-.61h8.184v18.067h2.873v.61h-8.096v-3.527h-.09a4.723 4.723 0 0 1-1.044 1.68c-.464.476-.994.88-1.59 1.214a7.21 7.21 0 0 1-1.89.74c-.67.16-1.323.24-1.96.24-2.03 0-3.584-.443-4.66-1.328-1.07-.888-1.61-2.39-1.61-4.505V20.146H69.43v-.61h8.226zM99.55 37.604V20.147h-2.873v-.61h8.096v4.354h.09c.114-.264.316-.66.608-1.197.29-.538.71-1.066 1.263-1.59.553-.522 1.263-.98 2.133-1.37.87-.392 1.958-.585 3.264-.585 1.917 0 3.4.55 4.463 1.65 1.062 1.105 1.59 2.612 1.59 4.53v12.275h2.915v.61h-10.925v-.61h2.698v-13.76c0-1.217-.248-2.108-.74-2.676-.493-.56-1.16-.85-2-.85a4.36 4.36 0 0 0-2.007.5c-.64.338-1.194.837-1.67 1.504-.48.666-.867 1.498-1.158 2.483-.288.985-.433 2.147-.433 3.48V37.6h2.742v.61H96.677v-.61h2.872v.004zm47.19 0v.61h-8.098V34.99h-.088c-.465 1.22-1.11 2.154-1.938 2.808-.826.653-1.896.976-3.2.976-1.423 0-2.714-.27-3.872-.82a9.516 9.516 0 0 1-2.985-2.198 10.156 10.156 0 0 1-1.936-3.158 10.148 10.148 0 0 1-.697-3.742c0-1.016.183-2.105.543-3.27.363-1.16.93-2.23 1.7-3.218.77-.987 1.747-1.807 2.937-2.458 1.19-.654 2.63-.98 4.31-.98 1.306 0 2.365.305 3.178.914.812.61 1.438 1.52 1.872 2.74h.088V7.436h-2.96v-.612h8.27v30.78h2.875zm-8.338-11.8a13.252 13.252 0 0 0-.63-3.046c-.32-.93-.803-1.7-1.44-2.304-.64-.61-1.493-.918-2.568-.918-.726 0-1.343.162-1.85.48-.508.318-.923.843-1.24 1.567-.318.724-.544 1.69-.675 2.896-.132 1.204-.196 2.676-.196 4.416 0 1.42.033 2.707.11 3.856.07 1.146.23 2.125.478 2.934.243.814.606 1.44 1.084 1.874.482.436 1.127.653 1.938.653 1.223 0 2.17-.312 2.854-.938.682-.622 1.196-1.405 1.545-2.35.35-.943.558-1.96.63-3.05.07-1.083.11-2.083.11-2.98a33.69 33.69 0 0 0-.15-3.09zm17.086 3.442c0 1.045.043 2.097.13 3.155.087 1.06.32 2.02.698 2.873a5.288 5.288 0 0 0 1.65 2.113c.727.55 1.743.827 3.05.827 1.16 0 2.138-.218 2.94-.653.798-.433 1.45-.937 1.957-1.505.508-.564.887-1.12 1.133-1.676.245-.55.386-.957.412-1.218l.61.216c-.146.552-.393 1.14-.74 1.763-.35.628-.827 1.206-1.438 1.744-.608.537-1.365.986-2.264 1.35-.9.36-1.988.54-3.266.54-1.51 0-2.916-.217-4.22-.668-1.31-.452-2.448-1.104-3.42-1.96-.973-.855-1.733-1.903-2.286-3.13-.553-1.24-.826-2.64-.826-4.205 0-1.246.26-2.465.78-3.656.526-1.19 1.24-2.24 2.158-3.155a10.898 10.898 0 0 1 3.222-2.222c1.232-.567 2.562-.85 3.983-.85 1.018 0 2.032.16 3.048.48 1.015.32 1.93.812 2.74 1.48.812.667 1.48 1.527 2.002 2.588.524 1.06.784 2.328.784 3.81h-12.842v1.96h.006zm6.964-5.485c0-.317-.013-.71-.042-1.178a4.82 4.82 0 0 0-.305-1.39 2.696 2.696 0 0 0-.85-1.176c-.392-.32-.938-.48-1.632-.48-.987 0-1.75.234-2.285.7-.54.46-.937 1.052-1.196 1.762a8.74 8.74 0 0 0-.5 2.307c-.072.827-.127 1.62-.154 2.37h6.964v-2.914zm31.868 13.843v.61h-8.1V34.99h-.09c-.462 1.22-1.105 2.154-1.937 2.808-.823.653-1.89.976-3.196.976-1.423 0-2.713-.27-3.873-.82a9.45 9.45 0 0 1-2.98-2.198 10.055 10.055 0 0 1-1.94-3.158 10.291 10.291 0 0 1-.695-3.742c0-1.016.18-2.105.542-3.27.36-1.16.93-2.23 1.7-3.218.77-.987 1.747-1.807 2.938-2.458 1.188-.654 2.625-.98 4.31-.98 1.308 0 2.366.305 3.177.914.812.61 1.438 1.52 1.872 2.74h.084V7.436h-2.957v-.612h8.268v30.78h2.875zm-8.336-11.8a13.358 13.358 0 0 0-.63-3.046c-.323-.93-.803-1.7-1.44-2.304-.64-.61-1.494-.918-2.566-.918-.728 0-1.345.162-1.853.48-.507.318-.922.843-1.24 1.567-.32.724-.546 1.69-.674 2.896-.128 1.204-.193 2.676-.193 4.416 0 1.42.034 2.707.108 3.856.07 1.146.23 2.125.478 2.934.243.814.61 1.44 1.086 1.874.48.436 1.124.653 1.937.653 1.22 0 2.168-.312 2.853-.938.68-.622 1.196-1.405 1.543-2.35.35-.943.56-1.96.635-3.05.068-1.083.104-2.083.104-2.98 0-.955-.046-1.985-.148-3.09zM22.258 48.58v-.293h3.914v7.536h.042c.207-.584.505-1.022.895-1.31.39-.29.894-.438 1.52-.438.802 0 1.492.153 2.06.465.567.313 1.038.71 1.403 1.18.367.474.64.984.814 1.54.172.553.258 1.076.258 1.563 0 .625-.113 1.22-.332 1.79a4.793 4.793 0 0 1-.927 1.508c-.394.44-.87.79-1.425 1.053a4.281 4.281 0 0 1-1.852.396c-.625 0-1.137-.16-1.53-.47-.397-.314-.704-.76-.927-1.345h-.04v1.542h-3.873v-.293h1.374V48.58H22.26zm3.967 11.688c.033.52.134 1.006.3 1.46.168.45.413.822.74 1.122.328.3.78.447 1.364.447.386 0 .695-.104.925-.314.227-.207.402-.506.52-.894.12-.39.196-.857.23-1.404.035-.547.052-1.162.052-1.843 0-.833-.033-1.536-.093-2.112-.064-.575-.17-1.034-.324-1.385-.154-.347-.347-.597-.582-.75-.236-.153-.535-.23-.895-.23-.515 0-.923.15-1.23.438a2.762 2.762 0 0 0-.687 1.107c-.15.442-.253.93-.3 1.456-.05.53-.074 1.02-.074 1.48 0 .427.017.903.053 1.422zm16.29-5.613h-1.73v-.29h3.02v.29h-.96a132.662 132.662 0 0 0-1.996 4.477 188.95 188.95 0 0 0-1.45 3.52c-.406 1.03-.768 1.933-1.08 2.717a42.551 42.551 0 0 1-.886 2.068c-.278.623-.592 1.08-.936 1.375-.35.29-.812.437-1.396.437-.625 0-1.133-.15-1.53-.446-.396-.3-.593-.712-.593-1.236 0-.402.127-.696.384-.877.257-.18.565-.27.927-.27.263 0 .515.074.75.22.235.145.354.364.354.657 0 .248-.046.452-.138.602-.09.15-.135.333-.135.54 0 .155.046.27.128.346a.43.43 0 0 0 .292.117c.25 0 .484-.096.698-.273.212-.182.408-.404.582-.676.17-.27.325-.56.457-.864.133-.305.247-.583.345-.833l.892-2.227-3.912-9.37h-1.104v-.29h5.286v.29h-1.457l2.54 6.017 2.648-6.022zm18.151-1.932c-.36-1.36-.904-2.418-1.625-3.175-.722-.756-1.684-1.13-2.89-1.116-.962 0-1.73.188-2.313.553a3.805 3.805 0 0 0-1.344 1.438 5.799 5.799 0 0 0-.61 2.02c-.098.755-.15 1.522-.15 2.3v1.81c0 1.263.082 2.327.252 3.188.165.858.425 1.552.78 2.08.35.526.81.905 1.373 1.135.562.228 1.232.344 2.013.344.638 0 1.143-.117 1.518-.345a2.3 2.3 0 0 0 .864-.938c.204-.396.33-.863.385-1.404S59 59.48 59 58.843v-.79h-2.145v-.293h6.432v.293h-1.352v4.766h-.376a.492.492 0 0 0-.24-.364.855.855 0 0 0-.445-.113c-.334 0-.652.063-.95.196-.297.13-.622.27-.965.424-.35.154-.747.294-1.2.428-.45.13-.995.198-1.634.198a7.519 7.519 0 0 1-2.934-.593 8.048 8.048 0 0 1-2.487-1.624 7.979 7.979 0 0 1-1.717-2.424c-.434-.936-.644-1.94-.644-3.02 0-1.182.238-2.248.714-3.207a8.262 8.262 0 0 1 4.351-4.029c.92-.365 1.827-.55 2.715-.55.417 0 .82.042 1.21.122.388.086.75.174 1.083.26.332.094.63.18.894.264.264.082.485.124.665.124.194 0 .336-.03.418-.095.083-.063.16-.18.23-.34h.352v4.243h-.31zM73.27 63.482c-.37.058-.714.084-1.03.084-.71 0-1.233-.125-1.574-.373a1.61 1.61 0 0 1-.633-1.043h-.043c-.224.556-.528.932-.916 1.125-.388.195-.952.29-1.686.29-.334 0-.674-.032-1.022-.103a3.495 3.495 0 0 1-.955-.334 1.87 1.87 0 0 1-.706-.633c-.18-.273-.27-.6-.27-.993 0-.397.08-.737.238-1.01.16-.27.365-.495.624-.683.256-.19.547-.34.873-.46.327-.12.662-.233 1.01-.345.57-.166 1.03-.312 1.382-.43.355-.117.63-.24.822-.37.197-.135.332-.28.41-.45.076-.168.113-.38.113-.645v-1.268c0-.377-.09-.716-.272-1.02-.18-.31-.52-.463-1.02-.463-.318 0-.596.073-.833.224-.235.14-.352.41-.352.798 0 .04.004.113.02.22.013.103.028.217.04.342l.042.355c.015.107.02.183.02.226 0 .21-.047.373-.143.49a.924.924 0 0 1-.345.258c-.133.06-.272.09-.416.1-.146.003-.27.01-.364.01-.14 0-.284-.01-.43-.033a.89.89 0 0 1-.385-.143.983.983 0 0 1-.28-.326c-.074-.135-.115-.32-.115-.56 0-.36.1-.683.302-.972.2-.28.468-.516.803-.705.332-.188.71-.33 1.135-.425.42-.1.865-.146 1.322-.146a8.18 8.18 0 0 1 1.487.124c.465.08.867.236 1.208.455.34.226.613.526.813.91.198.384.3.862.3 1.446v5.16c0 .268.04.498.115.7.077.2.267.3.57.3.18 0 .332-.033.45-.104.117-.068.23-.166.342-.293l.186.187c-.19.3-.473.473-.84.525zm-3.406-5.35a.585.585 0 0 1-.155.24 1.62 1.62 0 0 1-.407.263c-.264.124-.528.247-.79.362a2.97 2.97 0 0 0-.71.448 2.17 2.17 0 0 0-.51.666c-.13.266-.194.605-.194 1.02 0 .167.007.36.03.586.02.22.074.435.163.642.092.213.226.39.407.533.18.144.43.222.75.222.18 0 .354-.043.53-.13.174-.08.33-.208.468-.384.14-.172.248-.4.335-.683.08-.288.124-.63.124-1.03V58.13h-.043zm9.203-3.768v1.75h.042c.246-.527.584-.98 1.01-1.36.42-.382.978-.576 1.675-.576.58 0 1.05.156 1.412.47.363.313.542.747.542 1.302 0 .415-.1.74-.3.98-.205.23-.526.35-.97.35-.318 0-.608-.062-.874-.193-.264-.132-.395-.38-.395-.743 0-.037.008-.113.02-.214.014-.106.032-.22.055-.334a11.473 11.473 0 0 0 .07-.487.998.998 0 0 0-.06-.262.476.476 0 0 0-.136-.17.478.478 0 0 0-.282-.074c-.138 0-.313.067-.525.2-.203.132-.4.323-.578.574a3.8 3.8 0 0 0-.47.9 3.414 3.414 0 0 0-.195 1.198v5.33h1.643v.292h-5.538v-.293h1.354v-8.35h-1.355v-.29h3.852zm5.598 2.854c.22-.553.55-1.063.99-1.53.437-.46.972-.85 1.603-1.154.63-.305 1.363-.457 2.194-.457.528 0 1.007.056 1.436.167.43.112.804.265 1.115.467.312.2.558.446.73.727.175.29.26.605.26.95 0 .462-.12.78-.356.97-.233.187-.568.283-1 .283-.318 0-.61-.062-.88-.178-.273-.12-.41-.365-.41-.74 0-.055.018-.154.05-.293.038-.14.073-.284.108-.44s.07-.294.103-.437c.035-.14.053-.233.053-.288a.74.74 0 0 0-.363-.656c-.24-.163-.544-.243-.903-.243-.5 0-.896.123-1.187.354-.293.24-.518.556-.678.952a4.747 4.747 0 0 0-.315 1.372 18.37 18.37 0 0 0-.072 1.655c0 .54.02 1.08.062 1.62a4.94 4.94 0 0 0 .333 1.48c.18.444.444.806.792 1.082.345.276.817.417 1.416.417.568 0 1.048-.105 1.435-.303.392-.203.7-.438.938-.712.237-.268.414-.537.53-.81.12-.27.19-.467.22-.59l.29.103c-.07.25-.18.52-.323.82-.146.3-.356.577-.636.836a3.61 3.61 0 0 1-1.072.653c-.437.18-.988.27-1.655.27-.18 0-.435-.017-.76-.052a5.492 5.492 0 0 1-1.06-.23 6.502 6.502 0 0 1-1.157-.488 4.081 4.081 0 0 1-1.07-.844 3.969 3.969 0 0 1-.79-1.304c-.206-.51-.306-1.126-.306-1.83 0-.51.112-1.05.335-1.602zm13.63-2.854v8.64h1.396v.293h-5.326v-.293h1.394v-8.35h-1.394v-.29h3.93zm-2.308-5.512c.293-.29.64-.438 1.04-.438.403 0 .75.15 1.042.438.293.29.438.637.438 1.04 0 .4-.145.747-.44 1.04-.29.293-.638.438-1.04.438s-.748-.146-1.04-.438a1.423 1.423 0 0 1-.436-1.04c0-.406.144-.75.435-1.04zm13.896 14.63a6.623 6.623 0 0 1-1.03.084c-.708 0-1.232-.125-1.57-.373-.345-.254-.553-.596-.64-1.043h-.037c-.225.556-.53.932-.917 1.125-.39.195-.954.29-1.69.29-.33 0-.67-.032-1.017-.103-.346-.068-.667-.182-.958-.334s-.53-.36-.71-.633c-.178-.273-.27-.6-.27-.993 0-.397.082-.737.24-1.01.16-.27.368-.495.623-.683.258-.19.55-.34.874-.46.327-.12.664-.233 1.01-.345.57-.166 1.03-.312 1.387-.43.352-.117.624-.24.82-.37.194-.135.33-.28.405-.45.075-.168.115-.38.115-.645v-1.268c0-.377-.09-.716-.27-1.02-.182-.31-.52-.463-1.02-.463-.32 0-.6.073-.832.224-.238.14-.354.41-.354.798 0 .04.007.113.02.22.012.103.026.217.044.342.01.125.026.244.038.355.014.107.023.183.023.226 0 .21-.052.373-.147.49a.862.862 0 0 1-.346.258c-.128.06-.27.09-.414.1-.146.003-.27.01-.366.01-.137 0-.28-.01-.424-.033a.898.898 0 0 1-.388-.143.95.95 0 0 1-.28-.326c-.077-.135-.115-.32-.115-.56 0-.36.1-.683.3-.972.204-.28.47-.516.803-.705.334-.188.71-.33 1.135-.425a5.75 5.75 0 0 1 1.32-.146c.53 0 1.026.038 1.49.124a3.2 3.2 0 0 1 1.207.455c.34.226.613.526.813.91.2.384.3.862.3 1.446v5.16c0 .268.04.498.114.7.08.2.27.3.575.3.18 0 .328-.033.445-.104.12-.068.232-.166.343-.293l.19.187c-.194.3-.476.473-.842.525zm-3.406-5.35a.568.568 0 0 1-.156.24c-.074.08-.21.165-.403.263a29.39 29.39 0 0 1-.792.362c-.263.12-.502.27-.707.448-.21.182-.38.4-.508.666-.135.266-.2.605-.2 1.02 0 .167.01.36.032.586.02.22.077.435.168.642.09.213.225.39.403.533.183.144.432.222.75.222.18 0 .355-.043.53-.13.173-.08.33-.208.47-.384.137-.172.25-.4.333-.683.08-.288.123-.63.123-1.03V58.13h-.043z" fill="#231F20"/></svg>