<svg xmlns="http://www.w3.org/2000/svg" width="296.008" height="35.854" viewBox="0 0 296.008 35.854"><path d="M131.198 13.177c.656-.045 1.148-.062 1.638-.122.236-.03.453-.077.68.053.088.05.22.04.333.03.436-.028.87-.066 1.31-.103.262-.02.524-.04.786-.073 1.28-.17 2.555-.375 3.836-.513 1.196-.13 2.382-.3 3.56-.548.228-.048.467-.048.698-.085.283-.045.45.11.563.33.167.314.255.654.228 1.018-.03.385-.218.664-.586.636-.465-.032-.774.165-1.097.44-.2.17-.42.335-.66.432-.398.162-.59.456-.71.902.39.043.704-.105 1.002-.262a9.921 9.921 0 0 1 2.03-.803c.532-.144 1.038-.387 1.558-.584.438-.166.88-.317 1.312-.494.187-.076.39-.163.524-.304.234-.247.478-.26.795-.217.364.05.745 0 1.132-.005.273.525.543.98.486 1.587-.066.69-.19 1.346-.658 1.873a1.16 1.16 0 0 0-.303.88c.02.38-.01.758-.017 1.144.37.35.748.56 1.274.43.278-.07.58-.028.87-.06.34-.035.676.025 1.027-.106.38-.142.812-.095 1.134.22l1.24-.602c.22-.62.71-1.125.836-1.81.02-.102.133-.188.215-.27s.213-.136.262-.233c.455-.898 1.39-1.22 2.13-1.774.296-.225.673-.34 1.015-.507.026-.014.062-.014.084-.03.488-.402 1.05-.55 1.68-.624.572-.065 1.126-.295 1.714-.362.49-.055.967-.208 1.475-.206.6.005 1.062.225 1.22.907.05.197.12.39.192.615-.09.133-.192.27-.278.423-.525.926-.524.927-1.5 1.236-.083.272-.103.64-.536.66-.057.002-.144.026-.158.063-.23.52-.793.55-1.19.82-.386.26-.786.503-1.19.74-.5.297-1.013.578-1.517.875-.092.056-.16.147-.282.26.125.058.194.115.262.11.35-.018.704-.027 1.047-.096.256-.05.496-.177.742-.276.134-.055.26-.146.397-.18.31-.072.64-.08.936-.187.27-.1.488-.35.758-.43.446-.126.785-.398 1.11-.687.457-.404.828-.912 1.445-1.115.096-.032.184-.152.233-.25.36-.706 1.024-1.216 1.278-1.99.918-1.093 1.597-2.392 2.8-3.24.366-.258.64-.59.702-1.064a.724.724 0 0 1 .2-.376c.798-.774 1.612-1.53 2.408-2.306.776-.758 1.688-1.344 2.5-2.06a3 3 0 0 1 .976-.582c.29-.102.63-.052.947-.068l.794.803c-.29.626-.38 1.354-1.098 1.71-.093.045-.21.166-.21.254-.008.325-.212.447-.463.573-.144.072-.25.225-.365.346-.138.143-.27.295-.403.44-.06.063-.178.11-.185.174-.083.802-.875 1.13-1.192 1.787-.168.346-.578.567-.86.86-.45.46-.88.938-1.32 1.403-.18.192-.353.396-.555.56-.363.293-.81.492-.997.962-.81.496-1.283 1.34-2.01 1.926-.49.397-.79.934-.688 1.624.046.316.034.646.025.968-.012.388.06.753.183 1.12.12.36.18.74.28 1.105.11.41.046.783-.118 1.18-.162.39-.374.65-.838.708-.336-.192-.685-.393-.853-.812-.05-.128-.18-.228-.28-.33-.477-.48-.7-1.072-.765-1.732-.033-.344-.037-.343-.343-.83-.17.082-.376.13-.516.256a1.81 1.81 0 0 1-.766.408c-.7.184-1.328.57-2.03.766-.247.067-.48.232-.685.393-.396.305-.853.38-1.322.388-.847.02-1.695.022-2.544.01-.482-.008-.91-.15-1.242-.554-.236-.29-.54-.524-.814-.78-.32.04-.588.15-.812.346-.234.206-.517.27-.812.3-.844.09-1.688.188-2.534.266-.17.017-.35-.05-.52-.047-.17.006-.37.005-.502.092-.31.206-.586.18-.91.04a6.579 6.579 0 0 0-1.164-.39c-.502-.11-.757-.44-.863-.89-.13-.54-.28-1.092-.277-1.637.004-.45.2-.904.346-1.347.09-.275.243-.53.37-.794.038-.078.1-.15.12-.232.06-.23.105-.473-.083-.664-.198-.203-.458-.17-.65-.033-.63.45-1.34.678-2.073.89-.464.136-.906.38-1.282.734s-.902.492-1.64.576c-.052.125-.073.293-.168.388-.386.388-.55.797-.347 1.35.054.145-.083.396-.193.555-.23.332-.577.49-.98.506-.238.01-.45.05-.667.18-.372.226-.772.407-1.202.627-.39-.197-.775-.395-1.192-.605 0-.21-.02-.413.003-.61.024-.242.024-.462-.138-.667-.188-.232-.154-.493-.037-.748.34-.74.67-1.485 1.034-2.213.114-.23.318-.418.494-.61.36-.402.365-.4.354-1.03a2.29 2.29 0 0 0-1.528-.01c-.28.09-.548.18-.853.155-.168-.012-.344.056-.512.102-.654.177-1.308.32-1.978.06-.096-.038-.26-.033-.333.024-.278.218-.626.136-.92.252-.23.094-.438.125-.676.036-.348-.133-.698-.04-1.036.043-.365.09-.72.22-1.12.345-.334.392-.484.907-.655 1.442-.196.615-.167 1.252-.327 1.866-.08.312.066.687.12 1.03.055.375.126.746.176 1.12.08.572-.33 1.174-1.06 1.28-.2.03-.406.033-.61.03-.284-.005-.496-.142-.655-.38-.176-.27-.405-.508-.55-.793-.312-.62-.83-1.044-1.354-1.506-.005-.25-.014-.51-.014-.77.004-.453.188-.685.62-.644.685.064 1.036-.3 1.25-.865.095-.242.15-.488.308-.717.234-.34.078-.723.04-1.078-.37-.102-.544.13-.706.322-.58.697-1.14 1.412-1.713 2.113-.31.385-.533.85-.968 1.13a.356.356 0 0 0-.122.125c-.458.823-1.095 1.515-1.65 2.268-.083.114-.115.268-.175.4-.326.73-.64.848-1.387.5-.166-.077-.285-.203-.2-.42.093-.23.003-.387-.196-.52-.14-.094-.254-.23-.405-.37.31-.568.692-1.03 1.09-1.494.38-.44.677-.952 1.045-1.404.388-.477.815-.92 1.23-1.376.387-.43.776-.857 1.206-1.33-.164-.135-.275-.294-.42-.33-.28-.068-.604-.158-.86-.076-.798.25-1.63.065-2.433.263-.295.07-.637-.054-.957-.073-.137-.01-.32-.03-.402.044-.146.132-.078.323.005.49.076.156.15.314.22.478.042.106.07.22.11.34-.1.156-.17.323-.288.446-.356.367-.767.456-1.19.174-.314-.21-.638-.265-.985-.326-.634-.112-1.263-.256-1.89-.397-.11-.024-.24-.072-.307-.154-.27-.333-.65-.36-1.027-.43-.312-.06-.615-.172-.928-.233-.23-.046-.468-.028-.695-.073-.312-.062-.64-.11-.922-.246-.305-.143-.43-.396-.406-.79.03-.5.36-.764.642-1.137.51.16 1.09-.01 1.606.26.05.025.12.046.17.03.574-.205 1.164-.072 1.746-.083.842-.018 1.684-.112 2.524.072.278.06.582.003.874-.006.146-.004.318-.077.435-.024.645.3 1.245.003 1.86-.1.23-.037.466-.062.696-.052.617.02 1.232.077 1.848.094.527.012 1.063.033 1.582-.04.332-.05.656-.235.953-.412.22-.132.392-.35.606-.55.05-.192.105-.42.164-.646a2.16 2.16 0 0 1 .49-.917c.31-.347.537-.763.82-1.134.265-.35.543-.688.836-1.013.23-.26.547-.44.603-.836.016-.124.154-.238.254-.34.225-.232.46-.452.688-.68.584-.585 1.104-1.208 1.45-1.973.142-.31.42-.56.575-.76.088-.356.126-.645.23-.91.255-.65.597-1.268.7-1.978.028-.2.122-.39.204-.58.186-.425.615-.69 1.054-.623.13.02.36.173.35.208-.12.42.244.617.377.916.052.116.013.292-.03.427-.165.53-.346 1.058-.523 1.584-.264.776-.504 1.562-.8 2.328-.21.544-.507 1.055-.745 1.588-.155.346-.282.704-.402 1.065-.188.557-.36 1.114-.772 1.564-.134.145-.216.343-.312.522-.068.128-.107.272-.184.396-.137.222-.346.415-.427.652-.2.58-.34 1.177-.547 1.917zm32.544.916c-.682.06-1.23.067-1.762.16-.812.14-1.58.405-2.213.978-.15.135-.343.223-.52.327-.564.333-.938.865-1.366 1.337-.115.13.022.4.192.402.41.006.812-.033 1.163-.284.447-.32.875-.69 1.367-.93.562-.27 1.045-.633 1.533-1.004.393-.3.778-.62 1.312-.652.073-.005.134-.145.295-.333zm18.832 5.707c.06-.228.08-.468.182-.67.27-.55.572-1.083.867-1.62.07-.128.133-.275.238-.366.556-.466.792-1.152 1.213-1.71.315-.416.772-.728.954-1.253.04-.115.213-.187.326-.276.35-.27.697-.533.807-1.006a.573.573 0 0 1 .264-.33c.514-.27.938-.68 1.458-.938a9.34 9.34 0 0 0 1.07-.61c1-.694 2.116-.957 3.315-.903.85.04 1.602.767 1.695 1.616.026.25-.052.462-.178.667-.23.376-.342.78-.443 1.218-.145.64-.384 1.268-.918 1.746-.577.518-.89 1.2-1.054 2 .37.054.677.124.986.132a.848.848 0 0 0 .478-.166c.446-.33.85-.72 1.313-1.02.582-.384 1.06-.818 1.23-1.528.06-.267.23-.48.526-.533.323-.062.53-.284.647-.55.19-.436.533-.606.963-.657a3.087 3.087 0 0 0 1.47-.555c.55-.4 1.09-.304 1.558.006.956.638 1.196 1.357.655 2.313-.172.3-.31.65-.728.646-.118.295-.177.598-.345.814-.172.22-.453.355-.684.53a6.61 6.61 0 0 0-.412.33c-.3.273-.625.418-1.043.333-.42-.085-.8 0-1.15.285-.17.14-.414.253-.632.264-.51.024-.74.334-.855.75-.084.307-.098.637-.107.957-.004.096.1.275.162.28.45.036.832.358 1.34.19.662-.22 1.363-.315 2.043-.49.23-.058.454.147.682-.024.16-.124.338-.23.52-.325.753-.395 1.512-.768 2.136-1.374.288-.28.677-.46 1.03-.67.228-.137.4-.31.58-.514.36-.418.77-.805 1.202-1.146.737-.583 1.267-1.284 1.497-2.208.136-.544.36-1.055.73-1.49.112-.135.196-.293.29-.44.45-.717.896-1.438 1.355-2.147.11-.17.276-.297.415-.447.255-.278.51-.557.76-.838.077-.086.134-.195.226-.26.307-.23.613-.458.94-.65.25-.147.522-.27.802-.354.512-.15.893.052 1.023.552.193.735.133 1.437-.29 2.104-.497.79-1.044 1.54-1.612 2.274-.34.44-.635.912-.974 1.352-.243.318-.446.696-.91.773a.425.425 0 0 0-.27.212c-.265.665-.802 1.255-.593 2.054.08.323.044.626-.037.95-.112.446-.103.914-.2 1.37-.09.42-.053.873.28 1.242.204.224.253.52.24.833-.36.398-.857.507-1.333.626-.17.044-.426-.03-.568-.142-.344-.27-.672-.566-.71-1.062-.028-.373-.2-.716-.13-1.12.057-.31-.115-.622-.305-.923-.682.047-1.23.266-1.642.854a2.849 2.849 0 0 1-1.28 1.032c-.37.145-.615.578-1.104.468-.07-.016-.195.113-.267.198-.62.733-1.465 1.032-2.356 1.244-.027.007-.06.02-.086.018a2.815 2.815 0 0 0-1.842.287c-.19.102-.523.013-.764-.07-.64-.227-1.275-.415-1.97-.327-.26.033-.438-.133-.574-.34-.207-.32-.437-.63-.603-.97-.096-.2-.092-.45-.123-.68-.055-.402-.312-.574-.674-.432-.326.128-.658.246-.973.402-.537.27-1.007.597-1.1 1.27-.03.225-.164.435-.26.647-.107.24-.258.468-.334.717-.398 1.318-1.142 2.508-1.443 3.86-.007.028-.008.062-.023.084-.605.896-.898 1.95-1.45 2.874-.54.413-.644 1.1-1.02 1.614-.36.49-.707.98-.99 1.527-.588 1.138-1.495 2.017-2.52 2.767-.322.236-.71.393-1.08.554-.267.115-.543.215-.853.11-.13-.042-.33-.054-.422.017-.46.36-.972.2-1.438.125-.604-.098-1.196-.252-1.82-.258-.376-.003-.66-.186-.73-.62-.026-.153-.16-.3-.266-.43-.63-.775-.72-1.634-.418-2.558.046-.142.112-.277.13-.42.074-.607.362-1.095.772-1.54.233-.256.37-.602.598-.864.343-.396.79-.705.91-1.257.508-.257.638-.917 1.192-1.125a.37.37 0 0 0 .14-.105c.66-.738 1.317-1.48 2.07-2.325.29-.076.58-.384.913-.683.755-.682 1.594-1.272 2.606-1.462l.613-.924c-.087-.04-.172-.114-.22-.095-.16.064-.302.173-.458.244-.4.18-.812.168-1.18-.065a9.54 9.54 0 0 1-1.06-.784c-.204-.188-.372-.436-.58-.68zm-4.19 13.313c.52.253 1.03.463 1.575.574.192.04.424.05.603-.02.543-.216 1.07-.472 1.6-.726.126-.06.287-.157.326-.272.14-.416.497-.543.827-.73.2-.11.424-.246.535-.434.19-.314.3-.68.448-1.02.082-.19.15-.39.272-.55.318-.418.68-.807.994-1.227.298-.392.608-.784.822-1.22a8.708 8.708 0 0 0 .562-1.57c.093-.353.215-.67.48-.917.185-.17.227-.375.285-.61.16-.645.212-1.346.765-1.832.04-.035.054-.103.078-.155.062-.13-.056-.326-.197-.323-.085.002-.18-.005-.253.03-.602.302-1.197.61-1.793.922-.05.024-.1.08-.11.13-.106.46-.48.633-.855.815a1.942 1.942 0 0 0-.51.345c-.463.443-.903.91-1.362 1.355-.188.182-.402.335-.604.502-.11.09-.265.16-.325.278-.315.61-.833 1.056-1.267 1.562-.43.5-.768 1.097-1.407 1.41-.31.152-.513.457-.544.855-.023.32-.184.604-.372.88-.392.573-.51 1.232-.576 1.948zm14.326-21.577a4.405 4.405 0 0 0-1.7.354c-.267.113-.592.22-.746.435-.255.353-.604.55-.933.787-.238.172-.423.384-.617.604-.786.898-1.316 1.996-2.216 2.804-.04.036-.048.105-.078.155-.124.196-.24.397-.377.583-.348.474-.585.99-.727 1.564.36.236.675.214 1.03.076.573-.224.984-.745 1.614-.857.05-.008.098-.064.13-.11.474-.686 1.147-1.162 1.743-1.723.21-.2.404-.422.59-.646.295-.36.557-.75.874-1.09.246-.263.472-.518.545-.88.056-.273.216-.467.47-.6.283-.15.55-.33.746-.636-.11-.265-.224-.527-.348-.818zM32.82 20.715c1.016.05 1.75-.417 2.5-.943l.724.107c.276-.213.577-.37.772-.61.228-.283.578-.067.798-.287.207-.208.417-.415.646-.597.11-.086.274-.1.403-.167.533-.274 1.18-.384 1.486-.996.975-.525 1.627-1.42 2.44-2.134.152-.134.343-.227.495-.36.217-.195.468-.382.607-.627.205-.36.355-.74.763-.93.047-.02.113-.086.108-.124-.06-.473.36-.637.583-.925.195-.252.362-.498.458-.828.12-.41.372-.794.622-1.15.33-.47.534-1.045 1.076-1.353a.487.487 0 0 0 .222-.263c.134-.535.64-.815.858-1.308.196-.444.554-.817.85-1.217.104-.14.21-.323.358-.38.61-.226.972-.74 1.402-1.168.294-.29.56-.56.982-.688.25-.078.505-.34.625-.583.274-.563.695-.653 1.228-.552l.63 1.013c-.423.66-.845 1.324-1.276 1.98-.062.095-.175.154-.265.23-.09.08-.25.142-.262.227-.08.54-.578.785-.812 1.208-.197.355-.48.593-.848.725-.387.14-.63.423-.83.752-.074.12-.152.294-.116.41.117.382-.08.602-.322.84-.776.755-1.52 1.527-2.15 2.425-.394.562-.793 1.14-1.323 1.62-.378.344-.606.858-.876 1.313-.18.3-.326.623-.46.946-.065.157-.077.338-.1.51-.05.37-.093.742-.15 1.21l.518 1.102c.583.095 1.16.17 1.75.088.347-.048.7-.06 1.05-.11.612-.088.977.315 1.346.687.07.07.072.317.005.4-.293.36-.565.753-1.104.8-.533.05-1.052.16-1.275.737-.868-.18-1.653-.177-2.385.053-.264-.203-.456-.396-.684-.518-.703-.376-1.038-.99-1.207-1.734a24.367 24.367 0 0 0-.356-1.35c-.042-.142-.147-.276-.32-.24-.1.02-.238.1-.266.184-.12.36-.37.5-.73.52a.584.584 0 0 0-.318.13c-1.12.95-2.43 1.62-3.6 2.496-.2.15-.468.248-.72.293-.21.038-.384.1-.56.215-.144.094-.32.186-.486.188-.568.012-.983.316-1.404.64a1.187 1.187 0 0 1-.473.205c-.315.067-.64.094-.956.15-.632.112-1.215-.056-1.775-.314-.752-.35-1.18-1.282-1.208-1.91-.05-1.15.283-2.192.87-3.163.393-.645.87-1.23 1.382-1.788.098-.105.222-.19.34-.274.096-.066.245-.092.297-.18.365-.612 1.02-.855 1.55-1.25.118-.09.26-.157.35-.27.43-.527.95-.812 1.658-.85.317-.02.637-.26.994-.28.486-.028.908.195 1.11.574.285.533.472 1.116.25 1.773-.272.796-.77 1.444-1.218 2.128-.543.276-.843.79-1.226 1.23-.183.207-.492.306-.743.454-.25.147-.514.275-.745.448-.49.37-.903.837-1.452 1.134-.038.017-.042.097-.11.275zm3.087-5.546c-.267-.273-.533-.33-.8-.105-.557.462-1.193.84-1.53 1.53-.07.147-.227.258-.353.376-.234.22-.23.446-.04.724.434-.07.84-.18 1.115-.578a.903.903 0 0 1 .323-.285c.68-.332 1.032-.914 1.284-1.66zm197.483 4.659a2.76 2.76 0 0 0 1.663.127c.77-.167 1.527-.374 2.327-.37.455.002.853-.194 1.173-.52.236-.24.5-.406.846-.41.323-.005.536-.17.72-.43.113-.163.297-.274.44-.414.107-.1.245-.187.302-.31.438-.96 1.26-1.52 2.1-2.065.268-.175.518-.376.77-.57.105-.077 1.247-.64 1.395-.668.544-.106 1.08-.285 1.647-.18.084.016.178 0 .263-.02.47-.117.93-.047 1.387.08.76.215 1.49.47 2.16.923.513.345.644.818.653 1.353.01.347-.047.708-.147 1.042-.146.466-.278.964-.83 1.153a.65.65 0 0 0-.29.196c-.676.876-1.763 1.108-2.63 1.683-.182.12-.454.147-.68.132-.378-.026-.695.1-1.002.274-.44.25-.884.415-1.407.382-.25-.016-.53.06-.763.165-.47.213-.92.15-1.368-.018-.495-.186-.993-.363-1.47-.59-.327-.158-.59-.166-.9.04-.263.177-.57.292-.858.422-.318.14-.642.27-1.08.453-.148-.005-.404-.163-.718-.04-.32.127-.683.176-1.03.185-.584.017-1.162.016-1.73.205-.153.052-.38.062-.508-.014-.412-.243-.778-.193-1.138.092-.442-.344-.922-.558-1.236-1.014-.193-.28-.458-.254-.78-.055-.792.495-1.56 1.045-2.392 1.458-.75.37-1.476.814-2.303 1.017-.233.056-.442.09-.682-.01-.24-.102-.51-.142-.77-.188-.566-.1-1.05-.346-1.418-.74-.184-.9.466-1.44.816-2.095.062-.12.283-.154.455-.238.305.33.354.695.385 1.08.043.493.262.645.756.585.495-.06.985-.116 1.397-.453a.658.658 0 0 1 .4-.143c.395.008.703-.204.918-.457.435-.502 1.004-.695 1.592-.882.084-.026.17-.04.27-.063.21-.377.456-.72.766-1.042.484-.507.912-1.065 1.455-1.52.095-.08.127-.253.16-.39.073-.308.078-.646.215-.92.136-.277.363-.536.61-.724.23-.17.34-.374.447-.622.138-.32.3-.64.513-.917.408-.533.797-1.11 1.307-1.534.738-.614 1.34-1.394 2.224-1.84.144-.073.258-.225.356-.36.216-.286.43-.56.762-.718.076-.036.193-.105.195-.16.004-.582.514-.73.88-1.06l1.02.138c.088.33.192.658.255.993a.711.711 0 0 1-.07.42c-.322.622-.628 1.25-1.146 1.753-.374.363-.687.79-1.01 1.2-.09.11-.168.264-.165.395.01.4-.192.656-.484.885-.11.087-.202.217-.265.347-.32.68-.87 1.164-1.412 1.656-.15.135-.285.285-.42.434-.1.108-.165.285-.283.33-.584.214-.896.737-1.25 1.166-.362.434-.658.922-1.076 1.32-.153.148-.184.42-.29.682zm9.53-.82c.073.236.268.306.48.32.784.052 1.58.183 2.27-.382.104-.086.274-.093.408-.145.737-.278 1.502-.502 2.15-.97.16-.116.327-.255.428-.422.163-.266.274-.562.425-.89l-1.196-.787c-.324.092-.574.215-.826.22-.252.004-.506-.112-.758-.174-.025-.007-.058-.008-.085-.013-.372-.062-.534.02-.713.354-.083.152-.14.33-.253.448-.283.293-.593.562-.9.832-.083.075-.196.163-.297.166-.364.01-.49.312-.65.536-.2.277-.327.605-.483.91zm-235.01.576c-.936.154-.915.193-1.51.51-.432.228-.922.358-1.398.486-.478.13-.976.153-1.45.34-.583.23-1.18.046-1.708-.193-.664-.3-1.28-.7-1.678-1.357-.113-.187-.214-.375-.142-.575.14-.38.3-.76.496-1.116.076-.138.255-.24.41-.31.312-.135.548-.054.75.236.237.335.463.677.694 1.014.706.22 1.405.11 2.09-.03.565-.116 1.165-.158 1.647-.538.586-.03.994-.485 1.527-.638.348-.1.39-.565.824-.603.337-.027.63-.255.916-.484.447-.36.785-.777 1.035-1.284.253-.51.94-.98 1.432-1.018.29-.02.5.06.662.323.323.528.35 1.1-.12 1.51-.373.327-.587.738-.783 1.14-.34.704-.906 1.294-1.058 2.096-.03.16-.184.297-.268.45-.153.275-.297.558-.474.894.175.044.288.11.38.088.34-.08.672-.195 1.01-.286.264-.072.45-.21.632-.43.196-.236.504-.39.784-.543.21-.116.4-.225.508-.458a.968.968 0 0 1 .28-.328c.296-.238.604-.456.828-.78.093-.134.272-.222.428-.295.2-.093.344-.22.413-.428.152-.46.542-.68.928-.89.36-.193.745-.11 1.036.196.12.127.255.254.333.407.074.146.14.334.116.488-.078.486-.18.97-.31 1.444-.24.896.362 1.832 1.5 1.7.383-.044.73-.066 1.116.015.504.104.98-.147 1.433-.35.828-.375 1.638-.785 2.452-1.19.128-.062.252-.153.347-.26.495-.553 1.097-.95 1.745-1.305.238-.13.445-.392.572-.64.213-.42.403-.845.726-1.197.166-.183.195-.4.18-.653-.026-.46-.235-.85-.438-1.234-.083-.154-.302-.287-.483-.332-.54-.132-1.093-.22-1.642-.315a.97.97 0 0 0-.348.01c-.432.08-.86.196-1.294.252-.527.07-.89.287-.92.863-.41.086-.778.18-1.15.236-.237.036-.468-.01-.648-.2-.148-.158-.255-.328-.207-.552.1-.455.208-.908.31-1.354.142-.07.257-.107.345-.177.42-.337.93-.415 1.43-.546.482-.128.963-.213 1.463-.202.14.003.28-.07.423-.094.17-.03.373-.105.516-.05.512.21 1.048.096 1.56.177a7.45 7.45 0 0 1 1.607.436c.478.19.724.66.98 1.085.167.274.287.575.45.853.4.675.386 1.455-.113 2.037-.216.25-.365.524-.508.812-.184.372-.387.728-.804.896a.464.464 0 0 0-.2.164c-1.09 1.554-.76 1.185-2.533 2.275-.245.15-.486.343-.658.57-.37.485-.87.667-1.444.728-.086.01-.172.03-.31.056-.03.04-.09.104-.136.178-.24.372-.59.526-1.02.6-.634.105-1.254.288-1.886.407a5.515 5.515 0 0 1-2.1-.017c-.82-.156-1.408-.68-1.845-1.378-.202-.32-.386-.656-.598-.973-.155-.232-.384-.244-.6-.053-.176.152-.32.348-.515.468-.167.104-.384.127-.604.192-.086.215-.172.43-.27.67-.702.37-1.47.67-2.102 1.213-.17.146-.416.217-.638.284-.45.135-.917.215-1.357.372-.703.25-1.08-.213-1.326-.68-.094-.18-.144-.38-.224-.568-.1-.23-.09-.45-.006-.686.175-.494.327-.998.515-1.582zM78.8 16.87c.33.004.6-.104.754-.38a2.06 2.06 0 0 1 .727-.745c.124-.077.224-.192.328-.295.062-.062.106-.143.17-.202.105-.1.216-.262.333-.27.728-.047 1.13-.715 1.78-.895.28-.077.653.117.817.4.19.33.38.658.544 1 .074.15.07.338.13.5.09.24.194.48.313.71.117.226.326.33.576.352.642.058 1.286.107 1.928.17a.72.72 0 0 0 .632-.243c.273-.307.53-.625.782-.948.142-.184.258-.386.386-.58l1.2-1.802c.42-.074.8-.292 1.134-.66.397-.433.964-.532 1.542-.462.282.034.466.2.59.467.333.717.356 1.435-.083 2.094-.517.777-.87 1.665-1.567 2.32-.042.038-.07.092-.104.142-.15.225-.062.496.194.56.48.118.967.225 1.508.35.3-.228.67-.352 1.103-.317.407.032.82-.013 1.232-.025.06-.002.12-.03.174-.016.7.186 1.393.135 2.083-.056a.41.41 0 0 1 .256.025c.378.19.69.46.795.886.11.445-.058.806-.493 1.01-.42.195-.856.362-1.3.486-.176.05-.412-.013-.59-.094a1.442 1.442 0 0 0-1.11-.062c-.636.228-1.27.18-1.905.056-.382-.074-.75-.146-1.123.012-.236.1-.46.043-.685-.035-.385-.132-.765-.33-1.16-.37-.564-.057-.997-.317-1.404-.662-.35-.295-.693-.373-1.127-.145-.334.174-.71.282-1.077.367-.25.06-.528.07-.78.023-.768-.143-1.528-.322-2.31-.492-.55-.623-1.06-1.3-1.76-1.832-.274-.053-.468.15-.68.295-.215.15-.408.334-.632.47-.273.162-.592.253-.656.643-.015.09-.157.16-.243.236-.173.153-.367.29-.52.463-.253.287-.487.58-.897.66-.107.02-.208.108-.295.185-.662.573-.66.574-1.56.725-.19-.247-.582-.392-.55-.8.027-.347-.35-.626-.116-1.01.07-.116-.018-.33-.038-.546a52.47 52.47 0 0 1-.698.24c-.21.268-.338.51-.536.666-.743.585-1.33 1.292-1.85 2.08-.23.353-.532.692-.944.894-.535.26-1.053.108-1.334-.417-.227-.422-.185-.844-.02-1.275.117-.3.234-.604.305-.917.07-.31.086-.636.127-.97.193-.184.4-.38.604-.578.207-.202.412-.406.633-.625.033-.19-.072-.398.135-.624.363-.394.48-.932.622-1.44.055-.197.1-.398.184-.584.176-.397.436-.693.913-.725.17-.01.34-.075.51-.113.6.57.68 1.2.234 1.838.17.19.265.102.35.024.286-.254.57-.51.85-.768a.874.874 0 0 1 .728-.24c.44.05.88.104 1.222.432.19.183.377.346.36.663-.015.3.16.55.364.78zm-19.44 2.943c-.534.405-1.133.71-1.536 1.283-.13.185-.443.282-.69.33-.327.067-.623.15-.856.4a.56.56 0 0 1-.224.136c-.912.312-1.796.702-2.75.892-.638.125-1.155-.098-1.627-.473-.455-.36-.573-.86-.505-1.423.104-.852.38-1.65.708-2.437.065-.157.17-.333.307-.415.343-.208.432-.527.498-.882.077-.418.302-.726.64-1.01.506-.427.987-.88 1.233-1.56.13-.357.463-.723.802-.9.508-.27.85-.717 1.312-1.02.122-.08.217-.2.34-.28.385-.248.802-.192 1.114.143.172.184.253.397.144.645-.082.187-.178.367-.21.43-.702.428-1.302.783-1.893 1.156a.904.904 0 0 0-.288.325c-.45.822-1.043 1.552-1.422 2.424-.208.48-.428.942-.566 1.45-.09.335-.294.64-.44.96-.073.16-.168.358.003.48.125.086.322.105.484.096.17-.01.345-.072.505-.144.46-.204.928-.354 1.43-.22.256-.23.377-.568.757-.6.116-.01.226-.167.326-.27.246-.25.464-.528.73-.75.535-.45 1.097-.867 1.643-1.306.135-.108.253-.24.362-.376.348-.434.687-.873 1.02-1.297-.103-1.144.43-1.907 1.355-2.462.172-.104.368-.22.466-.384.213-.353.516-.443.892-.442.174 0 .357-.017.52-.07 1.013-.34 2.738.258 3.52.952.085.075.155.166.224.256.14.183.285.364.407.558.2.32.47.627.562.98.297 1.156.29 2.318-.136 3.46-.12.32-.296.56-.6.72-.447.234-.847.518-1.122.964-.1.163-.292.285-.465.388-.402.237-.85.408-1.216.69-.32.248-.648.377-1.035.418-.116.014-.245.02-.34.077-.638.37-1.336.345-1.96.112-.57-.212-1.22-.37-1.576-1.005-.206-.365-.552-.654-.85-.994zm7.52-3.76c-.266-.36-.515-.683-.744-1.018-.134-.196-.238-.424-.49-.477-.38-.08-.715-.248-1.053-.433-.31-.168-.636-.114-.9.124-.237.213-.45.452-.69.698l.35.674c-.234.362-.428.77-.718 1.086-.58.63-.82 1.398-1.038 2.142.156.415.4.642.796.677.642.06 1.283.13 1.926.16.152.008.348-.088.46-.2.56-.554 1.088-1.136 1.642-1.694.266-.268.377-.58.393-.944.01-.26.042-.52.066-.796zm229.128-8.095c-.045.33-.084.614-.122.906-.495.452-1.062.687-1.76.513-.136-.033-.286-.01-.427.01-.58.082-1.158.152-1.726.275-.216.046-.416.203-.595.346-.227.185-.462.242-.736.166-.086-.022-.17-.057-.256-.06-.596-.03-1.005-.295-1.127-.908-.17-.045-.313-.126-.448-.11-.56.06-1.103-.075-1.653-.115-.463-.032-.922-.058-1.393.038-.36.072-.76.015-1.135-.03-.44-.055-.867-.106-1.277.152a.793.793 0 0 1-.504.105c-.853-.123-1.68.308-2.534.11-.61.18-1.27.138-1.862.377-.25.103-.497.152-.763.17-.202.01-.446.013-.59.124-.402.307-.81.3-1.234.116-.21.193-.372.418-.593.526-.196.098-.47.03-.688.1-.49.153-1.018.223-1.453.532-.117.083-.263.125-.39.193-.565.304-1.122.6-1.41 1.24-.113.256-.354.457-.545.677-.402.465-.802.934-1.22 1.383-.26.278-.54.535-.838.773-.1.08-.272.094-.41.093-.198 0-.345-.132-.36-.323-.027-.258-.006-.52-.006-.85.373-.212.61-.603.84-1.01.17-.302.39-.575.57-.872.03-.056.01-.187-.034-.232-.045-.047-.154-.05-.233-.042-.05.005-.097.06-.143.097-.133.11-.26.232-.4.333-1.274.91-2.154 2.104-2.69 3.58-.28.772-.55 1.54-.784 2.325-.167.558-.296 1.137-.508 1.664-.22.538-.408 1.158-.947 1.535-.134.094-.213.267-.318.4-.27.34-.558.415-.922.192-.22-.132-.4-.327-.555-.457-.132-.736.057-1.34.33-1.935.468-1.012.803-2.067 1.06-3.155.25-1.057.696-2.05 1.532-2.795.234-.208.547-.328.885-.522.043-.362.286-.643.608-.933.452-.406.882-.846 1.317-1.276.142-.14.207-.35.324-.515.295-.407.596-.813 1.156-.86.34-.028.646.03.87.318.172.23.34.465.538.733.03-.005.128.006.183-.04.663-.514 1.43-.784 2.238-.962a.867.867 0 0 0 .324-.128c.632-.456 1.36-.662 2.104-.836.626-.146 1.26-.273 1.88-.45.417-.117.882.045 1.27-.235.048-.037.175.008.252.044.265.13.51.042.765-.04.33-.107.656-.24 1.028-.183.158.025.338-.062.505-.112.335-.1.662-.186 1.03-.136.306.043.628-.055.94-.074.613-.036 1.228-.06 1.84-.088.58-.026 1.163-.05 1.74-.072.147-.005.296.02.44 0 .753-.098 1.51-.08 2.264-.028.588.038 1.157.027 1.738-.12.355-.093.754-.022 1.13-.02.586.007 1.17.02 1.755.03.266.002.54.05.792-.01.515-.12.922.046 1.34.358zm-69.3.192c.047.245.062.45.128.637.057.156.174.29.288.473-.344.3-.79.494-.75 1.04-.647.075-1.22.142-1.82.21-.116-.267-.22-.5-.327-.747-.845-.155-1.672.06-2.494.196-.543.09-1.064.31-1.598.463-.17.05-.344.07-.517.105-.144.028-.313.016-.427.09-.536.36-1.145.422-1.763.47-.17.015-.343.067-.503.13-.485.196-.966.406-1.448.61-.025.01-.055.033-.08.03-.672-.037-1.098.456-1.614.75-.152.085-.302.19-.466.242-.452.142-.88.29-1.162.727-.098.15-.34.237-.533.285-.636.156-.995.577-1.206 1.166-.07.19-.146.382-.227.57-.24.57-.71.748-1.283.48-.314-.147-.52-.386-.497-.758.036-.688.12-1.345.795-1.756.163-.1.29-.293.374-.473.14-.293.376-.438.658-.542.22-.08.438-.178.664-.23.295-.067.54-.177.75-.413.15-.167.38-.264.582-.383.302-.18.614-.342.914-.525.276-.17.562-.3.89-.354a3.98 3.98 0 0 0 .836-.257c.432-.184.848-.41 1.336-.395.028 0 .062 0 .087-.013.546-.335 1.182-.258 1.77-.385.372-.078.765-.097 1.072-.362.043-.038.103-.077.154-.08 1.064-.05 1.958-.78 3.04-.768.114 0 .24-.02.344-.064.74-.337 1.552-.296 2.327-.424.566-.094 1.102.093 1.708.256zm34.065 8.09c-.565-.066-.804-.44-1.018-.834-.89.237-1.75.415-2.5.89-.42.268-.76.646-.96 1.11-.187.427-.106.874.084 1.283.11.24.223.466.223.745-.002.134.084.27.143.402.148.35.31.69.456 1.04.166.39.07.745-.163 1.08-.437.628-1.407.964-2.097.645-.38-.176-.696-.204-1.088-.085-.554.167-.812.03-1.076-.475a2.423 2.423 0 0 1-.185-.494c-.148-.55.104-1.052.66-1.117.428-.05.707-.227.98-.588-.062-.22-.106-.48-.196-.724-.313-.866-.045-1.674.23-2.48a.694.694 0 0 1 .198-.286c.393-.353.79-.702 1.2-1.034.13-.107.33-.25.458-.217.412.105.66-.15.965-.317.147-.08.328-.108.498-.15.483-.116.963-.236 1.45-.344.525-.12 1.05-.025 1.574.042.472.062.584.444.71.803.108.305.047.574-.23.78-.113.085-.203.205-.32.324zm13.477 6.39c-.186.312-.357.542-.654.502-.554-.073-1.04.154-1.502.365-.556.254-1.02.023-1.506-.115-.213-.06-.327-.355-.256-.593.09-.304.208-.602.352-.884.06-.116.227-.27.325-.258.482.057.977-.278 1.45.048.063.045.17.053.254.043.722-.084 1.095.41 1.537.89zm-169.08-2.842c.16.064.452.13.682.287.448.306.406 1.027-.045 1.328-.118.078-.274.134-.343.244-.177.285-.443.337-.738.4-.317.07-.562.028-.788-.222-.194-.214-.44-.382-.64-.59-.292-.306-.112-1.087.292-1.19.475-.115.968-.16 1.58-.257z" fill="#fff"/></svg>